<svg width="32" height="37" viewBox="0 0 32 37" fill="none" xmlns="http://www.w3.org/2000/svg">
<path d="M15.074 9.49968C11.9807 9.09806 8.93015 8.35464 6.04762 10.1491C3.35593 11.8296 1.29372 14.7008 0.507576 17.7684C-0.60328 22.1065 0.0546887 27.0455 3.02267 30.5205C4.65193 32.4261 7.36071 34.4541 9.78181 35.2117C15.9969 37.1543 23.6789 36.2315 27.5783 30.4436C28.692 28.7916 29.8086 26.5528 30.2159 24.5902C31.3581 19.1043 30.0792 12.6756 24.3995 10.3143C21.8702 9.26327 19.1671 9.84148 16.5239 9.65064C16.0396 9.61646 15.5554 9.56234 15.074 9.49968Z" fill="#BDCF46"/>
<path d="M24.5221 0.00328221C26.5843 -0.0622299 30.0422 0.857787 31.4407 2.33038C31.6116 2.51268 31.9392 2.77188 31.9876 3.0026C32.0645 3.37573 31.7683 3.69474 31.5518 3.97103C28.4756 7.89891 22.175 9.93548 18.1873 7.26658C17.6291 6.89344 17.9281 6.20129 18.0421 5.62877C18.4978 3.3444 20.2638 1.24801 22.4371 0.419141C23.1038 0.164523 23.8087 0.0239401 24.5221 0.00328221Z" fill="#757F3F"/>
<path d="M18.1106 6.08159C18.0906 6.00753 18.0536 5.94202 17.9995 5.8993C17.8856 5.811 17.6491 5.7227 17.5153 5.67428C17.313 5.59737 17.0966 5.56604 16.8858 5.56604C16.806 5.56604 16.7291 5.56889 16.6551 5.57743C16.3702 5.61161 16.1253 5.717 15.9629 5.94772C15.7464 6.2468 15.7835 6.58575 15.7265 6.93325C15.6468 7.42886 15.4132 7.8789 15.285 8.36312C15.1853 8.73625 15.1056 9.11508 15.0344 9.49676C14.9802 9.7759 14.9347 10.055 14.9005 10.337C14.778 11.3824 14.6071 12.4277 14.6527 13.4845C14.6555 13.6297 14.6612 13.775 14.6698 13.9203C14.6726 13.9943 14.6812 14.0655 14.6926 14.1396C14.7096 14.2364 14.7153 14.3475 14.7267 14.4586C14.7324 14.4985 14.7353 14.5383 14.741 14.5782C14.7723 14.7491 14.8321 14.9086 14.9945 14.9969C15.1996 15.1109 15.436 15.1621 15.6752 15.165C15.7493 15.165 15.8234 15.1536 15.8946 15.1479L16.0826 15.1365C16.1737 15.1109 16.2677 15.0767 16.3617 15.051C16.5127 15.014 16.6608 14.9371 16.7662 14.8203C16.8602 14.7149 16.8715 14.6067 16.8658 14.4814L16.8573 14.3931C16.8459 14.282 16.8374 14.1681 16.8317 14.0541C16.8174 13.8291 16.8117 13.5984 16.806 13.3734C16.7889 12.8664 16.7975 12.3537 16.8431 11.8467C16.8744 11.5447 16.8886 11.2371 16.9143 10.9352C16.9456 10.5136 17.0054 10.0949 17.0766 9.67621C17.0937 9.58791 17.1023 9.50246 17.1194 9.41701C17.2219 8.88152 17.4127 8.40015 17.6178 7.89314C17.7118 7.65958 17.7517 7.41177 17.8371 7.18675C17.9311 6.95319 18.1391 6.82501 18.1391 6.54587C18.1391 6.41485 18.1533 6.22971 18.1106 6.08159Z" fill="#855C52"/>
<path d="M14.5814 14.1511C13.9149 14.0087 13.2655 13.7723 12.6559 13.4732C12.3369 13.3166 11.4141 12.5817 11.3201 13.3536C11.2004 14.285 12.485 15.0882 13.1231 15.3873C14.2225 15.9057 15.453 16.0908 16.6351 15.8516C17.7716 15.6209 18.7457 15.0597 19.4749 14.0742C19.566 13.946 19.6316 13.7951 19.6771 13.6527C19.8395 13.1371 19.2755 13.1314 18.9736 13.2767C18.7286 13.3935 18.5178 13.5814 18.2729 13.6982C17.8058 13.9233 17.3158 14.1055 16.8174 14.2024C16.074 14.342 15.3192 14.3049 14.5814 14.1511Z" fill="#2F2F2F"/>
<path d="M8.92715 12.254C8.56256 11.7641 7.56279 11.7185 6.8507 11.9607C5.97056 12.2626 5.18726 12.9177 4.63753 13.6611C4.1647 14.2992 3.46971 15.6379 4.15616 16.3699C4.49226 16.7259 4.89958 16.5864 5.28695 16.3927C5.98765 16.0423 6.4149 15.2761 7.00736 14.7834C7.6169 14.2792 9.77595 13.3734 8.92715 12.254Z" fill="white"/>
</svg>
