<svg width="46" height="30" viewBox="0 0 46 30" fill="none" xmlns="http://www.w3.org/2000/svg">
<path d="M40.8046 7.55052C23.4871 24.8361 2.29723 6.03557 2.29723 6.03557C2.29723 6.03557 1.92248 5.97638 0.816925 7.37365C-0.288539 8.77093 0.0482933 9.09877 0.0482933 9.09877C11.0486 34.7145 42.7684 25.1534 44.9106 11.5133L44.7843 8.80477L44.0164 6.22454L43.4563 5.91429C42.009 7.27421 42.7362 7.40181 42.7362 7.40181L40.8046 7.55052Z" fill="#F6BB42"/>
<path d="M1.91464 7.29388C1.93567 6.98156 1.80512 6.69459 1.58688 6.50365C1.38329 6.70028 1.12921 6.97876 0.816905 7.37356C0.630923 7.609 0.486271 7.81276 0.373245 7.99107C0.518526 8.10387 0.69687 8.17579 0.893363 8.18915C1.42193 8.22506 1.87888 7.82395 1.91464 7.29388Z" fill="#434A54"/>
<path d="M39.3488 7.14863C26.5516 28.0325 3.04125 15.624 3.04125 15.624C3.04125 15.624 2.66291 15.655 1.91467 17.2729C1.16643 18.8916 1.57074 19.1313 1.57074 19.1313C18.2466 41.4412 46.8493 24.6724 45.7459 10.9083C45.7459 10.9083 45.3486 8.78134 44.9907 8.30478C44.6313 7.82822 46 2.00504 46 2.00504L41.1849 0C41.1849 3.04767 40.9252 5.91559 40.476 6.21094C40.0269 6.50711 39.3488 7.14863 39.3488 7.14863Z" fill="#FFCE54"/>
<path d="M1.61208 18.0259C1.72995 18.0781 1.85987 18.1077 1.99671 18.1077C2.5259 18.1077 2.95482 17.6762 2.95482 17.1446C2.95482 16.7709 2.74288 16.4481 2.43399 16.2894C2.28727 16.5242 2.11396 16.8414 1.91459 17.2728C1.77847 17.5677 1.6809 17.8158 1.61208 18.0259Z" fill="#434A54"/>
<path d="M41.185 0.000106812C41.185 3.04778 40.9253 5.9157 40.4761 6.21105C42.593 6.33161 44.9907 8.3048 44.9907 8.3048C44.6313 7.82824 46 2.00506 46 2.00506L41.185 0.000106812Z" fill="#F6BB42"/>
<g opacity="0.2">
<path opacity="0.2" d="M44.9907 8.30478C44.6313 7.82822 46 2.00504 46 2.00504L43.8507 1.10968C43.4759 2.80448 42.8106 6.02974 43.0731 6.37942C43.4324 6.8567 43.8282 8.98293 43.8282 8.98293C44.8488 21.7143 20.4563 37.0153 3.5929 21.586C20.4527 40.1256 46.8057 24.131 45.7458 10.9083C45.7459 10.9083 45.3486 8.78134 44.9907 8.30478Z" fill="white"/>
</g>
</svg>
