<svg width="140" height="129" viewBox="0 0 140 129" fill="none" xmlns="http://www.w3.org/2000/svg">
<path fill-rule="evenodd" clip-rule="evenodd" d="M87.3318 20.6818L87.3486 21.6665L73.1894 121.148L41.5225 23.9228L41.4876 22.9751L75.819 11.8002L87.3318 20.6818Z" fill="#D16435"/>
<path fill-rule="evenodd" clip-rule="evenodd" d="M73.1034 121.12L42.3214 119.461L41.5058 23.4695L71.1457 27.0025L73.1034 121.12Z" fill="#F7A92D"/>
<path fill-rule="evenodd" clip-rule="evenodd" d="M89.7711 114.696L73.1034 121.12L74.9358 26.9139L87.3363 20.8052L89.7711 114.696Z" fill="#F39722"/>
<path fill-rule="evenodd" clip-rule="evenodd" d="M87.3318 20.6816L76.9657 12.2262L52.5797 13.6257L41.4696 23.0119L72.4066 24.6624L77.0401 15.5024L86.4174 20.8972L87.3318 20.6816Z" fill="#ED7423"/>
<path fill-rule="evenodd" clip-rule="evenodd" d="M74.8001 17.1551L50.4555 15.4563L50.9368 7.03389L76.2117 6.31275L74.8001 17.1551Z" fill="#F7A92D"/>
<path fill-rule="evenodd" clip-rule="evenodd" d="M74.8245 16.8945L76.2117 6.31274L77.8654 7.1936L79.9756 15.7342L74.8245 16.8945Z" fill="#ED7423"/>
<path fill-rule="evenodd" clip-rule="evenodd" d="M65.2327 44.3958L45.7226 41.9706L47.066 85.8765L66.0848 88.9338L65.2327 44.3958Z" fill="#ED7423"/>
<path fill-rule="evenodd" clip-rule="evenodd" d="M25.8484 125.631L46.5084 120.401C51.2184 119.211 52.7684 116.001 51.5784 111.291L34.7884 44.9609C33.5984 40.2509 28.7684 37.3709 24.0584 38.5609L6.66841 42.9609C1.95841 44.1509 -0.921589 48.9909 0.268411 53.7009L17.0584 120.031C18.2384 124.731 21.1284 126.821 25.8484 125.631Z" fill="#C4DDEC"/>
<path d="M38.1262 58.1837L3.60588 66.9224L10.347 93.5518L44.8674 84.8131L38.1262 58.1837Z" fill="#92ACCD"/>
<path fill-rule="evenodd" clip-rule="evenodd" d="M4.94841 24.0709L16.5584 21.1309L33.1084 41.6108L0.148407 49.9608L4.94841 24.0709Z" fill="#C4DDEC"/>
<path d="M15.9426 17.0755L3.56336 20.2092L4.98914 25.8414L17.3684 22.7077L15.9426 17.0755Z" fill="#C4DDEC"/>
<path fill-rule="evenodd" clip-rule="evenodd" d="M2.74841 21.0908L17.0784 17.4608L15.0284 9.3408C12.7884 8.7408 9.97841 9.01079 7.68841 9.55079C5.17841 10.1408 2.36841 11.3408 0.69841 12.9708L2.74841 21.0908Z" fill="#92ACCD"/>
<path d="M17.3109 19.8363L3.6617 23.2915L4.13777 25.1721L17.7869 21.7169L17.3109 19.8363Z" fill="#A9BECB"/>
<path d="M14.9243 64.0663L8.44869 65.7056L15.1898 92.335L21.6654 90.6957L14.9243 64.0663Z" fill="#A8BCD7"/>
<path d="M21.667 90.6849L15.1914 92.3242L22.2761 120.311L28.7517 118.672L21.667 90.6849Z" fill="#D4E6F1"/>
<path d="M11.3416 49.8991L4.86596 51.5383L8.45125 65.7012L14.9268 64.062L11.3416 49.8991Z" fill="#D4E6F1"/>
<path fill-rule="evenodd" clip-rule="evenodd" d="M9.17841 26.9907L7.54841 27.4107L4.87841 51.5407L11.3484 49.9007L9.17841 26.9907Z" fill="#D4E6F1"/>
<path fill-rule="evenodd" clip-rule="evenodd" d="M102.377 41.4987L103.526 41.6943L105.12 32.5189L129.208 36.7042L127.614 45.8796L128.764 46.0752C134.442 47.0589 138.283 52.512 137.289 58.1891L127.022 117.264C126.038 122.942 120.585 126.783 114.908 125.789L88.5313 121.203C82.8535 120.22 79.0121 114.767 80.0057 109.09L90.2736 50.0149C91.2566 44.3471 96.699 40.515 102.377 41.4987Z" fill="#D4D6D8"/>
<path fill-rule="evenodd" clip-rule="evenodd" d="M103.263 25.9934C111.966 24.8605 121.82 26.3485 133.157 31.1908L131.69 39.6529L101.796 34.4556L103.263 25.9934Z" fill="#C15342"/>
<path fill-rule="evenodd" clip-rule="evenodd" d="M103.054 114.299L95.8109 113.042C92.5908 112.48 90.409 109.381 90.9609 106.16L99.6064 56.3893C100.349 52.0887 103.607 50.5585 107.709 51.2685L113.803 52.3296L103.054 114.299Z" fill="#EAE8E7"/>
<path fill-rule="evenodd" clip-rule="evenodd" d="M124.643 115.945C123.787 120.89 119.119 124.232 114.273 123.393L90.0072 119.176C85.1617 118.337 81.8944 113.603 82.7592 108.669C85.4491 93.1717 89.9874 67.0628 92.6773 51.5656C93.532 46.6309 98.2014 43.2793 103.047 44.1182L127.313 48.3352C132.158 49.1741 135.426 53.908 134.561 58.842C131.871 74.3392 127.333 100.448 124.643 115.945Z" fill="#DF7037"/>
<path fill-rule="evenodd" clip-rule="evenodd" d="M102.585 114.118L95.3418 112.861C92.1117 112.299 89.9398 109.2 90.4917 105.979C93.214 90.2937 96.3211 72.4086 99.0534 56.7238C99.6159 53.4937 102.715 51.3218 105.935 51.8738L113.179 53.1305C109.78 72.72 105.995 94.5191 102.585 114.118Z" fill="#E37F49"/>
<path d="M94.3742 66.766L90.4494 89.3469L123.848 95.1519L127.773 72.571L94.3742 66.766Z" fill="#C15342"/>
<path d="M97.2261 67.2767L93.3013 89.8577L106.405 92.1351L110.329 69.5542L97.2261 67.2767Z" fill="#C76255"/>
</svg>
