<svg width="52" height="48" viewBox="0 0 52 48" fill="none" xmlns="http://www.w3.org/2000/svg">
<path fill-rule="evenodd" clip-rule="evenodd" d="M48.3862 19.136L32.8942 42.6176C31.432 44.833 28.4326 45.4337 26.2299 43.9531C24.0273 42.4726 23.422 39.4478 24.8841 37.2324L40.3761 13.7508C41.8383 11.5354 44.8377 10.9347 47.0404 12.4152C49.243 13.8958 49.8483 16.9206 48.3862 19.136Z" fill="#EB6465"/>
<path fill-rule="evenodd" clip-rule="evenodd" d="M47.1774 12.6772C47.8649 12.4406 48.4374 12.0525 48.9642 11.6055C48.1924 11.3926 47.5653 10.944 47.0434 10.3144C46.6628 11.0258 46.53 11.6873 46.6253 12.3071C46.811 12.4315 46.9942 12.5543 47.1774 12.6772ZM26.5932 43.8672L26.2998 45.9434L24.379 44.6523L26.0412 43.4971L26.5932 43.8672Z" fill="#EB6465"/>
<path fill-rule="evenodd" clip-rule="evenodd" d="M47.3273 18.8607L32.0482 42.0178C31.1667 43.3564 29.5694 43.9425 28.0913 43.6208C28.6728 43.2671 29.1986 42.7734 29.6094 42.1496L46.5077 16.5446C46.9185 15.9208 47.17 15.2396 47.2686 14.5659C48.1346 15.8119 48.2113 17.5238 47.3273 18.8607Z" fill="#F08C8E"/>
<path d="M45.1994 23.9485L37.1879 18.5755L28.075 32.4191L36.0864 37.7921L45.1994 23.9485Z" fill="#BC5D44"/>
<path d="M42.7221 22.2812L33.5825 36.1231L35.2101 37.2171L44.3496 23.3753L42.7221 22.2812Z" fill="#CB6A51"/>
<path fill-rule="evenodd" clip-rule="evenodd" d="M25.1433 20.1743C23.5307 18.7354 14.8519 18.5436 12.4103 19.0628C9.23688 19.7364 7.82693 19.7573 4.20075 23.0856C3.41722 23.805 2.48483 25.5422 2.45588 26.9102C2.41454 28.8913 3.15672 30.7578 4.58735 31.8964C6.07586 33.0809 8.37892 34.987 10.2313 35.208C16.4148 35.9442 20.9465 36.8242 26.2473 32.082C29.1974 29.444 30.1959 30.0216 29.9251 24.1679C29.8404 22.2514 25.8793 20.8292 25.1433 20.1743Z" fill="#B17C40"/>
<path fill-rule="evenodd" clip-rule="evenodd" d="M25.1433 20.1743C23.5307 18.7354 14.8519 18.5435 12.4103 19.0628C10.2582 19.5195 8.9185 19.678 7.1509 20.7645C8.17632 21.2024 9.66483 19.6467 11.9513 20.0763C13.1194 20.2953 14.364 20.216 15.47 20.6519C16.5554 21.0794 16.3342 22.6789 18.0915 22.5204C21.6267 22.2034 23.2227 23.3879 23.109 23.4526C20.7584 24.8143 19.0962 27.542 19.5324 27.6901C20.4503 27.9987 21.2029 27.3564 21.5295 27.1395C22.0753 26.7809 22.5177 25.6714 22.863 25.7277C23.7892 25.8779 25.0254 25.0604 25.0606 25.3711C25.257 27.1124 24.2998 28.1989 23.5576 28.6306C22.8919 29.0185 20.8225 30.301 21.5419 30.5429C23.1379 31.0768 24.6016 30.5763 26.3093 30.2635C26.977 30.1404 27.6076 30.5179 28.3084 30.3823C29.6605 29.2479 30.1153 28.3512 29.921 24.1678C29.8404 22.2514 25.8793 20.8291 25.1433 20.1743Z" fill="#C38D43"/>
<path fill-rule="evenodd" clip-rule="evenodd" d="M3.36139 24.1741C2.87142 24.9937 2.47655 26.0301 2.46001 26.9144C2.41867 28.8955 3.16085 30.7619 4.59147 31.9006C6.07998 33.0851 8.38304 34.9911 10.2354 35.2122C16.4189 35.9483 20.9506 36.8284 26.2514 32.0862C29.2015 29.4481 30.2001 30.0258 29.9292 24.1721C29.9272 24.1241 29.921 24.0761 29.9148 24.0282C29.7411 24.024 29.5757 24.0574 29.4455 24.1345C28.4986 24.7017 28.0562 25.0855 27.5042 26.0468C26.9832 26.9519 27.2954 28.1927 26.5822 28.9539C25.7428 29.8506 24.6388 30.4053 23.4191 30.4595C20.7563 30.5805 17.7627 30.3594 15.1041 30.1634C13.8058 30.0675 12.3896 30.0779 11.0934 30.2051C10.1941 30.2948 9.09836 30.2155 8.16184 29.5503C6.68366 28.5013 5.68926 28.7829 4.39921 27.9696C3.79761 27.5879 3.59913 26.7538 3.57846 26.0364C3.57019 25.7528 3.77693 24.4557 3.36139 24.1741Z" fill="#9A6C3B"/>
<path fill-rule="evenodd" clip-rule="evenodd" d="M25.8235 21.2442C26.1356 21.4006 24.9655 21.6926 24.5479 21.7009C23.6775 21.7155 22.7906 21.7676 22.0257 21.922C21.5522 22.0158 21.1243 22.1513 20.7728 22.339C19.2781 23.1419 17.9591 24.1596 17.219 25.219C15.9166 27.0833 15.0421 28.0989 14.1717 28.3888C14.0125 28.4409 13.0905 28.6745 12.4248 28.5577C11.5834 28.4096 12.4579 27.6985 12.8817 27.2251C14.2358 25.7216 14.8663 23.9886 16.3941 22.7936C17.0433 22.2848 17.893 21.9282 18.6 21.6071C19.5448 21.1754 20.4049 20.6499 21.6329 20.7458C22.28 20.7979 23.2062 20.9522 23.847 21.0565C24.2502 21.1212 24.6058 21.0211 25.1288 21.0815C25.3438 21.1024 25.6229 21.142 25.8235 21.2442Z" fill="#C38D43"/>
<path fill-rule="evenodd" clip-rule="evenodd" d="M24.6326 21.1691C24.9448 21.3255 23.7747 21.6175 23.3571 21.6258C22.4867 21.6404 21.5998 21.6926 20.8349 21.8469C20.3614 21.9407 19.9335 22.0763 19.582 22.264C18.0873 23.0669 16.7683 24.0845 16.0282 25.1439C15.4059 26.0344 15.4183 26.0511 15.1186 26.6829C14.5645 27.8466 13.3654 28.3846 12.7907 28.4472C12.2263 28.5077 11.6061 28.491 11.2133 28.4201C10.3719 28.272 11.2691 27.6214 11.6909 27.1501C13.045 25.6465 13.6755 23.9135 15.2033 22.7186C15.8525 22.2098 16.7022 21.8532 17.4092 21.532C18.354 21.1003 19.214 20.5748 20.4421 20.6707C21.0892 20.7229 22.0153 20.8772 22.6562 20.9815C23.0594 21.0461 23.415 20.946 23.938 21.0065C24.1551 21.0294 24.4342 21.069 24.6326 21.1691Z" fill="#9A6C3B"/>
<path fill-rule="evenodd" clip-rule="evenodd" d="M21.2897 19.628C19.5841 19.4966 17.7813 19.4715 16.3238 19.532C15.4452 19.6592 14.765 19.9199 13.9133 20.1618C13.107 20.3912 12.1746 20.7395 11.4903 21.2254C10.4421 21.9657 9.74131 22.6518 8.88335 23.609C8.71589 23.7946 7.40931 25.4379 7.39277 25.5797C7.36796 25.7841 7.78764 25.9905 7.98818 26.0176C8.43266 26.0781 8.9309 26.0677 9.34024 25.88C9.86949 25.6381 10.3533 25.2836 10.775 24.879C11.3415 24.3368 11.7281 23.6257 12.2821 23.0709C12.7762 22.5767 13.2786 22.0491 13.905 21.7467C14.5583 21.4339 14.9242 21.2483 15.6168 21.0377C16.2825 20.8333 16.8862 20.4454 17.5622 20.2682C18.6 19.9971 20.1175 20.2723 21.1367 19.9324C21.2297 19.9011 21.2876 19.7552 21.2897 19.628Z" fill="#C38D43"/>
<path fill-rule="evenodd" clip-rule="evenodd" d="M19.458 19.286C18.6248 19.163 17.9674 19.3131 17.1694 19.3131C16.6526 19.3131 16.1461 19.2276 15.7801 19.2631C14.9036 19.3465 14.2813 19.5363 13.1008 19.872C12.2945 20.1014 11.3621 20.4497 10.6778 20.9356C9.62968 21.6759 8.92884 22.362 8.07088 23.3192C7.90342 23.5048 6.59683 25.1481 6.5803 25.2899C6.55549 25.4942 6.97517 25.7007 7.17571 25.7278C7.62019 25.7883 8.11843 25.7779 8.52777 25.5902C9.05702 25.3483 9.54078 24.9937 9.96253 24.5892C10.529 24.047 10.9156 23.3359 11.4696 22.7811C11.9637 22.2869 12.4661 21.7593 13.0925 21.4569C13.7458 21.1441 14.1118 20.9585 14.8043 20.7479C15.47 20.5435 16.0737 20.1556 16.7497 19.9784C17.4154 19.8032 18.2796 19.8074 19.0817 19.7782C19.5283 19.7615 19.9604 19.7636 20.3263 19.6447C20.7915 19.4883 19.8549 19.3444 19.458 19.286Z" fill="#9A6C3B"/>
<path fill-rule="evenodd" clip-rule="evenodd" d="M27.0866 22.7894C26.3155 22.7832 25.7408 23.0042 25.0192 23.1064C24.552 23.1731 24.0827 23.1585 23.7561 23.2378C22.9746 23.4255 22.433 23.6757 21.4096 24.1324C20.4441 24.5599 20.3759 24.708 19.7908 25.5776C19.6627 25.7695 18.6869 27.4211 18.6889 27.5525C18.691 27.7381 19.1851 27.7277 19.3732 27.7256C19.7826 27.7214 20.1464 27.7965 20.4917 27.5775C20.9403 27.2918 21.4241 26.9665 21.6639 26.4868C21.9616 25.8904 21.7549 25.319 23.0594 24.708C23.6362 24.439 24.1365 24.0094 24.7236 23.7633C25.3045 23.5193 26.086 23.415 26.8075 23.2837C27.2107 23.2107 27.5993 23.1565 27.9156 23.0042C28.3209 22.804 27.4505 22.7936 27.0866 22.7894Z" fill="#9A6C3B"/>
<path fill-rule="evenodd" clip-rule="evenodd" d="M4.41781 29.2647C4.83749 29.4085 5.70579 30.1718 6.11514 30.3386C7.03925 30.7203 7.72562 30.6202 8.58772 31.1227C9.30716 31.5398 9.80127 32.3218 10.5683 32.6409C11.1244 32.8724 11.8108 32.9141 12.371 32.6951C13.3882 32.2947 12.8486 31.6295 14.1117 31.5815C15.4369 31.5336 17.6077 31.7796 17.8516 32.105C18.2031 32.5721 18.2754 33.3792 20.4875 33.1956C21.0333 33.1498 21.0767 32.6722 21.575 32.4532C22.311 32.1279 23.4563 32.0111 23.9214 31.8589C24.4155 31.6941 24.3494 32.0111 24.3494 32.0111C23.1317 32.5429 21.9843 33.2999 20.6922 33.6065C19.6916 33.8442 18.631 33.7337 17.6097 33.6169C16.9461 33.5397 16.3569 32.8286 15.6892 32.8307C14.273 32.8369 14.1903 33.5293 13.8885 33.6294C13.5887 33.7274 11.1554 33.6169 10.806 33.5814C10.622 33.5627 10.1114 32.8349 9.58419 32.5158C9.10249 32.2259 8.33757 31.813 8.33136 31.8318C8.07294 32.6388 7.12608 31.5794 6.40457 31.1686C6.12134 31.008 5.84017 30.8412 5.56728 30.666C5.16 30.4054 4.83336 30.0342 4.46744 29.7193C4.20695 29.4982 3.61774 28.9915 4.41781 29.2647Z" fill="#785A40"/>
<path fill-rule="evenodd" clip-rule="evenodd" d="M20.8344 0C26.6877 0.604587 28.1729 0.796283 34.0642 1.39792L39.3444 13.8966C37.3534 17.1998 31.7018 18.1052 31.7018 18.1052C21.5916 19.857 16.3728 14.2388 16.3728 14.2388C18.4837 7.91862 19.4895 4.19967 20.8344 0Z" fill="#FFDD5A"/>
<path fill-rule="evenodd" clip-rule="evenodd" d="M30.7312 17.1467L33.2339 1.31242L34.0642 1.395L31.8568 18.0698C20.925 20.4675 16.3728 14.2329 16.3728 14.2329L16.6973 13.2567C18.3522 15.0734 20.3841 16.2619 22.4073 16.8724C25.9392 17.943 29.3073 17.4446 30.7312 17.1467Z" fill="#ED7423"/>
<path fill-rule="evenodd" clip-rule="evenodd" d="M39.3444 13.8967C37.3534 17.1998 31.7018 18.1052 31.7018 18.1052L34.0642 1.39795L39.3444 13.8967Z" fill="#F39722"/>
<path fill-rule="evenodd" clip-rule="evenodd" d="M23.5066 12.7612C22.9307 13.9674 21.767 14.6664 20.9133 14.3213C20.0567 13.9763 19.8315 12.7199 20.4075 11.5108C20.9835 10.3045 22.1471 9.60555 23.0008 9.95061C23.8575 10.2957 24.0826 11.555 23.5066 12.7612Z" fill="#FCF087"/>
<path fill-rule="evenodd" clip-rule="evenodd" d="M28.784 13.4572C28.4594 14.1385 27.8016 14.5337 27.3192 14.339C26.8368 14.1444 26.7081 13.4336 27.0356 12.7524C27.3601 12.0711 28.015 11.6759 28.5004 11.8705C28.9828 12.0652 29.1114 12.776 28.784 13.4572Z" fill="#FCF087"/>
<path fill-rule="evenodd" clip-rule="evenodd" d="M26.7871 9.19861C26.562 9.67048 26.1059 9.94476 25.7725 9.8091C25.4363 9.67343 25.3486 9.18092 25.5767 8.70905C25.8018 8.23717 26.2579 7.9629 26.5912 8.09856C26.9245 8.23127 27.0151 8.72379 26.7871 9.19861Z" fill="#FCF087"/>
<path fill-rule="evenodd" clip-rule="evenodd" d="M21.5127 10.1601C21.1998 10.8148 20.5683 11.1952 20.1035 11.0065C19.6386 10.8207 19.5158 10.1365 19.8286 9.48176C20.1415 8.82704 20.773 8.44659 21.2379 8.63534C21.7027 8.82114 21.8255 9.5024 21.5127 10.1601Z" fill="#FCF087"/>
<path fill-rule="evenodd" clip-rule="evenodd" d="M30.24 5.37643C30.2897 5.3027 30.3365 5.22307 30.3774 5.14049C30.6522 4.55655 30.6084 3.90477 30.1552 3.6069C30.1201 3.58626 30.0792 3.56267 30.0324 3.54497C29.5441 3.35917 28.9915 3.67179 28.667 4.1584C28.6173 4.23213 28.5705 4.31176 28.5325 4.39729C28.4828 4.49756 28.4477 4.60078 28.4214 4.70106C28.1378 4.73055 27.8688 4.9311 27.6934 5.19063C27.6583 5.24371 27.6232 5.3027 27.594 5.36463C27.3952 5.78636 27.4186 6.27004 27.7694 6.50598C27.7987 6.52367 27.8279 6.53842 27.8571 6.55021C28.2489 6.69768 28.6612 6.45289 28.8951 6.10193C28.9126 6.07539 28.9331 6.0459 28.9477 6.01641C29.4213 6.14323 29.933 5.8365 30.24 5.37643Z" fill="#FCF087"/>
<path fill-rule="evenodd" clip-rule="evenodd" d="M24.5416 5.42066C24.1265 6.28772 23.2932 6.78909 22.6792 6.54136C22.0653 6.29363 21.9015 5.39117 22.3167 4.52411C22.7319 3.65704 23.5651 3.15567 24.1791 3.4034C24.7931 3.65114 24.9568 4.55359 24.5416 5.42066Z" fill="#FCF087"/>
</svg>
