<svg width="54" height="51" viewBox="0 0 54 51" fill="none" xmlns="http://www.w3.org/2000/svg">
<g filter="url(#filter0_d)">
<path fill-rule="evenodd" clip-rule="evenodd" d="M32.8225 6.9277L32.8287 7.25616L28.2091 40.4285L17.6641 7.97767L17.6519 7.66155L29.0064 3.95747L32.8225 6.9277Z" fill="#D16435"/>
<path fill-rule="evenodd" clip-rule="evenodd" d="M28.1747 40.4206L17.9885 39.8465L17.6546 7.83109L27.4641 9.0295L28.1747 40.4206Z" fill="#F7A92D"/>
<path fill-rule="evenodd" clip-rule="evenodd" d="M33.6692 38.2775L28.1525 40.4093L28.6965 8.97968L32.8 6.94998L33.6692 38.2775Z" fill="#F39722"/>
<path fill-rule="evenodd" clip-rule="evenodd" d="M32.8303 6.91492L29.4018 4.09478L21.3506 4.54392L17.6883 7.65924L27.9047 8.22928L29.4285 5.18482L32.5285 6.98605L32.8303 6.91492Z" fill="#ED7423"/>
<path fill-rule="evenodd" clip-rule="evenodd" d="M28.6964 5.72791L20.6546 5.14582L20.808 2.342L29.1555 2.11901L28.6964 5.72791Z" fill="#F7A92D"/>
<path fill-rule="evenodd" clip-rule="evenodd" d="M28.6987 5.6349L29.1506 2.10663L29.6984 2.40153L30.4023 5.25141L28.6987 5.6349Z" fill="#ED7423"/>
<path fill-rule="evenodd" clip-rule="evenodd" d="M25.5241 14.8273L19.07 14.0054L19.5436 28.6463L25.8357 29.6787L25.5241 14.8273Z" fill="#ED7423"/>
<path fill-rule="evenodd" clip-rule="evenodd" d="M12.532 41.9244L19.3514 40.1791C20.9061 39.782 21.4177 38.7108 21.0249 37.139L15.4829 15.0039C15.0901 13.4321 13.4958 12.471 11.9412 12.8681L6.2011 14.3365C4.64643 14.7336 3.6958 16.3487 4.0886 17.9205L9.63061 40.0556C10.0201 41.6241 10.974 42.3215 12.532 41.9244Z" fill="#C4DDEC"/>
<path d="M16.5846 19.4166L5.19019 22.3328L7.41529 31.2193L18.8097 28.3031L16.5846 19.4166Z" fill="#92ACCD"/>
<path fill-rule="evenodd" clip-rule="evenodd" d="M5.63345 8.03263L9.46565 7.05151L14.9284 13.8859L4.04907 16.6724L5.63345 8.03263Z" fill="#C4DDEC"/>
<path d="M9.26238 5.69837L5.17627 6.74414L5.64689 8.62367L9.733 7.5779L9.26238 5.69837Z" fill="#C4DDEC"/>
<path fill-rule="evenodd" clip-rule="evenodd" d="M4.90713 7.03826L9.63715 5.82688L8.96049 3.11715C8.22111 2.91692 7.29359 3.00702 6.53771 3.18722C5.70922 3.38411 4.7817 3.78457 4.23047 4.32852L4.90713 7.03826Z" fill="#92ACCD"/>
<path d="M9.71403 6.61959L5.20874 7.77264L5.36588 8.40023L9.87117 7.24718L9.71403 6.61959Z" fill="#A9BECB"/>
<path d="M8.92627 21.3797L6.78882 21.9268L9.01392 30.8133L11.1514 30.2663L8.92627 21.3797Z" fill="#A8BCD7"/>
<path d="M11.1519 30.2625L9.0144 30.8096L11.3529 40.149L13.4904 39.602L11.1519 30.2625Z" fill="#D4E6F1"/>
<path d="M7.74365 16.6519L5.6062 17.199L6.78963 21.9253L8.92708 21.3783L7.74365 16.6519Z" fill="#D4E6F1"/>
<path fill-rule="evenodd" clip-rule="evenodd" d="M7.02969 9.00714L6.49166 9.1473L5.61035 17.1998L7.74596 16.6525L7.02969 9.00714Z" fill="#D4E6F1"/>
<path fill-rule="evenodd" clip-rule="evenodd" d="M37.7812 13.8515L38.1611 13.917L38.6856 10.8566L46.6458 12.2585L46.1212 15.3189L46.5012 15.3845C48.3775 15.714 49.648 17.534 49.321 19.4276L45.9421 39.1321C45.6184 41.0259 43.8174 42.3061 41.9414 41.9733L33.2249 40.4372C31.3486 40.1077 30.078 38.2877 30.405 36.394L33.784 16.6896C34.1075 14.7991 35.9049 13.522 37.7812 13.8515Z" fill="#D4D6D8"/>
<path fill-rule="evenodd" clip-rule="evenodd" d="M38.0824 8.67405C40.9554 8.2986 44.209 8.79677 47.9532 10.413L47.4709 13.2324L37.6001 11.4935L38.0824 8.67405Z" fill="#C15342"/>
<path fill-rule="evenodd" clip-rule="evenodd" d="M38.0238 38.1413L35.6282 37.7202C34.5632 37.532 33.8409 36.4973 34.0227 35.4228L36.8701 18.8185C37.1148 17.3838 38.1916 16.874 39.5483 17.1119L41.5637 17.4674L38.0238 38.1413Z" fill="#EAE8E7"/>
<path fill-rule="evenodd" clip-rule="evenodd" d="M45.1545 38.692C44.8731 40.3412 43.3313 41.4548 41.7301 41.1738L33.7115 39.7614C32.1103 39.4804 31.0297 37.9004 31.3143 36.2547C32.1994 31.0857 33.6928 22.3772 34.5779 17.2082C34.8592 15.5623 36.4012 14.4454 38.0024 14.7263L46.021 16.1388C47.6221 16.4198 48.7027 17.9998 48.4182 19.6455C47.533 24.8145 46.0397 33.523 45.1545 38.692Z" fill="#DF7037"/>
<path fill-rule="evenodd" clip-rule="evenodd" d="M37.8688 38.0809L35.4732 37.6599C34.4049 37.4714 33.686 36.437 33.8678 35.3625C34.7643 30.1296 35.7876 24.1629 36.6875 18.9302C36.8728 17.8526 37.897 17.1287 38.9622 17.3136L41.3578 17.7346C40.2383 24.27 38.9918 31.5424 37.8688 38.0809Z" fill="#E37F49"/>
<path d="M35.1459 22.2805L33.8552 29.8095L44.8842 31.7532L46.1748 24.2242L35.1459 22.2805Z" fill="#C15342"/>
<path d="M36.0879 22.4509L34.7966 29.9835L39.1259 30.7464L40.4172 23.2138L36.0879 22.4509Z" fill="#C76255"/>
</g>
<defs>
<filter id="filter0_d" x="0" y="0" width="54" height="51" filterUnits="userSpaceOnUse" color-interpolation-filters="sRGB">
<feFlood flood-opacity="0" result="BackgroundImageFix"/>
<feColorMatrix in="SourceAlpha" type="matrix" values="0 0 0 0 0 0 0 0 0 0 0 0 0 0 0 0 0 0 127 0"/>
<feOffset dy="4"/>
<feGaussianBlur stdDeviation="2"/>
<feColorMatrix type="matrix" values="0 0 0 0 0 0 0 0 0 0 0 0 0 0 0 0 0 0 0.25 0"/>
<feBlend mode="normal" in2="BackgroundImageFix" result="effect1_dropShadow"/>
<feBlend mode="normal" in="SourceGraphic" in2="effect1_dropShadow" result="shape"/>
</filter>
</defs>
</svg>
