<svg width="39" height="37" viewBox="0 0 39 37" fill="none" xmlns="http://www.w3.org/2000/svg">
<path fill-rule="evenodd" clip-rule="evenodd" d="M7.69401 17.3377C9.04443 17.9116 9.91256 18.0596 10.5694 16.3058C11.0333 15.0656 7.8318 15.0101 6.38951 13.7792C5.79698 13.2702 5.74186 11.7847 5.9853 11.1647C6.83047 9.03137 8.05228 10.253 9.87122 10.5816C11.7085 10.9009 5.34684 7.40248 8.08903 5.00081C10.8266 2.60376 12.9855 3.02024 13.7112 6.72687C14.4415 10.4335 16.1824 8.18916 16.9403 6.17157C17.7165 4.14935 19.9948 5.31549 19.5033 7.80046C18.9935 10.2901 22.4706 9.66996 22.4384 7.21276C22.4109 4.75555 19.0945 2.2567 21.7724 0.720364C24.4549 -0.820596 29.8015 -0.038547 28.5567 4.52418C27.3165 9.0869 28.203 9.67923 30.3481 8.17529C32.5115 6.66209 33.1913 4.97305 34.4958 5.83377C35.8003 6.69448 32.4656 8.0596 34.0594 9.89672C34.9459 10.9194 35.5569 10.5631 36.3836 10.1142C39.9572 8.17991 39.0615 10.7019 38.3496 13.1684C37.904 14.7093 37.261 16.366 36.4571 17.6802C34.8862 20.2299 29.5121 23.2332 29.5121 23.2332C24.4044 25.6025 19.292 27.9718 14.1843 30.341C8.28654 28.4484 3.88158 25.8292 1.24963 22.3586C-0.867871 18.3095 -0.270747 14.8667 2.86187 15.0194C4.12043 15.0795 5.22282 16.2873 7.69401 17.3377Z" fill="#92BE3B"/>
<path fill-rule="evenodd" clip-rule="evenodd" d="M14.1108 27.7959C11.2033 26.2226 7.79963 24.6446 5.62242 23.3165C2.61841 21.484 1.9432 16.7177 4.80022 16.9768C7.72154 17.2452 10.1284 20.267 12.4434 20.0633C14.7539 19.8597 14.7768 18.6381 12.4343 16.875C10.0687 15.1165 9.88957 13.4599 11.6258 12.3678C13.3667 11.2803 14.0327 15.1767 15.8425 15.3063C17.6476 15.4358 11.5248 8.83701 13.7939 6.75463C16.0859 4.66299 19.3425 9.01748 19.5263 12.4141C19.7146 15.8107 21.3957 14.5936 21.7724 13.5524C22.1307 12.5205 19.834 8.65653 22.5349 7.89299C25.2128 7.12945 25.5343 8.89717 24.9601 12.1827C24.386 15.4636 24.0369 17.4072 25.3919 17.2221C26.0258 17.1388 26.1819 15.5099 26.4529 13.8347C26.7331 12.0022 27.1879 10.1003 28.6302 10.0772C31.3586 10.0494 33.8803 15.0703 31.5515 18.3465C29.264 21.6089 32.856 30.4382 32.856 30.4382L21.3866 37L14.1108 27.7959Z" fill="#4FA844"/>
</svg>
