<svg width="112" height="112" viewBox="0 0 112 112" fill="none" xmlns="http://www.w3.org/2000/svg">
<path fill-rule="evenodd" clip-rule="evenodd" d="M85.9978 33.4062C80.4824 28.5271 50.798 27.8766 42.4471 29.6373C31.593 31.9213 26.7705 31.992 14.3679 43.2774C11.6879 45.7169 8.49889 51.6071 8.39989 56.2457C8.25847 62.9632 10.797 69.2919 15.6902 73.1527C20.7813 77.169 28.6585 83.632 34.9942 84.3815C56.1438 86.8776 71.6435 89.8616 89.7737 73.782C99.8641 64.8371 103.279 66.7958 102.353 46.9473C102.063 40.449 88.5151 35.6265 85.9978 33.4062Z" fill="#B17C40"/>
<path fill-rule="evenodd" clip-rule="evenodd" d="M85.9978 33.4062C80.4823 28.5271 50.798 27.8766 42.4471 29.6373C35.0861 31.1858 30.504 31.7232 24.4583 35.4073C27.9655 36.8922 33.0567 31.6172 40.8773 33.0738C44.8724 33.8163 49.1292 33.5476 52.9122 35.0254C56.6245 36.475 55.8679 41.8985 61.8784 41.3611C73.9699 40.2863 79.4287 44.3027 79.0398 44.5219C71 49.1393 65.3149 58.3882 66.8069 58.8903C69.9464 59.9368 72.5203 57.7589 73.6375 57.0235C75.5043 55.8073 77.0175 52.0455 78.1984 52.2364C81.3662 52.7455 85.5947 49.9737 85.7149 51.0273C86.3867 56.9316 83.1128 60.6156 80.5743 62.0793C78.2974 63.3945 71.2192 67.7433 73.6799 68.5635C79.1388 70.3737 84.1451 68.6766 89.9858 67.616C92.2698 67.1988 94.4265 68.4787 96.8236 68.019C101.448 64.1724 103.004 61.1318 102.339 46.9472C102.063 40.4489 88.5151 35.6265 85.9978 33.4062Z" fill="#C38D43"/>
<path fill-rule="evenodd" clip-rule="evenodd" d="M11.497 46.9684C9.82117 49.7473 8.4706 53.2617 8.41403 56.2598C8.27261 62.9773 10.8111 69.3059 15.7043 73.1667C20.7955 77.1831 28.6726 83.646 35.0083 84.3956C56.1579 86.8917 71.6577 89.8757 89.7879 73.7961C99.8783 64.8512 103.294 66.8098 102.367 46.9614C102.36 46.7987 102.339 46.6361 102.318 46.4735C101.724 46.4593 101.158 46.5724 100.713 46.8341C97.4741 48.7574 95.9609 50.0585 94.0729 53.3182C92.291 56.3871 93.3587 60.5944 90.9192 63.1753C88.0484 66.2159 84.2725 68.0968 80.1005 68.2806C70.993 68.6907 60.7541 67.9412 51.6607 67.2765C47.22 66.9513 42.3764 66.9866 37.9428 67.418C34.8669 67.722 31.1192 67.4533 27.916 65.1976C22.8602 61.6409 19.459 62.5955 15.0467 59.8378C12.989 58.5438 12.3102 55.7153 12.2395 53.2829C12.2112 52.3212 12.9183 47.923 11.497 46.9684Z" fill="#9A6C3B"/>
<path fill-rule="evenodd" clip-rule="evenodd" d="M88.3242 37.0337C89.3919 37.564 85.3897 38.5539 83.9613 38.5822C80.9844 38.6317 77.9509 38.8085 75.3346 39.3317C73.7153 39.6499 72.2516 40.1095 71.0495 40.7459C65.9371 43.4683 61.4258 46.919 58.8944 50.5111C54.4396 56.8326 51.4485 60.2762 48.4716 61.2591C47.9271 61.4359 44.7735 62.2278 42.4966 61.8318C39.6186 61.3298 42.6097 58.9186 44.0593 57.3134C48.6908 52.2152 50.8475 46.3392 56.073 42.2874C58.2933 40.5621 61.1995 39.353 63.6178 38.264C66.8493 36.8003 69.7909 35.0184 73.9911 35.3436C76.2044 35.5204 79.3722 36.0437 81.5642 36.3972C82.9431 36.6164 84.1593 36.277 85.9483 36.4821C86.6837 36.5528 87.6383 36.6872 88.3242 37.0337Z" fill="#C38D43"/>
<path fill-rule="evenodd" clip-rule="evenodd" d="M84.2512 36.779C85.319 37.3093 81.3167 38.2993 79.8884 38.3276C76.9115 38.3771 73.878 38.5538 71.2617 39.0771C69.6424 39.3953 68.1787 39.8549 66.9766 40.4913C61.8642 43.2137 57.3529 46.6643 54.8214 50.2564C52.6931 53.2758 52.7355 53.3324 51.7102 55.4749C49.8151 59.4206 45.7139 61.2449 43.7482 61.457C41.8178 61.6621 39.6964 61.6055 38.3529 61.3651C35.475 60.8631 38.5438 58.6569 39.9863 57.0588C44.6179 51.9606 46.7746 46.0845 52.0001 42.0328C54.2204 40.3075 57.1266 39.0983 59.5449 38.0094C62.7764 36.5457 65.718 34.7637 69.9182 35.089C72.1314 35.2658 75.2993 35.7891 77.4913 36.1426C78.8701 36.3618 80.0864 36.0224 81.8754 36.2275C82.6178 36.3053 83.5724 36.4396 84.2512 36.779Z" fill="#9A6C3B"/>
<path fill-rule="evenodd" clip-rule="evenodd" d="M72.8173 31.5535C66.9836 31.108 60.8177 31.0232 55.8326 31.2283C52.8274 31.6596 50.501 32.5435 47.5877 33.3637C44.83 34.1415 41.6409 35.3224 39.3004 36.97C35.7154 39.4802 33.3183 41.8066 30.3838 45.0522C29.8111 45.6815 25.3422 51.2535 25.2856 51.7343C25.2007 52.4273 26.6362 53.1274 27.3221 53.2193C28.8423 53.4243 30.5465 53.389 31.9465 52.7526C33.7567 51.9323 35.4113 50.7302 36.8538 49.3585C38.7913 47.52 40.1136 45.1087 42.0087 43.2278C43.6986 41.552 45.4169 39.763 47.5594 38.7377C49.7939 37.6771 51.0455 37.0477 53.4143 36.3335C55.6912 35.6406 57.7559 34.3254 60.0682 33.7243C63.6178 32.8051 68.808 33.7385 72.294 32.5859C72.6122 32.4798 72.8102 31.9849 72.8173 31.5535Z" fill="#C38D43"/>
<path fill-rule="evenodd" clip-rule="evenodd" d="M66.5523 30.3938C63.7027 29.9766 61.4541 30.4857 58.7246 30.4857C56.9569 30.4857 55.2245 30.1958 53.9729 30.316C50.9748 30.5988 48.8464 31.2423 44.8088 32.3807C42.0511 33.1585 38.862 34.3394 36.5215 35.987C32.9365 38.4972 30.5394 40.8236 27.6049 44.0692C27.0321 44.6985 22.5632 50.2705 22.5066 50.7514C22.4218 51.4443 23.8572 52.1444 24.5431 52.2363C26.0634 52.4414 27.7675 52.406 29.1676 51.7696C30.9778 50.9494 32.6324 49.7473 34.0749 48.3755C36.0124 46.537 37.3347 44.1258 39.2297 42.2449C40.9197 40.569 42.638 38.7801 44.7805 37.7547C47.015 36.6941 48.2665 36.0648 50.6353 35.3506C52.9122 34.6576 54.977 33.3424 57.2892 32.7414C59.5661 32.1474 62.5218 32.1615 65.2654 32.0625C66.7928 32.006 68.2706 32.0131 69.5222 31.61C71.1132 31.0797 67.91 30.5918 66.5523 30.3938Z" fill="#9A6C3B"/>
<path fill-rule="evenodd" clip-rule="evenodd" d="M92.6446 42.2733C90.0071 42.2521 88.0413 43.0016 85.5735 43.3481C83.9755 43.5744 82.3703 43.5249 81.2531 43.7936C78.5802 44.43 76.7276 45.2785 73.2274 46.8271C69.9253 48.2766 69.6919 48.7787 67.6908 51.7273C67.2524 52.3779 63.9148 57.9781 63.9219 58.4236C63.929 59.0529 65.6189 59.0176 66.2624 59.0105C67.6625 58.9964 68.907 59.2509 70.0879 58.5085C71.6223 57.5397 73.2769 56.4366 74.0972 54.8103C75.1154 52.788 74.4083 50.8505 78.8701 48.7787C80.843 47.8665 82.5542 46.4099 84.5623 45.5755C86.5493 44.7482 89.2222 44.3946 91.69 43.9491C93.0688 43.7017 94.3982 43.5178 95.4801 43.0016C96.866 42.3228 93.8891 42.2874 92.6446 42.2733Z" fill="#9A6C3B"/>
<path fill-rule="evenodd" clip-rule="evenodd" d="M15.1103 64.2289C16.5458 64.7168 19.5156 67.3048 20.9157 67.8705C24.0765 69.1645 26.424 68.8251 29.3727 70.5292C31.8334 71.9434 33.5234 74.5951 36.1468 75.6769C38.0489 76.4618 40.3965 76.6032 42.3127 75.8608C45.7917 74.5031 43.9462 72.2475 48.2666 72.0848C52.7991 71.9222 60.2237 72.7566 61.0581 73.8597C62.2602 75.4436 62.5077 78.1801 70.0737 77.5579C71.9405 77.4023 72.089 75.783 73.7931 75.0405C76.3104 73.9374 80.2278 73.5415 81.8188 73.0253C83.5088 72.4667 83.2825 73.5415 83.2825 73.5415C79.1177 75.3446 75.1932 77.9114 70.7738 78.9508C67.3514 79.7569 63.7239 79.3822 60.2308 78.9862C57.961 78.7246 55.9458 76.3133 53.6618 76.3204C48.8181 76.3416 48.5353 78.6892 47.5029 79.0286C46.4776 79.361 38.1549 78.9862 36.9599 78.866C36.3306 78.8023 34.5841 76.3346 32.7809 75.2527C31.1334 74.2698 28.5171 72.8697 28.4959 72.9333C27.612 75.6699 24.3734 72.0778 21.9056 70.6848C20.9369 70.1403 19.9752 69.5746 19.0418 68.9806C17.6488 68.0967 16.5316 66.8381 15.28 65.7704C14.3891 65.0208 12.3738 63.3026 15.1103 64.2289Z" fill="#785A40"/>
</svg>
