<svg width="21" height="35" viewBox="0 0 21 35" fill="none" xmlns="http://www.w3.org/2000/svg">
<path fill-rule="evenodd" clip-rule="evenodd" d="M7.78118 5.85149L8.1611 5.91703L8.68561 2.85657L16.6458 4.25846L16.1212 7.31893L16.5012 7.38447C18.3775 7.71396 19.648 9.53397 19.321 11.4276L15.9421 31.1321C15.6184 33.0259 13.8174 34.3061 11.9414 33.9733L3.22489 32.4372C1.34858 32.1077 0.0780138 30.2877 0.405012 28.394L3.78397 8.68957C4.10746 6.79906 5.90487 5.522 7.78118 5.85149Z" fill="#D4D6D8"/>
<path fill-rule="evenodd" clip-rule="evenodd" d="M8.0824 0.674052C10.9554 0.298602 14.209 0.79677 17.9532 2.41302L17.4709 5.23244L7.60006 3.49348L8.0824 0.674052Z" fill="#C15342"/>
<path fill-rule="evenodd" clip-rule="evenodd" d="M8.02377 30.1413L5.62816 29.7202C4.56315 29.532 3.84091 28.4973 4.02268 27.4228L6.87009 10.8185C7.1148 9.38379 8.19156 8.87402 9.54834 9.11188L11.5637 9.46735L8.02377 30.1413Z" fill="#EAE8E7"/>
<path fill-rule="evenodd" clip-rule="evenodd" d="M15.1545 30.692C14.8731 32.3412 13.3313 33.4548 11.7301 33.1738L3.71149 31.7614C2.11032 31.4804 1.02971 29.9004 1.31427 28.2547C2.19941 23.0857 3.6928 14.3772 4.57794 9.20822C4.8592 7.5623 6.4012 6.44536 8.00237 6.72635L16.021 8.13884C17.6221 8.41983 18.7027 9.99977 18.4182 11.6455C17.533 16.8145 16.0397 25.523 15.1545 30.692Z" fill="#DF7037"/>
<path fill-rule="evenodd" clip-rule="evenodd" d="M7.86881 30.0809L5.47324 29.6599C4.40494 29.4714 3.686 28.437 3.86777 27.3625C4.76434 22.1296 5.78764 16.1629 6.68751 10.9302C6.8728 9.85261 7.89702 9.12868 8.96223 9.31361L11.3578 9.73463C10.2383 16.27 8.99184 23.5424 7.86881 30.0809Z" fill="#E37F49"/>
<path d="M5.14586 14.2805L3.85522 21.8095L14.8842 23.7532L16.1748 16.2242L5.14586 14.2805Z" fill="#C15342"/>
<path d="M6.08794 14.4509L4.79663 21.9835L9.12589 22.7464L10.4172 15.2138L6.08794 14.4509Z" fill="#C76255"/>
</svg>
