<svg width="61" height="104" viewBox="0 0 61 104" fill="none" xmlns="http://www.w3.org/2000/svg">
<path fill-rule="evenodd" clip-rule="evenodd" d="M23.3768 17.4987L24.5265 17.6943L26.1203 8.51893L50.2081 12.7042L48.6142 21.8796L49.7639 22.0752C55.4417 23.0589 59.2831 28.512 58.2894 34.1891L48.0216 93.2638C47.0379 98.9416 41.5849 102.783 35.9077 101.789L9.53129 97.2034C3.85349 96.2198 0.0120788 90.7667 1.00572 85.0896L11.2736 26.0149C12.2566 20.3471 17.699 16.515 23.3768 17.4987Z" fill="#D4D6D8"/>
<path fill-rule="evenodd" clip-rule="evenodd" d="M24.2634 1.9934C32.9662 0.860485 42.8199 2.34848 54.1573 7.19078L52.6904 15.6529L22.7965 10.4556L24.2634 1.9934Z" fill="#C15342"/>
<path fill-rule="evenodd" clip-rule="evenodd" d="M24.0542 90.299L16.8109 89.0423C13.5908 88.4804 11.409 85.381 11.9609 82.1602L20.6064 32.3893C21.3495 28.0887 24.6066 26.5585 28.7089 27.2685L34.8025 28.3296L24.0542 90.299Z" fill="#EAE8E7"/>
<path fill-rule="evenodd" clip-rule="evenodd" d="M45.6428 91.9454C44.7874 96.89 40.1187 100.232 35.2732 99.3928L11.0072 95.1758C6.16167 94.3369 2.89444 89.6029 3.75918 84.6689C6.44907 69.1717 10.9874 43.0628 13.6773 27.5656C14.532 22.6309 19.2014 19.2793 24.0469 20.1182L48.3129 24.3352C53.1584 25.1741 56.4256 29.908 55.5609 34.842C52.871 50.3392 48.3327 76.4482 45.6428 91.9454Z" fill="#DF7037"/>
<path fill-rule="evenodd" clip-rule="evenodd" d="M23.5851 90.1179L16.3418 88.8613C13.1117 88.2987 10.9398 85.1999 11.4917 81.9792C14.214 66.2937 17.3211 48.4086 20.0534 32.7238C20.6159 29.4937 23.7147 27.3218 26.9355 27.8738L34.1788 29.1305C30.7795 48.72 26.9949 70.5191 23.5851 90.1179Z" fill="#E37F49"/>
<path d="M15.3742 42.766L11.4494 65.3469L44.8479 71.1519L48.7727 48.571L15.3742 42.766Z" fill="#C15342"/>
<path d="M18.2261 43.2767L14.3013 65.8577L27.4046 68.1351L31.3294 45.5542L18.2261 43.2767Z" fill="#C76255"/>
</svg>
