<svg width="38" height="25" viewBox="0 0 38 25" fill="none" xmlns="http://www.w3.org/2000/svg">
<path fill-rule="evenodd" clip-rule="evenodd" d="M24.4953 12.0315C27.7767 7.02619 29.0469 5.97337 29.8055 4.79119L32.2356 0L32.831 0.968045L32.7869 3.21197C33.8983 1.83795 34.1674 1.26248 34.5025 0.147209L35.8257 1.40524C35.6404 2.47143 35.4817 3.1049 35.1685 3.77406C34.5422 5.10793 32.9369 5.94214 32.1606 6.64253L34.7275 6.90573L37.1885 7.40539L38 8.86415L35.0627 8.81954C33.6205 8.65448 29.3997 10.4255 25.3686 14.0747L24.4953 12.0315Z" fill="#628A49"/>
<path fill-rule="evenodd" clip-rule="evenodd" d="M19.1279 12.9505C16.5787 14.9312 14.5764 16.274 12.7152 17.2599C8.93547 19.263 6.05989 21.5782 0 23.0905C0.648328 24.4333 1.37605 24.1924 2.71681 24.6475C5.85701 25.7181 10.4085 24.0898 13.9413 23.2199C17.152 22.4303 24.6806 19.0845 26.7932 16.4569C28.1957 14.7082 27.4547 10.4702 26.4888 9.47089C25.9199 9.23891 25.2804 9.13631 24.3366 8.81511C22.9782 10.323 21.6506 10.9877 19.1279 12.9505Z" fill="#F29217"/>
<path fill-rule="evenodd" clip-rule="evenodd" d="M0.242538 23.3002C0.899688 24.5003 1.53479 24.246 2.71236 24.643C5.85257 25.7137 10.4041 24.0854 13.9368 23.2155C17.1476 22.4259 24.6762 19.0801 26.7887 16.4525C28.1912 14.7038 27.6443 10.7557 26.4844 9.46645L26.4006 9.37723C25.0422 12.8836 21.7256 15.3908 18.1002 17.4429C13.0592 20.2979 4.90433 23.4296 0.242538 23.3002Z" fill="#ED701F"/>
</svg>
