<svg width="43" height="49" viewBox="0 0 43 49" fill="none" xmlns="http://www.w3.org/2000/svg">
<path fill-rule="evenodd" clip-rule="evenodd" d="M8.10616 42.0976L15.7133 45.1661C17.447 45.8663 18.6575 45.2214 19.3572 43.4881L29.2012 19.0718C29.9009 17.3386 29.0541 15.3469 27.3204 14.6466L20.9178 12.0631C19.1841 11.3629 17.1902 12.212 16.4905 13.9453L6.64645 38.3616C5.94591 40.0895 6.36934 41.3951 8.10616 42.0976Z" fill="#C4DDEC"/>
<path d="M27.2359 23.9371L14.5254 18.8101L10.5735 28.6125L23.284 33.7396L27.2359 23.9371Z" fill="#92ACCD"/>
<path fill-rule="evenodd" clip-rule="evenodd" d="M24.6726 5.80509L28.9477 7.52912L29.4399 17.6496L17.3024 12.7563L24.6726 5.80509Z" fill="#C4DDEC"/>
<path d="M29.6771 6.12961L25.1191 4.29103L24.2832 6.36429L28.8413 8.20287L29.6771 6.12961Z" fill="#C4DDEC"/>
<path fill-rule="evenodd" clip-rule="evenodd" d="M24.6656 4.37974L29.9425 6.5073L31.1493 3.51953C30.5895 2.82435 29.6551 2.26992 28.8209 1.91747C27.907 1.53058 26.7614 1.26502 25.8724 1.39197L24.6656 4.37974Z" fill="#92ACCD"/>
<path d="M29.4754 7.29791L24.4497 5.27072L24.1706 5.963L29.1963 7.99019L29.4754 7.29791Z" fill="#A9BECB"/>
<path d="M18.6908 20.4939L16.3065 19.5322L12.3546 29.3346L14.7389 30.2964L18.6908 20.4939Z" fill="#A8BCD7"/>
<path d="M14.7419 30.2934L12.3575 29.3316L8.2042 39.6337L10.5885 40.5955L14.7419 30.2934Z" fill="#D4E6F1"/>
<path d="M20.7945 15.2797L18.4101 14.3179L16.3083 19.5314L18.6926 20.4931L20.7945 15.2797Z" fill="#D4E6F1"/>
<path fill-rule="evenodd" clip-rule="evenodd" d="M25.3239 7.6729L24.7221 7.4331L18.4134 14.3215L20.7962 15.2818L25.3239 7.6729Z" fill="#D4E6F1"/>
</svg>
