<svg width="130" height="150" viewBox="0 0 130 150" fill="none" xmlns="http://www.w3.org/2000/svg">
<path fill-rule="evenodd" clip-rule="evenodd" d="M60.1028 8.24719e-07H116.851C120.339 -0.00123181 123.684 1.37932 126.15 3.83768C128.616 6.29604 130.001 9.63065 130 13.1073V136.688C130 143.927 124.113 149.796 116.851 149.796H60.1028C52.8408 149.796 46.9537 143.927 46.9537 136.688V13.1073C46.9525 9.63065 48.3375 6.29604 50.8037 3.83768C53.2699 1.37932 56.6151 -0.00123181 60.1028 8.24719e-07Z" fill="#979797"/>
<path fill-rule="evenodd" clip-rule="evenodd" d="M117.233 145.318H59.7161C54.0187 145.252 49.4418 140.617 49.4652 134.937V12.9679C49.4418 7.28836 54.0187 2.65334 59.7161 2.58705H62.2508C62.7548 2.58683 63.1676 2.986 63.1827 3.48812C63.22 4.41706 62.9777 7.94702 63.9562 7.9563C65.7688 7.97953 113.081 7.90057 113.221 7.80303C113.799 7.39894 113.505 4.22662 113.543 3.47419C113.565 2.97754 113.976 2.58655 114.475 2.58705H117.242C122.94 2.65334 127.517 7.28836 127.493 12.9679V134.937C127.517 140.62 122.934 145.257 117.233 145.318Z" fill="#E6E9ED"/>
<path fill-rule="evenodd" clip-rule="evenodd" d="M49.4465 37.8078V12.8519C49.4746 7.22008 54.0477 2.66153 59.6974 2.63358H62.2322C62.7327 2.63318 63.1441 3.02689 63.1641 3.52536C63.2014 4.45429 62.7494 7.90065 66.1042 7.90065C67.9168 7.90065 110.784 7.72415 110.957 7.72415C113.752 7.72415 113.487 4.24993 113.524 3.50678C113.554 3.01563 113.962 2.63269 114.456 2.63358H117.224C122.873 2.66153 127.446 7.22008 127.475 12.8519V37.8078H49.4465Z" fill="#8CC153"/>
<path fill-rule="evenodd" clip-rule="evenodd" d="M95.1563 79.1036H119.53C121.63 79.1036 123.332 80.8005 123.332 82.8937V107.19C123.332 108.195 122.932 109.158 122.218 109.868C121.505 110.578 120.538 110.977 119.53 110.975H95.1563C93.059 110.975 91.3588 109.281 91.3588 107.19V82.8937C91.3575 81.8889 91.7571 80.9249 92.4694 80.214C93.1817 79.5031 94.1483 79.1036 95.1563 79.1036Z" fill="white"/>
<path fill-rule="evenodd" clip-rule="evenodd" d="M57.3817 78.9642H81.7556C83.8529 78.9642 85.5531 80.659 85.5531 82.7497V107.046C85.5543 108.051 85.1547 109.015 84.4424 109.726C83.7301 110.437 82.7635 110.836 81.7556 110.836H57.3817C55.2844 110.836 53.5842 109.141 53.5842 107.051V82.7543C53.583 81.7495 53.9825 80.7855 54.6948 80.0746C55.4071 79.3637 56.3738 78.9642 57.3817 78.9642Z" fill="white"/>
<path fill-rule="evenodd" clip-rule="evenodd" d="M95.1563 41.0126H119.53C120.538 41.0113 121.505 41.4096 122.218 42.1196C122.932 42.8297 123.332 43.7932 123.332 44.798V69.0943C123.332 71.1875 121.63 72.8844 119.53 72.8844H95.1563C94.1483 72.8844 93.1817 72.4849 92.4694 71.774C91.7571 71.0631 91.3575 70.0991 91.3588 69.0943V44.7841C91.3665 42.6989 93.0644 41.0126 95.1563 41.0126Z" fill="white"/>
<path fill-rule="evenodd" clip-rule="evenodd" d="M57.3817 40.8732H81.7556C83.8529 40.8732 85.5531 42.568 85.5531 44.6586V68.9364C85.5543 69.9411 85.1547 70.9052 84.4424 71.6161C83.7301 72.327 82.7635 72.7264 81.7556 72.7264H57.3817C56.3738 72.7264 55.4071 72.327 54.6948 71.6161C53.9825 70.9052 53.583 69.9411 53.5842 68.9364V44.64C53.5945 42.5567 55.2917 40.8732 57.3817 40.8732Z" fill="white"/>
<path fill-rule="evenodd" clip-rule="evenodd" d="M82.5197 117.975H94.3921C95.4 117.974 96.3671 118.372 97.0803 119.082C97.7935 119.792 98.1942 120.756 98.1942 121.76V133.595C98.1967 134.6 97.7976 135.565 97.085 136.276C96.3724 136.987 95.4051 137.386 94.3967 137.385H82.5197C81.5117 137.386 80.5446 136.988 79.8314 136.278C79.1183 135.568 78.7175 134.604 78.7175 133.6V121.765C78.7175 119.672 80.4198 117.975 82.5197 117.975Z" fill="white"/>
<path fill-rule="evenodd" clip-rule="evenodd" d="M107.658 117.975H119.53C120.538 117.974 121.505 118.372 122.218 119.082C122.932 119.792 123.332 120.756 123.332 121.76V133.595C123.334 134.6 122.934 135.564 122.222 136.275C121.509 136.986 120.543 137.385 119.535 137.385H107.658C106.65 137.386 105.683 136.988 104.969 136.278C104.256 135.568 103.856 134.604 103.856 133.6V121.765C103.856 119.672 105.558 117.975 107.658 117.975Z" fill="white"/>
<path fill-rule="evenodd" clip-rule="evenodd" d="M57.3817 117.975H69.2588C71.3558 117.977 73.0558 119.67 73.0609 121.76V133.595C73.0622 134.6 72.6626 135.564 71.9503 136.275C71.238 136.986 70.2714 137.385 69.2634 137.385H57.3817C55.2844 137.385 53.5842 135.69 53.5842 133.6V121.765C53.583 120.76 53.9825 119.796 54.6948 119.085C55.4071 118.374 56.3738 117.975 57.3817 117.975Z" fill="white"/>
<path d="M68.727 125.422C63.2891 130.774 56.6353 124.953 56.6353 124.953C56.6353 124.953 56.5176 124.935 56.1705 125.367C55.8233 125.8 55.9291 125.901 55.9291 125.901C59.3833 133.833 69.3436 130.873 70.0163 126.649L69.9766 125.81L69.7355 125.011L69.5596 124.915C69.1052 125.337 69.3335 125.376 69.3335 125.376L68.727 125.422Z" fill="#F6BB42"/>
<path d="M56.5151 125.343C56.5217 125.246 56.4808 125.157 56.4122 125.098C56.3483 125.159 56.2685 125.245 56.1704 125.367C56.112 125.44 56.0666 125.503 56.0311 125.559C56.0767 125.593 56.1327 125.616 56.1945 125.62C56.3604 125.631 56.5039 125.507 56.5151 125.343Z" fill="#434A54"/>
<path d="M68.2698 125.298C64.2514 131.764 56.8689 127.922 56.8689 127.922C56.8689 127.922 56.7501 127.932 56.5152 128.433C56.2802 128.934 56.4072 129.008 56.4072 129.008C61.6436 135.916 70.6251 130.724 70.2786 126.462C70.2786 126.462 70.1539 125.803 70.0415 125.656C69.9286 125.508 70.3584 123.705 70.3584 123.705L68.8464 123.084C68.8464 124.028 68.7649 124.916 68.6238 125.007C68.4828 125.099 68.2698 125.298 68.2698 125.298Z" fill="#FFCE54"/>
<path d="M56.4202 128.666C56.4572 128.682 56.498 128.691 56.5409 128.691C56.7071 128.691 56.8418 128.557 56.8418 128.393C56.8418 128.277 56.7752 128.177 56.6783 128.128C56.6322 128.201 56.5778 128.299 56.5152 128.433C56.4724 128.524 56.4418 128.601 56.4202 128.666Z" fill="#434A54"/>
<path d="M68.8464 123.084C68.8464 124.028 68.7648 124.916 68.6238 125.007C69.2885 125.045 70.0414 125.656 70.0414 125.656C69.9286 125.508 70.3583 123.705 70.3583 123.705L68.8464 123.084Z" fill="#F6BB42"/>
<g opacity="0.2">
<path opacity="0.2" d="M70.0414 125.656C69.9286 125.508 70.3584 123.705 70.3584 123.705L69.6835 123.428C69.5658 123.952 69.3568 124.951 69.4393 125.059C69.5521 125.207 69.6764 125.866 69.6764 125.866C69.9969 129.808 62.3374 134.546 57.0421 129.768C62.3362 135.509 70.6114 130.556 70.2785 126.462C70.2786 126.462 70.1538 125.803 70.0414 125.656Z" fill="white"/>
</g>
<path opacity="0.2" fill-rule="evenodd" clip-rule="evenodd" d="M55.3596 25.7641H121.31C122.36 25.7641 123.211 26.6125 123.211 27.6591V32.1645C123.209 33.2092 122.358 34.0548 121.31 34.0548H55.3596C54.3122 34.0548 53.4631 33.2085 53.4631 32.1645V27.6591C53.4631 26.6143 54.3114 25.7666 55.3596 25.7641Z" fill="#E5E8F5"/>
<path fill-rule="evenodd" clip-rule="evenodd" d="M55.448 11.8533H85.3248C86.0256 11.8187 86.6885 12.1717 87.0493 12.7715C87.4101 13.3714 87.4101 14.1206 87.0493 14.7205C86.6885 15.3203 86.0256 15.6733 85.3248 15.6387H55.448C54.7472 15.6733 54.0843 15.3203 53.7235 14.7205C53.3627 14.1206 53.3627 13.3714 53.7235 12.7715C54.0843 12.1717 54.7472 11.8187 55.448 11.8533Z" fill="#EFEFEF"/>
<path fill-rule="evenodd" clip-rule="evenodd" d="M55.448 18.811H105.668C106.369 18.7764 107.032 19.1294 107.393 19.7293C107.753 20.3291 107.753 21.0783 107.393 21.6782C107.032 22.2781 106.369 22.6311 105.668 22.5964H55.448C54.7472 22.6311 54.0843 22.2781 53.7235 21.6782C53.3627 21.0783 53.3627 20.3291 53.7235 19.7293C54.0843 19.1294 54.7472 18.7764 55.448 18.811Z" fill="#EFEFEF"/>
<g clip-path="url(#clip0)">
<path d="M117.486 124.557C117.486 124.557 117.486 124.557 117.486 124.557V124.027C117.486 124.035 117.485 124.042 117.485 124.05C117.497 123.443 117.101 122.834 116.297 122.372C114.719 121.464 112.169 121.464 110.602 122.372C109.821 122.824 109.431 123.417 109.432 124.01C109.432 124.008 109.432 124.006 109.432 124.004V130.966C109.43 131.565 109.808 132.164 110.601 132.621C112.179 133.529 114.729 133.529 116.297 132.621C117.075 132.17 117.484 131.58 117.486 130.989V130.459V130.459V124.557V124.557Z" fill="#ACABB1"/>
<path d="M116.316 125.66C117.094 125.209 117.484 124.618 117.486 124.027V130.989C117.484 131.58 117.075 132.17 116.297 132.621L116.316 125.66Z" fill="#ACABB1"/>
<path d="M116.297 132.621C114.729 133.529 112.179 133.529 110.601 132.621C109.808 132.164 109.43 131.565 109.432 130.966V124.004C109.43 124.603 109.827 125.203 110.62 125.66C112.198 126.568 114.748 126.568 116.316 125.66L116.297 132.621Z" fill="#C6C5CB"/>
<path d="M116.316 126.19L116.316 126.217L116.313 126.191C114.745 127.098 112.197 127.097 110.62 126.19C109.826 125.733 109.43 125.133 109.432 124.534V130.436C109.43 131.035 109.807 131.635 110.601 132.092C112.179 133 114.729 133 116.297 132.092L116.3 132.081L116.3 132.09C117.076 131.639 117.484 131.049 117.486 130.459V124.557C117.484 125.148 117.094 125.739 116.316 126.19Z" fill="#CD2A01"/>
<path d="M116.316 126.19L116.3 132.09C117.076 131.639 117.484 131.049 117.486 130.459V124.557C117.484 125.148 117.094 125.739 116.316 126.19Z" fill="#6BA231"/>
<path d="M110.601 132.092C112.179 133 114.729 133 116.297 132.092L116.313 126.191C114.745 127.098 112.197 127.097 110.62 126.19C109.827 125.733 109.43 125.133 109.432 124.534V130.436C109.43 131.035 109.808 131.635 110.601 132.092Z" fill="#8CC153"/>
<path d="M116.297 122.372C117.875 123.28 117.883 124.752 116.316 125.66C114.748 126.568 112.198 126.568 110.62 125.66C109.043 124.752 109.034 123.28 110.602 122.372C112.17 121.464 114.719 121.464 116.297 122.372Z" fill="#E0E0E2"/>
<path d="M113.472 125.993C112.467 125.993 111.528 125.763 110.826 125.346C110.193 124.97 109.844 124.495 109.843 124.009C109.842 123.528 110.185 123.058 110.809 122.685C111.505 122.268 112.441 122.039 113.446 122.039C114.45 122.039 115.39 122.269 116.091 122.685C116.724 123.062 117.074 123.536 117.074 124.022C117.075 124.504 116.732 124.974 116.109 125.347C115.412 125.763 114.476 125.993 113.472 125.993Z" fill="#D8D8DA"/>
<path d="M110.809 122.866C111.505 122.449 112.442 122.22 113.446 122.22C114.45 122.22 115.39 122.45 116.091 122.866C116.686 123.219 117.03 123.66 117.07 124.114C117.073 124.084 117.074 124.053 117.074 124.022C117.074 123.536 116.725 123.062 116.091 122.685C115.39 122.269 114.45 122.039 113.446 122.039C112.442 122.039 111.505 122.268 110.809 122.685C110.186 123.058 109.843 123.528 109.843 124.009C109.843 124.039 109.845 124.069 109.847 124.099C109.888 123.649 110.225 123.215 110.809 122.866Z" fill="#C6C5CB"/>
<path d="M113.779 124.029C113.781 123.918 113.734 123.824 113.624 123.761C113.182 123.507 111.887 123.843 111.246 124.215C110.993 124.361 110.905 124.506 110.908 124.637C110.908 124.635 110.907 124.632 110.907 124.63L110.907 124.739C110.906 124.944 111.129 125.117 111.301 125.216C111.583 125.378 112.205 125.617 112.846 125.245C113.33 124.965 113.778 124.47 113.779 124.134L113.78 124.025C113.779 124.026 113.779 124.028 113.779 124.029ZM112.654 124.323C112.589 124.285 112.547 124.239 112.53 124.19C112.547 124.143 112.588 124.097 112.652 124.06C112.829 123.957 113.118 123.957 113.296 124.06C113.362 124.098 113.403 124.144 113.421 124.193C113.403 124.24 113.363 124.286 113.299 124.323C113.121 124.426 112.833 124.426 112.654 124.323ZM111.183 124.657C111.198 124.596 111.242 124.541 111.315 124.499C111.557 124.359 112.027 124.404 112.366 124.599C112.544 124.701 112.65 124.824 112.677 124.938C112.661 124.999 112.617 125.054 112.544 125.096C112.302 125.236 111.832 125.191 111.493 124.996C111.315 124.894 111.209 124.771 111.183 124.657Z" fill="#E0E0E2"/>
<path d="M113.297 123.951C113.118 123.848 112.83 123.848 112.652 123.951C112.564 124.002 112.52 124.069 112.52 124.136L112.519 124.245C112.52 124.178 112.564 124.111 112.652 124.06C112.829 123.957 113.118 123.957 113.296 124.06C113.386 124.112 113.431 124.18 113.431 124.247L113.431 124.138C113.431 124.07 113.387 124.003 113.297 123.951Z" fill="#C6C5CB"/>
<path d="M112.684 124.885L112.683 124.994C112.684 124.865 112.573 124.718 112.367 124.599C112.027 124.404 111.557 124.359 111.315 124.498C111.221 124.553 111.176 124.628 111.176 124.71L111.176 124.601C111.176 124.518 111.222 124.444 111.316 124.389C111.557 124.249 112.028 124.294 112.367 124.49C112.574 124.609 112.684 124.756 112.684 124.885Z" fill="#C6C5CB"/>
<path d="M113.78 124.025L113.779 124.134C113.778 124.47 113.33 124.965 112.846 125.245C112.205 125.617 111.583 125.377 111.301 125.216C111.129 125.117 110.906 124.944 110.907 124.739L110.907 124.63C110.907 124.834 111.13 125.007 111.302 125.106C111.583 125.268 112.206 125.507 112.847 125.136C113.331 124.856 113.779 124.361 113.78 124.025Z" fill="#C6C5CB"/>
<path d="M113.624 123.761C114.066 124.016 113.488 124.764 112.847 125.136C112.206 125.507 111.583 125.268 111.302 125.107C111.021 124.945 110.605 124.586 111.246 124.215C111.887 123.843 113.182 123.507 113.624 123.761ZM111.493 124.996C111.832 125.191 112.303 125.236 112.544 125.096C112.785 124.956 112.706 124.685 112.367 124.49C112.028 124.294 111.557 124.249 111.316 124.389C111.074 124.529 111.154 124.801 111.493 124.996ZM113.297 123.951C113.118 123.848 112.83 123.848 112.652 123.951C112.475 124.054 112.476 124.22 112.654 124.323C112.833 124.426 113.122 124.426 113.299 124.323C113.476 124.22 113.475 124.054 113.297 123.951Z" fill="#E0E0E2"/>
<path d="M113.294 124.085C113.294 124.086 113.294 124.087 113.294 124.089C113.296 124.042 113.266 123.995 113.204 123.959C113.085 123.89 112.892 123.89 112.773 123.959C112.714 123.993 112.684 124.038 112.684 124.083C112.684 124.083 112.684 124.083 112.684 124.083L112.684 124.192C112.684 124.237 112.714 124.283 112.774 124.317C112.893 124.386 113.087 124.386 113.205 124.317C113.264 124.283 113.294 124.239 113.294 124.194L113.294 124.085Z" fill="#E0E0E2"/>
<path d="M113.294 124.085L113.294 124.194C113.294 124.239 113.264 124.283 113.205 124.317C113.086 124.386 112.893 124.386 112.774 124.317C112.714 124.283 112.684 124.237 112.684 124.192L112.684 124.083C112.684 124.128 112.714 124.174 112.774 124.208C112.894 124.277 113.087 124.277 113.206 124.208C113.265 124.174 113.294 124.129 113.294 124.085Z" fill="#C6C5CB"/>
<path d="M113.204 123.959C113.324 124.028 113.324 124.139 113.205 124.208C113.087 124.277 112.894 124.277 112.774 124.208C112.654 124.139 112.654 124.028 112.773 123.959C112.891 123.89 113.085 123.89 113.204 123.959Z" fill="#E0E0E2"/>
</g>
<path fill-rule="evenodd" clip-rule="evenodd" d="M12.4875 148.774C12.6785 145.267 9.1699 139.67 9.1699 139.67C8.6294 139.517 6.98926 141.221 6.98926 141.221L11.1176 149.526L12.4875 148.774Z" fill="#5D5D7D"/>
<path fill-rule="evenodd" clip-rule="evenodd" d="M9.33292 144.045C9.33292 144.045 7.79995 140.437 8.55478 140.032C9.63113 139.456 11.2014 137.12 11.2014 137.12L13.1351 137.404C12.7064 139.972 11.3365 143.237 11.2713 144.101C11.234 144.519 9.33292 144.045 9.33292 144.045Z" fill="#FFECB3"/>
<path fill-rule="evenodd" clip-rule="evenodd" d="M36.251 147.668C34.5363 146.414 27.3373 147.176 27.3373 147.176C26.9832 147.64 26.9692 150 26.9692 150H36.3162C36.3162 150 36.866 148.114 36.251 147.668Z" fill="#5D5D7D"/>
<path fill-rule="evenodd" clip-rule="evenodd" d="M31.0229 148.848C31.0229 148.848 27.3978 148.848 27.3791 147.919C27.3558 146.605 27.5003 144.57 27.5003 144.57C27.5003 144.57 30.063 144.236 30.1049 145.002C30.2354 147.413 31.1953 146.484 31.8755 146.916C32.2064 147.143 31.0229 148.848 31.0229 148.848Z" fill="#FFECB3"/>
<path fill-rule="evenodd" clip-rule="evenodd" d="M11.7047 55.2995C12.2033 60.6641 17.5663 58.3697 22.2957 61.0264C26.6663 63.4788 30.6828 56.9066 30.6828 51.5141C30.6828 46.1216 29.5785 40.4784 24.6721 40.4784C19.7656 40.4784 11.4857 52.9122 11.7047 55.2995Z" fill="#694A52"/>
<path fill-rule="evenodd" clip-rule="evenodd" d="M12.082 141.63L10.0645 138.491L18.4981 118.704C18.4981 118.704 13.1677 109.935 12.4967 103.637C11.905 98.0632 13.3774 94.7701 13.3774 94.7701L24.3784 94.3056C24.3784 94.3056 23.8845 96.3539 23.8053 104.059C23.782 106.763 25.7017 116.136 24.6161 121.101C24.1827 123.121 14.2114 141.119 12.082 141.63Z" fill="#5D5D7D"/>
<path fill-rule="evenodd" clip-rule="evenodd" d="M30.4779 145.871H27.1324C27.1324 145.871 25.6926 112.842 24.4392 108.541C23.1246 103.792 22.7714 98.8298 23.4001 93.9432H31.1582C31.1582 93.9432 34.1729 111.742 34.0983 119.466C34.0424 125.077 30.4779 145.871 30.4779 145.871Z" fill="#5D5D7D"/>
<path fill-rule="evenodd" clip-rule="evenodd" d="M18.652 66.1402L28.9588 66.5768L26.0513 54.8444L21.9556 53.8179L18.652 66.1402Z" fill="#FFDFAE"/>
<path fill-rule="evenodd" clip-rule="evenodd" d="M31.3817 94.9791H19.267V62.889C25.3243 70.2554 28.1853 62.889 28.1853 62.889L31.3817 94.9791Z" fill="#EAEAEA"/>
<path fill-rule="evenodd" clip-rule="evenodd" d="M20.884 94.2545C24.8072 89.9488 21.1216 84.0362 21.0843 77.9609C21.0843 76.3817 20.5345 73.9154 20.4133 72.3408C20.3021 70.2753 20.075 68.2176 19.7331 66.1774C19.3976 64.7561 20.2736 60.8081 20.3202 59.9024C19.5059 60.1569 18.7063 60.4562 17.9252 60.7988C15.0083 61.8671 11.9004 62.3362 11.7001 63.6274C11.0431 67.8727 14.6076 84.8443 14.6076 84.8443L11.6162 94.979C11.6162 94.979 18.9549 96.3678 20.884 94.2545Z" fill="#9ED761"/>
<path d="M34.2474 65.3739C32.8868 63.5671 30.0539 61.0775 27.342 60.0929C27.7888 61.8626 28.0741 63.669 28.1947 65.49C28.2739 68.1375 28.9449 77.7798 28.9449 80.4319C28.9449 85.2252 26.3589 94.4635 30.1284 95.202C31.0215 95.277 31.921 95.2016 32.789 94.9791C32.789 94.9791 32.6352 91.3609 32.5234 86.6465C34.2008 84.8258 39.3635 79.0664 39.8342 76.6744C40.7195 72.2387 34.3965 65.555 34.2474 65.3739ZM32.4395 82.2759C32.379 78.156 32.3836 73.8086 32.5467 70.5155L35.7664 75.9405L32.4395 82.2759Z" fill="#8CC153"/>
<path fill-rule="evenodd" clip-rule="evenodd" d="M30.0538 71.5652L27.384 71.1008C27.258 71.081 27.1294 71.1135 27.0282 71.1907C26.9269 71.2679 26.8619 71.3832 26.8481 71.5095L25.4503 77.2736C25.403 77.4128 25.4133 77.565 25.4789 77.6966C25.5445 77.8282 25.6599 77.9283 25.7997 77.9749C25.8407 77.9871 25.8829 77.9949 25.9255 77.9981L28.4929 77.9052C28.7071 77.8822 28.8839 77.7282 28.9356 77.5197L30.4266 72.3363C30.5326 72.0337 30.3748 71.7024 30.0725 71.5931L30.0538 71.5652Z" fill="#30312C"/>
<path fill-rule="evenodd" clip-rule="evenodd" d="M28.4137 77.6404C28.0502 78.5693 25.1753 79.8699 25.1753 79.8699L24.4624 77.7519C24.4624 77.7519 25.8603 75.0255 26.7223 75.3552C27.2581 75.5782 28.6559 77.0505 28.4137 77.6404Z" fill="#FFECB3"/>
<path fill-rule="evenodd" clip-rule="evenodd" d="M25.6925 79.647C25.6925 79.647 13.8761 87.046 12.0588 85.1463C8.3825 81.3051 11.7001 63.6275 11.7001 63.6275C14.6355 62.9726 15.0083 70.4226 15.0083 70.4226C15.0083 70.4226 15.0363 77.464 14.7008 79.712L24.4019 77.6776L25.6925 79.647Z" fill="#8CC153"/>
<path fill-rule="evenodd" clip-rule="evenodd" d="M27.2814 57.0042C27.2814 57.0042 24.0617 54.4032 21.923 53.8969C21.923 53.8969 21.457 55.6479 20.9445 57.5708C21.6061 59.02 24.7373 60.5109 26.0699 60.6828C27.1602 60.8268 27.2814 57.0042 27.2814 57.0042Z" fill="#F4CA92"/>
<path fill-rule="evenodd" clip-rule="evenodd" d="M20.8838 53.1352C20.8838 49.3312 22.6684 47.1714 24.1082 47.1714C24.1082 47.1714 23.5956 49.6563 24.4996 50.0511C26.1444 50.771 29.816 50.1719 29.816 51.8393C29.816 55.6386 27.0809 59.3265 26.4938 59.3265C25.054 59.3265 20.8838 56.9392 20.8838 53.1352Z" fill="#FFDFAE"/>
<path fill-rule="evenodd" clip-rule="evenodd" d="M30.8505 88.0956L31.6333 87.3618L30.6502 84.8397L29.9047 85.9033L30.8505 88.0956Z" fill="#FFECB3"/>
<path fill-rule="evenodd" clip-rule="evenodd" d="M31.4983 89.9814C30.8506 89.9814 29.3875 88.9735 29.3875 87.7288C29.3875 86.484 29.066 85.4807 29.7137 85.4807C30.3614 85.4807 32.1413 89.9814 31.4983 89.9814Z" fill="#FCFCFC"/>
<g clip-path="url(#clip1)">
<path d="M58.3576 92.5712L61.9532 91.9458L65.7929 92.5712C66.1509 92.5712 66.3794 92.9518 66.2104 93.2663L62.4948 100.179C62.3163 100.512 61.8386 100.512 61.6599 100.18L57.9402 93.2665C57.771 92.952 57.9995 92.5712 58.3576 92.5712Z" fill="#FECB21"/>
<path d="M62.2971 96.7971C62.2971 97.3119 61.8785 97.7292 61.362 97.7292C60.8456 97.7292 60.4269 97.3119 60.4269 96.7971C60.4269 96.2822 60.8456 95.8649 61.362 95.8649C61.8785 95.8649 62.2971 96.2822 62.2971 96.7971ZM63.4838 98.2689C63.0275 98.0277 62.4615 98.2008 62.2195 98.6556C61.9774 99.1104 62.1511 99.6746 62.6073 99.9159L63.4838 98.2689ZM63.4838 93.7722C62.9673 93.7722 62.5487 94.1895 62.5487 94.7043C62.5487 95.2191 62.9673 95.6365 63.4838 95.6365C64.0003 95.6365 64.4189 95.2191 64.4189 94.7043C64.4189 94.1895 64.0003 93.7722 63.4838 93.7722ZM60.2028 93.1658C59.6864 93.1658 59.2677 93.5831 59.2677 94.0979C59.2677 94.6128 59.6864 95.0301 60.2028 95.0301C60.7193 95.0301 61.138 94.6128 61.138 94.0979C61.138 93.5831 60.7193 93.1658 60.2028 93.1658V93.1658Z" fill="#F43B22"/>
<path d="M58.1702 93.6113C57.9301 93.6113 57.6972 93.4849 57.5724 93.2608C57.3892 92.9319 57.5081 92.5174 57.838 92.3348C58.4615 91.9897 59.1367 91.7233 59.8448 91.543C60.5535 91.3625 61.2887 91.2697 62.0299 91.2672C62.7683 91.2647 63.5045 91.3518 64.2166 91.5262C64.9428 91.7041 65.6364 91.9709 66.278 92.3191C66.6094 92.4989 66.7318 92.9125 66.5513 93.2428C66.3709 93.5731 65.956 93.6952 65.6247 93.5153C65.0862 93.223 64.5027 92.9988 63.8906 92.8489C63.2952 92.703 62.6798 92.6291 62.0613 92.6291L62.0346 92.6291C61.4058 92.6313 60.7828 92.7099 60.1829 92.8626C59.5882 93.014 59.0224 93.2371 58.5013 93.5255C58.4001 93.5818 58.2861 93.6113 58.1702 93.6113V93.6113Z" fill="#C4790C"/>
</g>
<g clip-path="url(#clip2)">
<path fill-rule="evenodd" clip-rule="evenodd" d="M79.2398 93.3746H81.2578L81.2584 100.463H75.48V100.462L75.4458 100.463C73.3483 100.463 71.6482 99.9139 71.6482 99.2366L71.6486 92.1294H79.2398V93.3746Z" fill="#F1C40F"/>
<path d="M75.4929 92.1294H79.2405V93.3746H75.4929V92.1294Z" fill="#F39C12"/>
<path d="M75.4449 93.3745C77.5412 93.3745 79.2405 92.817 79.2405 92.1293C79.2405 91.4416 77.5412 90.8841 75.4449 90.8841C73.3487 90.8841 71.6493 91.4416 71.6493 92.1293C71.6493 92.817 73.3487 93.3745 75.4449 93.3745Z" fill="#E67E22"/>
<path opacity="0.2" d="M75.5251 92.5423C76.3743 92.5423 77.0626 92.3493 77.0626 92.1113C77.0626 91.8732 76.3743 91.6802 75.5251 91.6802C74.676 91.6802 73.9877 91.8732 73.9877 92.1113C73.9877 92.3493 74.676 92.5423 75.5251 92.5423Z" fill="black"/>
<path fill-rule="evenodd" clip-rule="evenodd" d="M75.5572 99.7921C75.5062 99.7921 75.4573 99.8123 75.4213 99.8483C75.3852 99.8842 75.365 99.9329 75.365 99.9837C75.365 100.035 75.3852 100.083 75.4213 100.119C75.4573 100.155 75.5062 100.175 75.5572 100.175C75.6081 100.175 75.657 100.155 75.6931 100.119C75.7291 100.083 75.7494 100.035 75.7494 99.9837C75.7494 99.9329 75.7291 99.8842 75.6931 99.8483C75.657 99.8123 75.6081 99.7921 75.5572 99.7921ZM75.5572 99.0259C75.5062 99.0259 75.4573 99.046 75.4213 99.082C75.3852 99.1179 75.365 99.1666 75.365 99.2174C75.365 99.2682 75.3852 99.317 75.4213 99.3529C75.4573 99.3888 75.5062 99.409 75.5572 99.409C75.6081 99.409 75.657 99.3888 75.6931 99.3529C75.7291 99.317 75.7494 99.2682 75.7494 99.2174C75.7494 99.1666 75.7291 99.1179 75.6931 99.082C75.657 99.046 75.6081 99.0259 75.5572 99.0259ZM75.5572 98.2596C75.5062 98.2596 75.4573 98.2798 75.4213 98.3157C75.3852 98.3516 75.365 98.4003 75.365 98.4511C75.365 98.5019 75.3852 98.5507 75.4213 98.5866C75.4573 98.6225 75.5062 98.6427 75.5572 98.6427C75.6081 98.6427 75.657 98.6225 75.6931 98.5866C75.7291 98.5507 75.7494 98.5019 75.7494 98.4511C75.7494 98.4003 75.7291 98.3516 75.6931 98.3157C75.657 98.2798 75.6081 98.2596 75.5572 98.2596ZM75.5572 97.4933C75.5062 97.4933 75.4573 97.5135 75.4213 97.5494C75.3852 97.5853 75.365 97.634 75.365 97.6849C75.365 97.7357 75.3852 97.7844 75.4213 97.8203C75.4573 97.8562 75.5062 97.8764 75.5572 97.8764C75.6081 97.8764 75.657 97.8562 75.6931 97.8203C75.7291 97.7844 75.7494 97.7357 75.7494 97.6849C75.7494 97.634 75.7291 97.5853 75.6931 97.5494C75.657 97.5135 75.6081 97.4933 75.5572 97.4933ZM75.5572 95.9607C75.5062 95.9607 75.4573 95.9809 75.4213 96.0168C75.3852 96.0527 75.365 96.1015 75.365 96.1523C75.365 96.2031 75.3852 96.2518 75.4213 96.2877C75.4573 96.3237 75.5062 96.3438 75.5572 96.3438C75.6081 96.3438 75.657 96.3237 75.6931 96.2877C75.7291 96.2518 75.7494 96.2031 75.7494 96.1523C75.7494 96.1015 75.7291 96.0527 75.6931 96.0168C75.657 95.9809 75.6081 95.9607 75.5572 95.9607ZM75.5572 95.1944C75.5062 95.1944 75.4573 95.2146 75.4213 95.2505C75.3852 95.2864 75.365 95.3352 75.365 95.386C75.365 95.4368 75.3852 95.4855 75.4213 95.5214C75.4573 95.5574 75.5062 95.5776 75.5572 95.5776C75.6081 95.5776 75.657 95.5574 75.6931 95.5214C75.7291 95.4855 75.7494 95.4368 75.7494 95.386C75.7494 95.3352 75.7291 95.2864 75.6931 95.2505C75.657 95.2146 75.6081 95.1944 75.5572 95.1944ZM75.5572 94.045C75.5829 94.0458 75.6085 94.0414 75.6326 94.0322C75.6566 94.0229 75.6785 94.009 75.697 93.9911C75.7155 93.9732 75.7302 93.9518 75.7402 93.9282C75.7503 93.9046 75.7554 93.8792 75.7554 93.8535C75.7554 93.8278 75.7503 93.8024 75.7402 93.7788C75.7302 93.7552 75.7155 93.7338 75.697 93.7159C75.6785 93.6981 75.6566 93.6841 75.6326 93.6748C75.6085 93.6656 75.5829 93.6612 75.5572 93.662C75.5073 93.6636 75.46 93.6845 75.4252 93.7202C75.3905 93.7559 75.3711 93.8037 75.3711 93.8535C75.3711 93.9033 75.3905 93.9511 75.4252 93.9868C75.46 94.0225 75.5073 94.0434 75.5572 94.045V94.045ZM75.5572 94.4281C75.5062 94.4281 75.4573 94.4483 75.4213 94.4842C75.3852 94.5202 75.365 94.5689 75.365 94.6197C75.365 94.6705 75.3852 94.7192 75.4213 94.7552C75.4573 94.7911 75.5062 94.8113 75.5572 94.8113C75.6081 94.8113 75.657 94.7911 75.6931 94.7552C75.7291 94.7192 75.7494 94.6705 75.7494 94.6197C75.7494 94.5689 75.7291 94.5202 75.6931 94.4842C75.657 94.4483 75.6081 94.4281 75.5572 94.4281ZM75.5572 96.727C75.5062 96.727 75.4573 96.7472 75.4213 96.7831C75.3852 96.819 75.365 96.8678 75.365 96.9186C75.365 96.9694 75.3852 97.0181 75.4213 97.054C75.4573 97.09 75.5062 97.1101 75.5572 97.1101C75.6081 97.1101 75.657 97.09 75.6931 97.054C75.7291 97.0181 75.7494 96.9694 75.7494 96.9186C75.7494 96.8678 75.7291 96.819 75.6931 96.7831C75.657 96.7472 75.6081 96.727 75.5572 96.727Z" fill="#F39C12"/>
</g>
<g clip-path="url(#clip3)">
<path d="M68.9047 97.7283L67.9468 97.7891C67.8859 97.8412 67.9294 97.9453 67.9294 98.0148V98.2578C67.9294 98.388 67.8859 98.5009 67.8075 98.6051C67.6072 98.8828 67.2502 99.0044 66.9454 99.1346C66.7364 99.2301 66.24 99.4384 66.2661 99.7249C66.301 100.072 66.9018 100.211 67.1631 100.272C67.4853 100.341 67.8075 100.367 68.1384 100.367C68.4258 100.367 68.7219 100.35 69.0092 100.324C69.2705 100.306 69.5317 100.263 69.7843 100.202C69.9672 100.159 70.4113 100.046 70.4722 99.829C70.5855 99.4297 69.7843 99.204 69.5405 99.0999C69.2008 98.9523 68.8264 98.7526 68.8264 98.336C68.8264 98.2231 68.8264 98.1103 68.8438 97.9974C68.8612 97.9193 68.8264 97.7717 68.9047 97.7283V97.7283Z" fill="#D1EBED"/>
<path d="M70.6986 90.0807C70.6986 90.0807 71.9875 92.2074 71.9875 94.6206C71.9875 98.0061 68.3822 97.954 68.3822 97.954C68.3822 97.954 64.777 97.9974 64.777 94.6206C64.777 92.2074 66.0745 90.0807 66.0745 90.0807H70.6986V90.0807Z" fill="#D1EBED"/>
<path d="M71.4823 94.0044C71.3517 93.909 71.2298 94.0131 71.0818 94.0652C70.4286 94.2909 69.7755 94.2562 69.1224 94.0565C68.4867 93.8569 67.8858 93.6051 67.224 93.5357C66.7973 93.4923 66.3619 93.5357 65.9613 93.6919C65.6652 93.8048 65.3778 93.9524 65.2124 94.2388C65.073 94.4732 65.134 94.8117 65.1688 95.0722C65.2385 95.5669 65.4214 96.0357 65.7349 96.4263C66.2225 97.0166 66.9627 97.3378 67.7116 97.4767C67.9381 97.5201 68.1645 97.5461 68.3996 97.5461C68.5912 97.5461 68.7915 97.5288 68.9831 97.494C69.6884 97.3725 70.4112 97.0947 70.925 96.5565C71.2559 96.2093 71.4736 95.784 71.5694 95.3152C71.6391 95.0114 71.6565 94.6989 71.6391 94.3864C71.6304 94.2475 71.613 94.1346 71.5085 94.0305L71.4823 94.0044V94.0044Z" fill="#AD1457"/>
<path d="M70.838 94.1432C68.539 94.5425 66.597 95.2109 65.5259 94.6901C64.7596 94.3168 65.4388 93.7439 66.1355 93.5529C67.8162 93.0928 68.4606 93.8654 69.4185 93.9869C69.9845 94.0564 70.2545 94.1866 70.838 94.1432V94.1432Z" fill="#720845"/>
<path d="M65.9525 94.0999C66.1354 94.152 66.3967 94.2214 66.6144 94.2474C66.7276 94.2648 66.7885 94.1867 66.7972 94.1086C66.9453 92.8065 67.1456 91.8776 67.433 91.1398C67.2327 91.0964 66.5882 90.9054 66.5795 90.9315C66.1528 91.8603 65.848 93.2926 65.8132 93.8915C65.8132 93.8915 65.8045 94.0565 65.9525 94.0999Z" fill="white"/>
<path d="M70.7682 90.3498C70.7682 90.9401 69.6971 91.2613 68.3822 91.2613C67.0672 91.2613 65.9961 90.9314 65.9961 90.3498C65.9961 89.7682 67.0672 89.4384 68.3822 89.4384C69.6971 89.4384 70.7682 89.7682 70.7682 90.3498Z" fill="#AECECE"/>
<path d="M70.4896 90.3499C70.4896 90.8013 69.5491 91.053 68.3822 91.053C67.2153 91.053 66.2748 90.8013 66.2748 90.3499C66.2748 89.8985 67.2153 89.6468 68.3822 89.6468C69.5491 89.6468 70.4896 89.8985 70.4896 90.3499V90.3499Z" fill="#D1EBED"/>
<path d="M67.1195 99.5686C67.0411 99.5513 66.9453 99.6034 66.9453 99.6815C66.9453 99.7422 67.015 99.7856 67.0759 99.8117C67.3111 99.9159 67.5897 99.9593 67.999 99.9679C68.0513 99.9679 68.1645 99.9506 68.1906 99.8985C68.2254 99.8464 68.1993 99.777 68.1471 99.7422C68.0948 99.7075 68.0339 99.6988 67.9729 99.6988C67.4765 99.6728 67.5026 99.6641 67.1195 99.5686Z" fill="white"/>
</g>
<path fill-rule="evenodd" clip-rule="evenodd" d="M66.3345 52.2083L66.3064 52.3127L61.7926 62.3835L61.3986 51.161L61.4237 51.0599L65.3883 50.9217L66.3345 52.2083Z" fill="#D16435"/>
<path fill-rule="evenodd" clip-rule="evenodd" d="M61.7843 62.378L58.584 61.2694L61.4105 51.1127L64.4334 52.3846L61.7843 62.378Z" fill="#F7A92D"/>
<path fill-rule="evenodd" clip-rule="evenodd" d="M63.7394 62.2055L61.7844 62.378L64.8364 52.4902L66.3313 52.2215L63.7394 62.2055Z" fill="#F39722"/>
<path fill-rule="evenodd" clip-rule="evenodd" d="M66.3345 52.2083L65.4964 51.0014L62.8787 50.4096L61.4206 51.0633L64.6376 52.1758L65.4048 51.3495L66.2314 52.2033L66.3345 52.2083Z" fill="#ED7423"/>
<path fill-rule="evenodd" clip-rule="evenodd" d="M65.1181 51.4561L62.5988 50.5384L62.9052 49.6641L65.5962 50.3545L65.1181 51.4561Z" fill="#F7A92D"/>
<path fill-rule="evenodd" clip-rule="evenodd" d="M65.1286 51.4292L65.5962 50.3544L65.7441 50.4975L65.7078 51.463L65.1286 51.4292Z" fill="#ED7423"/>
<path fill-rule="evenodd" clip-rule="evenodd" d="M63.2812 54.0411L61.2945 53.1934L60.1041 57.8684L62.0198 58.7679L63.2812 54.0411Z" fill="#ED7423"/>
<path fill-rule="evenodd" clip-rule="evenodd" d="M75.2872 62.155L77.8368 61.6762C78.4181 61.5674 78.6305 61.1903 78.5212 60.6111L76.9784 52.4545C76.8692 51.8753 76.3039 51.4905 75.7226 51.5993L73.5765 52.002C72.9953 52.1109 72.6091 52.6754 72.7183 53.2545L74.2611 61.4112C74.3693 61.9891 74.7048 62.2638 75.2872 62.155Z" fill="#C4DDEC"/>
<path d="M77.2849 54.0805L73.0248 54.8805L73.6442 58.1551L77.9043 57.3552L77.2849 54.0805Z" fill="#92ACCD"/>
<path fill-rule="evenodd" clip-rule="evenodd" d="M73.5093 49.7021L74.9421 49.4329L76.7995 52.0364L72.7319 52.8009L73.5093 49.7021Z" fill="#C4DDEC"/>
<path d="M74.8977 48.9373L73.37 49.2242L73.501 49.9168L75.0287 49.6299L74.8977 48.9373Z" fill="#C4DDEC"/>
<path fill-rule="evenodd" clip-rule="evenodd" d="M73.2643 49.3248L75.0327 48.9925L74.8445 47.994C74.5768 47.9046 74.2334 47.9163 73.9511 47.9645C73.6416 48.0172 73.2912 48.1415 73.0761 48.3264L73.2643 49.3248Z" fill="#92ACCD"/>
<path d="M75.0432 49.2819L73.3588 49.5981L73.4025 49.8294L75.0869 49.5131L75.0432 49.2819Z" fill="#A9BECB"/>
<path d="M74.4215 54.6192L73.6223 54.7693L74.2417 58.0439L75.0409 57.8939L74.4215 54.6192Z" fill="#A8BCD7"/>
<path d="M75.0412 57.8926L74.2421 58.0427L74.8931 61.4842L75.6922 61.3342L75.0412 57.8926Z" fill="#D4E6F1"/>
<path d="M74.0925 52.8772L73.2933 53.0272L73.6228 54.7689L74.4219 54.6188L74.0925 52.8772Z" fill="#D4E6F1"/>
<path fill-rule="evenodd" clip-rule="evenodd" d="M74.0014 50.0873L73.8002 50.126L73.2948 53.0276L74.0933 52.8774L74.0014 50.0873Z" fill="#D4E6F1"/>
<g clip-path="url(#clip4)">
<path d="M71.8241 57.4308C71.8241 57.4308 71.8241 57.4308 71.8241 57.4308V57.0568C71.8241 57.062 71.8238 57.0673 71.8237 57.0726C71.832 56.6446 71.5523 56.2145 70.9847 55.8879C69.8709 55.2469 68.0708 55.2469 66.9643 55.8879C66.4127 56.2074 66.1375 56.6259 66.1381 57.0446C66.1381 57.0433 66.138 57.0419 66.1381 57.0406V61.9551C66.1369 62.3779 66.4034 62.8013 66.9638 63.1239C68.0778 63.765 69.8778 63.765 70.9846 63.1239C71.5343 62.8054 71.8229 62.3887 71.8241 61.9713V61.5973V61.5973V57.4308V57.4308Z" fill="#ACABB1"/>
<path d="M70.998 58.2094C71.5478 57.8909 71.8229 57.4742 71.8241 57.0568V61.9713C71.8229 62.3887 71.5343 62.8055 70.9846 63.1239L70.998 58.2094Z" fill="#ACABB1"/>
<path d="M70.9846 63.124C69.8778 63.7651 68.0778 63.7651 66.9638 63.124C66.4034 62.8015 66.1368 62.378 66.1381 61.9553V57.0407C66.1369 57.4635 66.4168 57.8869 66.9773 58.2095C68.0912 58.8506 69.8913 58.8506 70.998 58.2095L70.9846 63.124Z" fill="#C6C5CB"/>
<path d="M70.9979 58.5835L70.9978 58.6026L70.9957 58.5846C69.8888 59.2245 68.0904 59.2242 66.9771 58.5835C66.4167 58.2609 66.1367 57.8375 66.1379 57.4147V61.5812C66.1367 62.004 66.4033 62.4274 66.9637 62.75C68.0776 63.3911 69.8777 63.391 70.9844 62.75L70.9866 62.7423L70.9866 62.7487C71.5349 62.4304 71.8228 62.0142 71.8239 61.5974V57.4309C71.8228 57.8483 71.5476 58.265 70.9979 58.5835Z" fill="#CD2A01"/>
<path d="M70.9979 58.5834L70.9866 62.7486C71.5349 62.4303 71.8228 62.0141 71.824 61.5973V57.4308C71.8228 57.8482 71.5476 58.265 70.9979 58.5834Z" fill="#6BA231"/>
<path d="M66.9638 62.75C68.0778 63.3911 69.8778 63.3911 70.9846 62.75L70.9958 58.5846C69.889 59.2245 68.0905 59.2242 66.9773 58.5835C66.4168 58.2609 66.1368 57.8375 66.1381 57.4147V61.5812C66.1368 62.004 66.4034 62.4274 66.9638 62.75Z" fill="#8CC153"/>
<path d="M70.9847 55.8879C72.0986 56.529 72.1045 57.5684 70.9979 58.2094C69.8912 58.8505 68.0911 58.8505 66.9771 58.2094C65.8633 57.5684 65.8575 56.529 66.9641 55.8879C68.0707 55.2469 69.8708 55.2469 70.9847 55.8879Z" fill="#E0E0E2"/>
<path d="M68.9902 58.4443C68.281 58.4443 67.6177 58.2822 67.1224 57.988C66.6754 57.7225 66.4289 57.3873 66.4285 57.0443C66.428 56.7043 66.6701 56.3722 67.1101 56.1091C67.6017 55.8152 68.2628 55.6533 68.9717 55.6533C69.6809 55.6533 70.3441 55.8153 70.8394 56.1095C71.2865 56.3751 71.5329 56.7103 71.5334 57.0534C71.5339 57.3933 71.2919 57.7253 70.8519 57.9884C70.3603 58.2824 69.6991 58.4443 68.9902 58.4443Z" fill="#D8D8DA"/>
<path d="M67.1102 56.2366C67.6018 55.9427 68.2629 55.7809 68.9718 55.7809C69.681 55.7809 70.3442 55.9429 70.8395 56.237C71.2592 56.4864 71.5021 56.7971 71.5307 57.118C71.5326 57.0965 71.5336 57.0749 71.5335 57.0533C71.5331 56.7102 71.2866 56.375 70.8395 56.1094C70.3443 55.8152 69.681 55.6532 68.9718 55.6532C68.2629 55.6532 67.6018 55.815 67.1102 56.109C66.6702 56.3721 66.4281 56.7042 66.4286 57.0441C66.4286 57.0651 66.4296 57.0861 66.4315 57.107C66.4597 56.7899 66.6982 56.483 67.1102 56.2366Z" fill="#C6C5CB"/>
<path d="M69.2074 57.0578C69.2083 56.9796 69.1753 56.9135 69.0978 56.8689C68.7857 56.6893 67.8716 56.9267 67.4188 57.189C67.24 57.2926 67.1779 57.3947 67.1801 57.4874C67.1801 57.4857 67.1798 57.484 67.1798 57.4822L67.1796 57.5593C67.1792 57.7037 67.3365 57.8258 67.4581 57.8958C67.6565 58.01 68.0961 58.1788 68.5488 57.9165C68.8904 57.7186 69.2066 57.3692 69.2073 57.1324L69.2075 57.0553C69.2075 57.0561 69.2074 57.057 69.2074 57.0578ZM68.4131 57.2656C68.3669 57.2389 68.3377 57.2062 68.3252 57.1719C68.3376 57.1382 68.3662 57.1061 68.4114 57.0799C68.5366 57.0073 68.7404 57.0073 68.8664 57.0799C68.9127 57.1065 68.9419 57.1393 68.9543 57.1736C68.9419 57.2073 68.9134 57.2394 68.8681 57.2656C68.7429 57.3381 68.5392 57.3381 68.4131 57.2656ZM67.3742 57.5014C67.3854 57.4582 67.416 57.4195 67.4678 57.3894C67.6383 57.2907 67.9705 57.3224 68.2099 57.4602C68.3353 57.5324 68.4102 57.6193 68.4288 57.6999C68.4176 57.7429 68.3869 57.7815 68.3352 57.8114C68.1647 57.9101 67.8324 57.8784 67.593 57.7407C67.4679 57.6686 67.393 57.5819 67.3742 57.5014Z" fill="#E0E0E2"/>
<path d="M68.8666 57.0029C68.7405 56.9303 68.5368 56.9303 68.4115 57.0029C68.3494 57.0389 68.3182 57.0861 68.3181 57.1333L68.3179 57.2104C68.318 57.1631 68.3491 57.116 68.4113 57.0799C68.5366 57.0074 68.7403 57.0074 68.8664 57.0799C68.9298 57.1164 68.9615 57.1644 68.9614 57.2122L68.9616 57.1352C68.9617 57.0873 68.93 57.0394 68.8666 57.0029Z" fill="#C6C5CB"/>
<path d="M68.4337 57.6622L68.4335 57.7392C68.4338 57.6484 68.356 57.5442 68.2099 57.4601C67.9705 57.3223 67.6382 57.2906 67.4678 57.3894C67.4013 57.4279 67.3693 57.4805 67.3691 57.5386L67.3694 57.4615C67.3695 57.4034 67.4016 57.3508 67.468 57.3123C67.6385 57.2136 67.9707 57.2453 68.2101 57.3831C68.3562 57.4671 68.434 57.5713 68.4337 57.6622Z" fill="#C6C5CB"/>
<path d="M69.2074 57.0554L69.2072 57.1325C69.2065 57.3693 68.8903 57.7187 68.5487 57.9166C68.096 58.1789 67.6564 58.0101 67.4579 57.8959C67.3364 57.8259 67.179 57.7038 67.1794 57.5594L67.1797 57.4823C67.1793 57.6267 67.3366 57.7489 67.4582 57.8188C67.6566 57.933 68.0962 58.1018 68.5489 57.8396C68.8905 57.6416 69.2067 57.2922 69.2074 57.0554Z" fill="#C6C5CB"/>
<path d="M69.0979 56.8689C69.41 57.0486 69.0019 57.5772 68.5491 57.8395C68.0963 58.1017 67.6568 57.933 67.4583 57.8187C67.2598 57.7045 66.9661 57.4513 67.4188 57.189C67.8716 56.9267 68.7857 56.6893 69.0979 56.8689ZM67.5931 57.7406C67.8325 57.8784 68.1648 57.9101 68.3352 57.8114C68.5056 57.7127 68.4496 57.5209 68.2102 57.3831C67.9708 57.2454 67.6386 57.2136 67.4681 57.3124C67.2977 57.4111 67.3536 57.6029 67.5931 57.7406ZM68.8667 57.0029C68.7406 56.9303 68.5369 56.9303 68.4116 57.0029C68.2864 57.0754 68.2871 57.193 68.4132 57.2656C68.5392 57.3381 68.743 57.3381 68.8682 57.2656C68.9934 57.193 68.9928 57.0754 68.8667 57.0029Z" fill="#E0E0E2"/>
<path d="M68.8648 57.0973C68.8648 57.0982 68.8648 57.0991 68.8647 57.1C68.8661 57.0671 68.845 57.0338 68.8013 57.0087C68.7169 56.9602 68.5805 56.9602 68.4967 57.0087C68.4549 57.0329 68.434 57.0646 68.4341 57.0964C68.4341 57.0963 68.4341 57.0962 68.4341 57.0961L68.4338 57.1731C68.4338 57.2052 68.4549 57.2373 68.4974 57.2617C68.5818 57.3102 68.7182 57.3102 68.802 57.2617C68.8437 57.2376 68.8645 57.206 68.8646 57.1744L68.8648 57.0973Z" fill="#E0E0E2"/>
<path d="M68.8647 57.0972L68.8645 57.1743C68.8644 57.2059 68.8435 57.2375 68.8019 57.2616C68.718 57.3102 68.5817 57.3102 68.4973 57.2616C68.4548 57.2372 68.4336 57.2051 68.4337 57.1731L68.4339 57.096C68.4339 57.128 68.455 57.1601 68.4975 57.1845C68.5819 57.2331 68.7183 57.2331 68.8021 57.1845C68.8438 57.1604 68.8646 57.1288 68.8647 57.0972Z" fill="#C6C5CB"/>
<path d="M68.8013 57.0086C68.8857 57.0572 68.8861 57.1359 68.8023 57.1845C68.7184 57.233 68.582 57.233 68.4976 57.1845C68.4133 57.1359 68.4128 57.0572 68.4967 57.0086C68.5805 56.9601 68.7169 56.9601 68.8013 57.0086Z" fill="#E0E0E2"/>
</g>
<g clip-path="url(#clip5)">
<path d="M106.184 52.3458C105.998 52.8534 106.109 53.4447 106.518 53.852C106.927 54.2593 107.52 54.37 108.029 54.1848C108.215 53.6772 108.104 53.0859 107.695 52.6786C107.286 52.2713 106.693 52.1605 106.184 52.3458Z" fill="#8A8B47"/>
<path d="M109.293 52.714C109.45 53.1446 109.356 53.6462 109.01 53.9916C108.663 54.3371 108.16 54.4311 107.728 54.274C107.57 53.8433 107.665 53.3418 108.011 52.9963C108.358 52.6508 108.861 52.5569 109.293 52.714Z" fill="#A7A951"/>
<path d="M102.484 58.5581V59.231C102.362 59.3566 102.199 59.4258 102.026 59.4258C101.83 59.4258 101.672 59.5886 101.672 59.7895C101.672 59.9903 101.83 60.1531 102.026 60.1531C102.388 60.1531 102.729 60.0083 102.985 59.7453C103.238 59.4861 103.649 59.486 103.902 59.7453C104.158 60.0083 104.499 60.1531 104.861 60.1531C105.224 60.1531 105.564 60.0083 105.821 59.7453C106.073 59.4861 106.484 59.486 106.737 59.7453C106.993 60.0083 107.334 60.1531 107.696 60.1531L108.666 58.5581H102.484V58.5581Z" fill="#D5A150"/>
<path d="M113.367 59.4258C113.194 59.4258 113.031 59.3566 112.909 59.231H112.908L112.909 59.231V58.5581H107.696V60.1531C108.059 60.1531 108.399 60.0083 108.656 59.7453C108.908 59.4861 109.32 59.486 109.572 59.7453C109.828 60.0083 110.169 60.1531 110.532 60.1531C110.894 60.1531 111.235 60.0083 111.491 59.7453C111.744 59.4861 112.155 59.486 112.407 59.7453C112.664 60.0083 113.004 60.1531 113.367 60.1531C113.562 60.1531 113.721 59.9903 113.721 59.7895C113.721 59.5886 113.562 59.4258 113.367 59.4258Z" fill="#AD712C"/>
<path d="M102.849 57.7242C102.558 57.7242 102.321 57.9599 102.321 58.2507V58.2663C102.321 58.3422 102.297 58.4166 102.25 58.4763C102.21 58.5274 102.173 58.594 102.156 58.7007C102.093 59.1198 102.717 59.4592 103.167 59.048L103.404 58.8311C103.641 59.0482 103.792 59.233 104.114 59.233C104.436 59.2328 104.586 59.0493 104.824 58.8311C105.062 59.0481 105.212 59.233 105.535 59.233C105.857 59.2328 106.006 59.0493 106.245 58.8311C106.482 59.0482 106.633 59.233 106.955 59.233C107.277 59.2328 107.458 59.0493 107.697 58.8311L108.909 57.7242H102.849Z" fill="#8D472E"/>
<path d="M113.237 58.7007C113.221 58.5966 113.185 58.5307 113.146 58.48C113.098 58.4178 113.073 58.3409 113.075 58.2624C113.081 57.9671 112.843 57.7242 112.547 57.7242H107.696V58.8311C107.935 59.0493 108.116 59.2328 108.438 59.233C108.76 59.233 108.911 59.0482 109.148 58.8311C109.387 59.0493 109.536 59.2328 109.858 59.233C110.181 59.233 110.331 59.0481 110.568 58.8311C110.807 59.0493 110.957 59.2328 111.279 59.233C111.601 59.233 111.752 59.0482 111.989 58.8311L112.226 59.048C112.675 59.4592 113.3 59.1198 113.237 58.7007Z" fill="#6F3D28"/>
<path d="M102.484 56.8179V57.4909C102.362 57.6165 102.199 57.6857 102.026 57.6857C101.83 57.6856 101.672 57.8485 101.672 58.0493C101.672 58.2501 101.83 58.4129 102.026 58.4129C102.388 58.4129 102.729 58.2681 102.985 58.0051C103.238 57.7459 103.649 57.7459 103.902 58.0052C104.158 58.2681 104.499 58.4129 104.861 58.4129C105.224 58.4129 105.564 58.2681 105.821 58.0051C106.073 57.7459 106.484 57.7459 106.737 58.0052C106.993 58.2681 107.334 58.4129 107.696 58.4129L108.666 56.8179H102.484V56.8179Z" fill="#D5A150"/>
<path d="M113.367 57.6858C113.194 57.6858 113.031 57.6166 112.909 57.491H112.908L112.909 57.491V56.818H107.696V58.4131C108.059 58.4131 108.399 58.2683 108.656 58.0053C108.908 57.746 109.32 57.746 109.572 58.0053C109.828 58.2683 110.169 58.4131 110.532 58.4131C110.894 58.4131 111.235 58.2683 111.491 58.0053C111.744 57.746 112.155 57.746 112.407 58.0053C112.664 58.2683 113.004 58.4131 113.367 58.4131C113.562 58.4131 113.721 58.2503 113.721 58.0494C113.721 57.8486 113.562 57.6858 113.367 57.6858Z" fill="#AD712C"/>
<path d="M102.849 55.9842C102.558 55.9842 102.321 56.2199 102.321 56.5107V56.5263C102.321 56.6022 102.297 56.6766 102.25 56.7363C102.21 56.7874 102.173 56.854 102.156 56.9607C102.093 57.3798 102.717 57.7193 103.167 57.308L103.404 57.0912C103.641 57.3082 103.792 57.4931 104.114 57.4931C104.436 57.4929 104.586 57.3093 104.824 57.0912C105.062 57.3082 105.212 57.4931 105.535 57.4931C105.857 57.4929 106.006 57.3093 106.245 57.0912C106.482 57.3082 106.633 57.4931 106.955 57.4931C107.277 57.4929 107.458 57.3093 107.697 57.0912L108.666 55.9842H102.849V55.9842Z" fill="#8D472E"/>
<path d="M113.237 56.9607C113.221 56.8566 113.185 56.7907 113.146 56.7401C113.098 56.6778 113.073 56.6009 113.075 56.5224C113.081 56.2271 112.843 55.9842 112.547 55.9842H107.696V57.0912C107.935 57.3093 108.116 57.4928 108.438 57.4931C108.76 57.4931 108.911 57.3082 109.148 57.0912C109.387 57.3093 109.536 57.4928 109.858 57.4931C110.181 57.4931 110.331 57.3082 110.568 57.0912C110.807 57.3093 110.957 57.4928 111.279 57.4931C111.601 57.4931 111.752 57.3082 111.989 57.0912L112.226 57.308C112.675 57.7193 113.3 57.3798 113.237 56.9607Z" fill="#6F3D28"/>
<path d="M102.484 55.078V55.7509C102.362 55.8765 102.199 55.9457 102.026 55.9457C101.83 55.9457 101.672 56.1085 101.672 56.3093C101.672 56.5102 101.83 56.673 102.026 56.673C102.388 56.673 102.729 56.5281 102.985 56.2652C103.238 56.0059 103.649 56.0059 103.902 56.2652C104.158 56.5281 104.499 56.673 104.861 56.673C105.224 56.673 105.564 56.5281 105.821 56.2652C106.073 56.0059 106.484 56.0059 106.737 56.2652C106.993 56.5281 107.334 56.673 107.696 56.673L108.666 55.0779H102.484V55.078Z" fill="#D5A150"/>
<path d="M113.367 55.9456C113.194 55.9456 113.031 55.8765 112.909 55.7509H112.908L112.909 55.7508V55.0779H107.696V56.6729C108.059 56.6729 108.399 56.5281 108.656 56.2651C108.908 56.0059 109.32 56.0059 109.572 56.2652C109.828 56.5281 110.169 56.6729 110.532 56.6729C110.894 56.6729 111.235 56.5281 111.491 56.2651C111.744 56.0059 112.155 56.0059 112.407 56.2652C112.664 56.5281 113.004 56.6729 113.367 56.6729C113.562 56.6729 113.721 56.5101 113.721 56.3093C113.721 56.1085 113.562 55.9456 113.367 55.9456Z" fill="#AD712C"/>
<path d="M102.849 54.2442C102.558 54.2442 102.321 54.4799 102.321 54.7706V54.7863C102.321 54.8622 102.297 54.9366 102.25 54.9963C102.21 55.0474 102.173 55.114 102.156 55.2207C102.093 55.6398 102.717 55.9792 103.167 55.568L103.404 55.3511C103.641 55.5682 103.792 55.753 104.114 55.753C104.436 55.7528 104.586 55.5693 104.824 55.3511C105.062 55.5681 105.212 55.753 105.535 55.753C105.857 55.7528 106.006 55.5693 106.245 55.3511C106.482 55.5682 106.633 55.753 106.955 55.753C107.277 55.7528 107.458 55.5693 107.697 55.3511L108.666 54.2442H102.849V54.2442Z" fill="#8D472E"/>
<path d="M113.237 55.2207C113.221 55.1166 113.185 55.0507 113.146 55C113.098 54.9378 113.073 54.8609 113.075 54.7824C113.081 54.4871 112.843 54.2442 112.547 54.2442H107.696V55.3511C107.935 55.5693 108.116 55.7528 108.438 55.753C108.76 55.753 108.911 55.5682 109.148 55.3511C109.387 55.5693 109.536 55.7528 109.858 55.753C110.181 55.753 110.331 55.5681 110.568 55.3511C110.807 55.5693 110.957 55.7528 111.279 55.753C111.601 55.753 111.752 55.5682 111.989 55.3511L112.226 55.568C112.675 55.9792 113.3 55.6398 113.237 55.2207Z" fill="#6F3D28"/>
<path d="M107.238 53.9867C106.709 53.4438 105.848 53.4439 105.319 53.9867C105.197 54.1123 105.034 54.1815 104.861 54.1815C104.688 54.1815 104.525 54.1123 104.403 53.9867C103.874 53.4438 103.013 53.4439 102.484 53.9867C102.362 54.1123 102.199 54.1815 102.026 54.1815C101.83 54.1815 101.672 54.3443 101.672 54.5451C101.672 54.7459 101.83 54.9087 102.026 54.9087C102.388 54.9087 102.729 54.7639 102.985 54.5009C103.238 54.2417 103.649 54.2417 103.902 54.501C104.158 54.7639 104.499 54.9087 104.861 54.9087C105.224 54.9087 105.564 54.7639 105.821 54.5009C106.073 54.2417 106.484 54.2417 106.737 54.501C106.993 54.7639 107.334 54.9087 107.696 54.9087L107.734 54.8776C107.957 54.6912 107.939 54.3429 107.696 54.1814C107.523 54.1815 107.361 54.1123 107.238 53.9867Z" fill="#D5A150"/>
<path d="M113.367 54.1815C113.194 54.1815 113.031 54.1123 112.909 53.9867C112.379 53.4438 111.519 53.4439 110.99 53.9867C110.867 54.1123 110.705 54.1815 110.532 54.1815C110.359 54.1815 110.196 54.1123 110.073 53.9867C109.544 53.4438 108.684 53.4439 108.155 53.9867C108.032 54.1123 107.869 54.1815 107.696 54.1815V54.9088C108.059 54.9088 108.399 54.7639 108.656 54.501C108.908 54.2417 109.32 54.2417 109.572 54.501C109.828 54.7639 110.169 54.9088 110.532 54.9088C110.894 54.9088 111.235 54.7639 111.491 54.501C111.744 54.2417 112.155 54.2417 112.407 54.501C112.664 54.7639 113.004 54.9088 113.367 54.9088C113.562 54.9088 113.721 54.746 113.721 54.5451C113.721 54.3443 113.562 54.1815 113.367 54.1815Z" fill="#AD712C"/>
</g>
<g clip-path="url(#clip6)">
<path d="M96.7704 54.2224C96.5846 54.7301 96.6957 55.3214 97.1043 55.7287C97.5129 56.136 98.1061 56.2467 98.6154 56.0615C98.8011 55.5538 98.6901 54.9626 98.2815 54.5553C97.8729 54.148 97.2797 54.0372 96.7704 54.2224Z" fill="#8A8B47"/>
<path d="M99.8793 54.5907C100.037 55.0213 99.9427 55.5228 99.596 55.8683C99.2495 56.2138 98.7463 56.3077 98.3143 56.1506C98.1567 55.72 98.2509 55.2185 98.5975 54.873C98.9442 54.5275 99.4473 54.4336 99.8793 54.5907Z" fill="#A7A951"/>
<path d="M93.0707 60.4347V61.1077C92.9483 61.2333 92.7855 61.3025 92.6125 61.3025C92.4167 61.3025 92.2581 61.4653 92.2581 61.6661C92.2581 61.867 92.4167 62.0298 92.6125 62.0298C92.9748 62.0298 93.3155 61.8849 93.5718 61.622C93.8244 61.3627 94.2356 61.3627 94.4882 61.622C94.7445 61.8849 95.0852 62.0298 95.4476 62.0298C95.81 62.0298 96.1506 61.8849 96.407 61.622C96.6596 61.3627 97.0707 61.3627 97.3234 61.622C97.5797 61.8849 97.9204 62.0298 98.2827 62.0298L99.2525 60.4347H93.0707V60.4347Z" fill="#D5A150"/>
<path d="M103.953 61.3025C103.78 61.3025 103.617 61.2333 103.495 61.1077H103.494L103.495 61.1077V60.4347H98.2828V62.0298C98.6452 62.0298 98.9859 61.8849 99.2422 61.622C99.4948 61.3627 99.9059 61.3627 100.159 61.622C100.415 61.8849 100.756 62.0298 101.118 62.0298C101.48 62.0298 101.821 61.8849 102.077 61.622C102.33 61.3627 102.741 61.3627 102.994 61.622C103.25 61.8849 103.591 62.0298 103.953 62.0298C104.149 62.0298 104.308 61.867 104.308 61.6661C104.308 61.4653 104.149 61.3025 103.953 61.3025Z" fill="#AD712C"/>
<path d="M93.4357 59.6009C93.1441 59.6009 92.9076 59.8366 92.9076 60.1273V60.143C92.9076 60.2189 92.8834 60.2933 92.8364 60.3529C92.7961 60.4041 92.7591 60.4707 92.7422 60.5773C92.6795 60.9964 93.3038 61.3359 93.7533 60.9246L93.9904 60.7078C94.2277 60.9249 94.3783 61.1097 94.7008 61.1097C95.0225 61.1095 95.1724 60.926 95.4109 60.7078C95.6481 60.9248 95.7987 61.1097 96.1212 61.1097C96.443 61.1095 96.5928 60.926 96.8313 60.7078C97.0686 60.9249 97.2192 61.1097 97.5417 61.1097C97.8635 61.1095 98.0444 60.926 98.2829 60.7078L99.4951 59.6009H93.4357Z" fill="#8D472E"/>
<path d="M103.824 60.5774C103.807 60.4733 103.771 60.4074 103.732 60.3567C103.684 60.2945 103.659 60.2176 103.661 60.1391C103.668 59.8438 103.429 59.6009 103.133 59.6009H98.2828V60.7078C98.5214 60.926 98.7023 61.1095 99.024 61.1097C99.3465 61.1097 99.4971 60.9249 99.7344 60.7078C99.9729 60.926 100.123 61.1095 100.445 61.1097C100.767 61.1097 100.918 60.9248 101.155 60.7078C101.393 60.926 101.543 61.1095 101.865 61.1097C102.187 61.1097 102.338 60.9249 102.575 60.7078L102.812 60.9246C103.262 61.3359 103.886 60.9964 103.824 60.5774Z" fill="#6F3D28"/>
<path d="M93.0707 58.6946V59.3676C92.9483 59.4932 92.7855 59.5623 92.6125 59.5623C92.4167 59.5623 92.2581 59.7251 92.2581 59.926C92.2581 60.1268 92.4167 60.2896 92.6125 60.2896C92.9748 60.2896 93.3155 60.1448 93.5718 59.8818C93.8244 59.6226 94.2356 59.6225 94.4882 59.8818C94.7445 60.1448 95.0852 60.2896 95.4476 60.2896C95.81 60.2896 96.1506 60.1448 96.407 59.8818C96.6596 59.6226 97.0707 59.6225 97.3234 59.8818C97.5797 60.1448 97.9204 60.2896 98.2827 60.2896L99.2525 58.6945H93.0707V58.6946Z" fill="#D5A150"/>
<path d="M103.953 59.5624C103.78 59.5624 103.617 59.4933 103.495 59.3677H103.494L103.495 59.3677V58.6947H98.2828V60.2898C98.6452 60.2898 98.9859 60.1449 99.2422 59.882C99.4948 59.6227 99.9059 59.6227 100.159 59.882C100.415 60.1449 100.756 60.2898 101.118 60.2898C101.48 60.2898 101.821 60.1449 102.077 59.882C102.33 59.6227 102.741 59.6227 102.994 59.882C103.25 60.1449 103.591 60.2898 103.953 60.2898C104.149 60.2898 104.308 60.127 104.308 59.9261C104.308 59.7253 104.149 59.5624 103.953 59.5624Z" fill="#AD712C"/>
<path d="M93.4357 57.8609C93.1441 57.8609 92.9076 58.0966 92.9076 58.3873V58.403C92.9076 58.4789 92.8834 58.5533 92.8364 58.613C92.7961 58.6641 92.7591 58.7307 92.7422 58.8374C92.6795 59.2565 93.3038 59.5959 93.7533 59.1847L93.9904 58.9678C94.2277 59.1849 94.3783 59.3698 94.7008 59.3698C95.0225 59.3695 95.1724 59.186 95.4109 58.9678C95.6481 59.1848 95.7987 59.3698 96.1212 59.3698C96.443 59.3695 96.5928 59.186 96.8313 58.9678C97.0686 59.1849 97.2192 59.3698 97.5417 59.3698C97.8635 59.3695 98.0444 59.186 98.2829 58.9678L99.2527 57.8609H93.4357V57.8609Z" fill="#8D472E"/>
<path d="M103.824 58.8374C103.807 58.7333 103.771 58.6674 103.732 58.6167C103.684 58.5545 103.659 58.4776 103.661 58.3991C103.668 58.1038 103.429 57.8609 103.133 57.8609H98.2828V58.9678C98.5214 59.186 98.7023 59.3695 99.024 59.3697C99.3465 59.3697 99.4971 59.1849 99.7344 58.9678C99.9729 59.186 100.123 59.3695 100.445 59.3697C100.767 59.3697 100.918 59.1848 101.155 58.9678C101.393 59.186 101.543 59.3695 101.865 59.3697C102.187 59.3697 102.338 59.1849 102.575 58.9678L102.812 59.1847C103.262 59.5959 103.886 59.2565 103.824 58.8374Z" fill="#6F3D28"/>
<path d="M93.0707 56.9546V57.6276C92.9483 57.7532 92.7855 57.8224 92.6125 57.8224C92.4167 57.8223 92.2581 57.9852 92.2581 58.186C92.2581 58.3868 92.4167 58.5496 92.6125 58.5496C92.9748 58.5496 93.3155 58.4048 93.5718 58.1418C93.8244 57.8826 94.2356 57.8826 94.4882 58.1419C94.7445 58.4048 95.0852 58.5496 95.4476 58.5496C95.81 58.5496 96.1506 58.4048 96.407 58.1418C96.6596 57.8826 97.0707 57.8826 97.3234 58.1419C97.5797 58.4048 97.9204 58.5496 98.2827 58.5496L99.2525 56.9546H93.0707V56.9546Z" fill="#D5A150"/>
<path d="M103.953 57.8223C103.78 57.8223 103.617 57.7531 103.495 57.6275H103.494L103.495 57.6275V56.9546H98.2828V58.5496C98.6452 58.5496 98.9859 58.4048 99.2422 58.1418C99.4948 57.8826 99.9059 57.8825 100.159 58.1418C100.415 58.4048 100.756 58.5496 101.118 58.5496C101.48 58.5496 101.821 58.4048 102.077 58.1418C102.33 57.8826 102.741 57.8825 102.994 58.1418C103.25 58.4048 103.591 58.5496 103.953 58.5496C104.149 58.5496 104.308 58.3868 104.308 58.186C104.308 57.9851 104.149 57.8223 103.953 57.8223Z" fill="#AD712C"/>
<path d="M93.4357 56.1209C93.1441 56.1209 92.9076 56.3566 92.9076 56.6473V56.663C92.9076 56.7389 92.8834 56.8132 92.8364 56.8729C92.7961 56.9241 92.7591 56.9907 92.7422 57.0974C92.6795 57.5164 93.3038 57.8559 93.7533 57.4446L93.9904 57.2278C94.2277 57.4449 94.3783 57.6297 94.7008 57.6297C95.0225 57.6295 95.1724 57.446 95.4109 57.2278C95.6481 57.4448 95.7987 57.6297 96.1212 57.6297C96.443 57.6295 96.5928 57.446 96.8313 57.2278C97.0686 57.4449 97.2192 57.6297 97.5417 57.6297C97.8635 57.6295 98.0444 57.446 98.2829 57.2278L99.2527 56.1209H93.4357V56.1209Z" fill="#8D472E"/>
<path d="M103.824 57.0974C103.807 56.9933 103.771 56.9273 103.732 56.8767C103.684 56.8144 103.659 56.7376 103.661 56.6591C103.668 56.3638 103.429 56.1209 103.133 56.1209H98.2828V57.2278C98.5214 57.4459 98.7023 57.6295 99.024 57.6297C99.3465 57.6297 99.4971 57.4448 99.7344 57.2278C99.9729 57.4459 100.123 57.6295 100.445 57.6297C100.767 57.6297 100.918 57.4448 101.155 57.2278C101.393 57.4459 101.543 57.6295 101.865 57.6297C102.187 57.6297 102.338 57.4448 102.575 57.2278L102.812 57.4446C103.262 57.8559 103.886 57.5164 103.824 57.0974Z" fill="#6F3D28"/>
<path d="M97.8246 55.8634C97.2956 55.3205 96.4348 55.3205 95.9058 55.8633C95.7834 55.9889 95.6207 56.0581 95.4476 56.0581C95.2746 56.0581 95.1118 55.9889 94.9895 55.8634C94.4604 55.3205 93.5997 55.3205 93.0707 55.8633C92.9483 55.9889 92.7855 56.0581 92.6125 56.0581C92.4167 56.0581 92.2581 56.2209 92.2581 56.4218C92.2581 56.6226 92.4167 56.7854 92.6125 56.7854C92.9748 56.7854 93.3155 56.6406 93.5718 56.3776C93.8244 56.1184 94.2356 56.1183 94.4882 56.3776C94.7445 56.6406 95.0852 56.7854 95.4476 56.7854C95.81 56.7854 96.1506 56.6406 96.407 56.3776C96.6596 56.1184 97.0707 56.1183 97.3234 56.3776C97.5797 56.6406 97.9204 56.7854 98.2827 56.7854L98.32 56.7543C98.5437 56.5679 98.525 56.2196 98.2827 56.0581C98.1097 56.0581 97.947 55.9889 97.8246 55.8634Z" fill="#D5A150"/>
<path d="M103.953 56.0581C103.78 56.0581 103.617 55.9889 103.495 55.8634C102.966 55.3205 102.105 55.3205 101.576 55.8633C101.454 55.9889 101.291 56.0581 101.118 56.0581C100.945 56.0581 100.782 55.9889 100.66 55.8634C100.131 55.3205 99.27 55.3205 98.741 55.8633C98.6186 55.9889 98.4559 56.0581 98.2828 56.0581V56.7854C98.6452 56.7854 98.9859 56.6406 99.2422 56.3776C99.4948 56.1184 99.9059 56.1184 100.159 56.3777C100.415 56.6406 100.756 56.7854 101.118 56.7854C101.48 56.7854 101.821 56.6406 102.077 56.3776C102.33 56.1184 102.741 56.1184 102.994 56.3777C103.25 56.6406 103.591 56.7854 103.953 56.7854C104.149 56.7854 104.308 56.6226 104.308 56.4218C104.308 56.2209 104.149 56.0581 103.953 56.0581Z" fill="#AD712C"/>
</g>
<g clip-path="url(#clip7)">
<path d="M114.091 54.2224C113.906 54.7301 114.017 55.3214 114.425 55.7287C114.834 56.136 115.427 56.2467 115.936 56.0615C116.122 55.5538 116.011 54.9626 115.603 54.5553C115.194 54.148 114.601 54.0372 114.091 54.2224Z" fill="#8A8B47"/>
<path d="M117.2 54.5907C117.358 55.0213 117.264 55.5228 116.917 55.8683C116.571 56.2138 116.067 56.3077 115.635 56.1506C115.478 55.72 115.572 55.2185 115.919 54.873C116.265 54.5275 116.768 54.4336 117.2 54.5907Z" fill="#A7A951"/>
<path d="M110.392 60.4347V61.1077C110.269 61.2333 110.107 61.3025 109.934 61.3025C109.738 61.3025 109.579 61.4653 109.579 61.6661C109.579 61.867 109.738 62.0298 109.934 62.0298C110.296 62.0298 110.637 61.8849 110.893 61.622C111.145 61.3627 111.557 61.3627 111.809 61.622C112.066 61.8849 112.406 62.0298 112.769 62.0298C113.131 62.0298 113.472 61.8849 113.728 61.622C113.981 61.3627 114.392 61.3627 114.644 61.622C114.901 61.8849 115.241 62.0298 115.604 62.0298L116.574 60.4347H110.392V60.4347Z" fill="#D5A150"/>
<path d="M121.274 61.3025C121.101 61.3025 120.938 61.2333 120.816 61.1077H120.815L120.816 61.1077V60.4347H115.604V62.0298C115.966 62.0298 116.307 61.8849 116.563 61.622C116.816 61.3627 117.227 61.3627 117.48 61.622C117.736 61.8849 118.077 62.0298 118.439 62.0298C118.801 62.0298 119.142 61.8849 119.398 61.622C119.651 61.3627 120.062 61.3627 120.315 61.622C120.571 61.8849 120.912 62.0298 121.274 62.0298C121.47 62.0298 121.629 61.867 121.629 61.6661C121.629 61.4653 121.47 61.3025 121.274 61.3025Z" fill="#AD712C"/>
<path d="M110.757 59.6009C110.465 59.6009 110.229 59.8366 110.229 60.1273V60.143C110.229 60.2189 110.204 60.2933 110.157 60.3529C110.117 60.4041 110.08 60.4707 110.063 60.5773C110 60.9964 110.625 61.3359 111.074 60.9246L111.311 60.7078C111.549 60.9249 111.699 61.1097 112.022 61.1097C112.344 61.1095 112.493 60.926 112.732 60.7078C112.969 60.9248 113.12 61.1097 113.442 61.1097C113.764 61.1095 113.914 60.926 114.152 60.7078C114.39 60.9249 114.54 61.1097 114.863 61.1097C115.185 61.1095 115.365 60.926 115.604 60.7078L116.816 59.6009H110.757Z" fill="#8D472E"/>
<path d="M121.145 60.5774C121.128 60.4733 121.092 60.4074 121.053 60.3567C121.005 60.2945 120.98 60.2176 120.982 60.1391C120.989 59.8438 120.75 59.6009 120.454 59.6009H115.604V60.7078C115.842 60.926 116.023 61.1095 116.345 61.1097C116.668 61.1097 116.818 60.9249 117.055 60.7078C117.294 60.926 117.444 61.1095 117.766 61.1097C118.088 61.1097 118.239 60.9248 118.476 60.7078C118.714 60.926 118.864 61.1095 119.186 61.1097C119.509 61.1097 119.659 60.9249 119.896 60.7078L120.133 60.9246C120.583 61.3359 121.207 60.9964 121.145 60.5774Z" fill="#6F3D28"/>
<path d="M110.392 58.6946V59.3676C110.269 59.4932 110.107 59.5623 109.934 59.5623C109.738 59.5623 109.579 59.7251 109.579 59.926C109.579 60.1268 109.738 60.2896 109.934 60.2896C110.296 60.2896 110.637 60.1448 110.893 59.8818C111.145 59.6226 111.557 59.6225 111.809 59.8818C112.066 60.1448 112.406 60.2896 112.769 60.2896C113.131 60.2896 113.472 60.1448 113.728 59.8818C113.981 59.6226 114.392 59.6225 114.644 59.8818C114.901 60.1448 115.241 60.2896 115.604 60.2896L116.574 58.6945H110.392V58.6946Z" fill="#D5A150"/>
<path d="M121.274 59.5624C121.101 59.5624 120.938 59.4933 120.816 59.3677H120.815L120.816 59.3677V58.6947H115.604V60.2898C115.966 60.2898 116.307 60.1449 116.563 59.882C116.816 59.6227 117.227 59.6227 117.48 59.882C117.736 60.1449 118.077 60.2898 118.439 60.2898C118.801 60.2898 119.142 60.1449 119.398 59.882C119.651 59.6227 120.062 59.6227 120.315 59.882C120.571 60.1449 120.912 60.2898 121.274 60.2898C121.47 60.2898 121.629 60.127 121.629 59.9261C121.629 59.7253 121.47 59.5624 121.274 59.5624Z" fill="#AD712C"/>
<path d="M110.757 57.8609C110.465 57.8609 110.229 58.0966 110.229 58.3873V58.403C110.229 58.4789 110.204 58.5533 110.157 58.613C110.117 58.6641 110.08 58.7307 110.063 58.8374C110 59.2565 110.625 59.5959 111.074 59.1847L111.311 58.9678C111.549 59.1849 111.699 59.3698 112.022 59.3698C112.344 59.3695 112.493 59.186 112.732 58.9678C112.969 59.1848 113.12 59.3698 113.442 59.3698C113.764 59.3695 113.914 59.186 114.152 58.9678C114.39 59.1849 114.54 59.3698 114.863 59.3698C115.185 59.3695 115.365 59.186 115.604 58.9678L116.574 57.8609H110.757V57.8609Z" fill="#8D472E"/>
<path d="M121.145 58.8374C121.128 58.7333 121.092 58.6674 121.053 58.6167C121.005 58.5545 120.98 58.4776 120.982 58.3991C120.989 58.1038 120.75 57.8609 120.454 57.8609H115.604V58.9678C115.842 59.186 116.023 59.3695 116.345 59.3697C116.668 59.3697 116.818 59.1849 117.055 58.9678C117.294 59.186 117.444 59.3695 117.766 59.3697C118.088 59.3697 118.239 59.1848 118.476 58.9678C118.714 59.186 118.864 59.3695 119.186 59.3697C119.509 59.3697 119.659 59.1849 119.896 58.9678L120.133 59.1847C120.583 59.5959 121.207 59.2565 121.145 58.8374Z" fill="#6F3D28"/>
<path d="M110.392 56.9546V57.6276C110.269 57.7532 110.107 57.8224 109.934 57.8224C109.738 57.8223 109.579 57.9852 109.579 58.186C109.579 58.3868 109.738 58.5496 109.934 58.5496C110.296 58.5496 110.637 58.4048 110.893 58.1418C111.145 57.8826 111.557 57.8826 111.809 58.1419C112.066 58.4048 112.406 58.5496 112.769 58.5496C113.131 58.5496 113.472 58.4048 113.728 58.1418C113.981 57.8826 114.392 57.8826 114.644 58.1419C114.901 58.4048 115.241 58.5496 115.604 58.5496L116.574 56.9546H110.392V56.9546Z" fill="#D5A150"/>
<path d="M121.274 57.8223C121.101 57.8223 120.938 57.7531 120.816 57.6275H120.815L120.816 57.6275V56.9546H115.604V58.5496C115.966 58.5496 116.307 58.4048 116.563 58.1418C116.816 57.8826 117.227 57.8825 117.48 58.1418C117.736 58.4048 118.077 58.5496 118.439 58.5496C118.801 58.5496 119.142 58.4048 119.398 58.1418C119.651 57.8826 120.062 57.8825 120.315 58.1418C120.571 58.4048 120.912 58.5496 121.274 58.5496C121.47 58.5496 121.629 58.3868 121.629 58.186C121.629 57.9851 121.47 57.8223 121.274 57.8223Z" fill="#AD712C"/>
<path d="M110.757 56.1209C110.465 56.1209 110.229 56.3566 110.229 56.6473V56.663C110.229 56.7389 110.204 56.8132 110.157 56.8729C110.117 56.9241 110.08 56.9907 110.063 57.0974C110 57.5164 110.625 57.8559 111.074 57.4446L111.311 57.2278C111.549 57.4449 111.699 57.6297 112.022 57.6297C112.344 57.6295 112.493 57.446 112.732 57.2278C112.969 57.4448 113.12 57.6297 113.442 57.6297C113.764 57.6295 113.914 57.446 114.152 57.2278C114.39 57.4449 114.54 57.6297 114.863 57.6297C115.185 57.6295 115.365 57.446 115.604 57.2278L116.574 56.1209H110.757V56.1209Z" fill="#8D472E"/>
<path d="M121.145 57.0974C121.128 56.9933 121.092 56.9273 121.053 56.8767C121.005 56.8144 120.98 56.7376 120.982 56.6591C120.989 56.3638 120.75 56.1209 120.454 56.1209H115.604V57.2278C115.842 57.4459 116.023 57.6295 116.345 57.6297C116.668 57.6297 116.818 57.4448 117.055 57.2278C117.294 57.4459 117.444 57.6295 117.766 57.6297C118.088 57.6297 118.239 57.4448 118.476 57.2278C118.714 57.4459 118.864 57.6295 119.186 57.6297C119.509 57.6297 119.659 57.4448 119.896 57.2278L120.133 57.4446C120.583 57.8559 121.207 57.5164 121.145 57.0974Z" fill="#6F3D28"/>
<path d="M115.146 55.8634C114.617 55.3205 113.756 55.3205 113.227 55.8633C113.104 55.9889 112.942 56.0581 112.769 56.0581C112.596 56.0581 112.433 55.9889 112.311 55.8634C111.781 55.3205 110.921 55.3205 110.392 55.8633C110.269 55.9889 110.107 56.0581 109.934 56.0581C109.738 56.0581 109.579 56.2209 109.579 56.4218C109.579 56.6226 109.738 56.7854 109.934 56.7854C110.296 56.7854 110.637 56.6406 110.893 56.3776C111.145 56.1184 111.557 56.1183 111.809 56.3776C112.066 56.6406 112.406 56.7854 112.769 56.7854C113.131 56.7854 113.472 56.6406 113.728 56.3776C113.981 56.1184 114.392 56.1183 114.644 56.3776C114.901 56.6406 115.241 56.7854 115.604 56.7854L115.641 56.7543C115.865 56.5679 115.846 56.2196 115.604 56.0581C115.431 56.0581 115.268 55.9889 115.146 55.8634Z" fill="#D5A150"/>
<path d="M121.274 56.0581C121.101 56.0581 120.938 55.9889 120.816 55.8634C120.287 55.3205 119.426 55.3205 118.897 55.8633C118.775 55.9889 118.612 56.0581 118.439 56.0581C118.266 56.0581 118.103 55.9889 117.981 55.8634C117.452 55.3205 116.591 55.3205 116.062 55.8633C115.94 55.9889 115.777 56.0581 115.604 56.0581V56.7854C115.966 56.7854 116.307 56.6406 116.563 56.3776C116.816 56.1184 117.227 56.1184 117.48 56.3777C117.736 56.6406 118.077 56.7854 118.439 56.7854C118.801 56.7854 119.142 56.6406 119.398 56.3776C119.651 56.1184 120.062 56.1184 120.315 56.3777C120.571 56.6406 120.912 56.7854 121.274 56.7854C121.47 56.7854 121.629 56.6226 121.629 56.4218C121.629 56.2209 121.47 56.0581 121.274 56.0581Z" fill="#AD712C"/>
</g>
<path d="M94.1219 124.332C94.1219 123.664 93.5787 123.123 92.9082 123.123C92.8585 123.123 92.8091 123.126 92.7603 123.132C92.7298 123.126 92.6981 123.123 92.6658 123.123H83.9292C83.8969 123.123 83.8652 123.126 83.8345 123.132C83.786 123.126 83.7367 123.123 83.6866 123.123C83.0163 123.123 82.4731 123.664 82.4731 124.332C82.4731 124.917 82.8899 125.406 83.4438 125.518V133.283C83.4438 133.55 83.6612 133.767 83.9292 133.767H92.6658C92.9338 133.767 93.1514 133.55 93.1514 133.283V125.518C93.7052 125.406 94.1219 124.917 94.1219 124.332Z" fill="#F4BE8E"/>
<path d="M94.122 123.365H93.6364V124.332H94.122V123.365Z" fill="#F4BE8E"/>
<path d="M82.9586 123.365H82.4731V124.332H82.9586V123.365Z" fill="#F4BE8E"/>
<path d="M94.1219 123.365C94.1219 122.697 93.5787 122.155 92.9082 122.155C92.8585 122.155 83.7367 122.155 83.6866 122.155C83.0163 122.155 82.4731 122.697 82.4731 123.365C82.4731 123.95 82.8899 124.438 83.4438 124.55V132.315C83.4438 132.583 83.6612 132.799 83.9292 132.799H92.6658C92.9338 132.799 93.1514 132.583 93.1514 132.315V124.55C93.7053 124.438 94.1219 123.95 94.1219 123.365Z" fill="#FFD2A6"/>
<path d="M85.6279 124.332C85.6279 124.466 85.5194 124.574 85.3853 124.574C85.2513 124.574 85.1427 124.466 85.1427 124.332C85.1427 124.199 85.2513 124.091 85.3853 124.091C85.5194 124.091 85.6279 124.199 85.6279 124.332Z" fill="#EAAD7A"/>
<path d="M85.6279 126.268C85.6279 126.401 85.5194 126.509 85.3853 126.509C85.2513 126.509 85.1427 126.401 85.1427 126.268C85.1427 126.134 85.2513 126.026 85.3853 126.026C85.5194 126.026 85.6279 126.134 85.6279 126.268Z" fill="#EAAD7A"/>
<path d="M85.6279 128.203C85.6279 128.337 85.5194 128.445 85.3853 128.445C85.2513 128.445 85.1427 128.337 85.1427 128.203C85.1427 128.069 85.2513 127.961 85.3853 127.961C85.5194 127.961 85.6279 128.069 85.6279 128.203Z" fill="#EAAD7A"/>
<path d="M85.6279 130.138C85.6279 130.272 85.5194 130.38 85.3853 130.38C85.2513 130.38 85.1427 130.272 85.1427 130.138C85.1427 130.005 85.2513 129.896 85.3853 129.896C85.5194 129.896 85.6279 130.005 85.6279 130.138Z" fill="#EAAD7A"/>
<path d="M87.0841 125.3C87.0841 125.434 86.9755 125.542 86.8415 125.542C86.7074 125.542 86.5989 125.434 86.5989 125.3C86.5989 125.166 86.7074 125.058 86.8415 125.058C86.9755 125.058 87.0841 125.166 87.0841 125.3Z" fill="#EAAD7A"/>
<path d="M87.0841 127.235C87.0841 127.369 86.9755 127.477 86.8415 127.477C86.7074 127.477 86.5989 127.369 86.5989 127.235C86.5989 127.102 86.7074 126.994 86.8415 126.994C86.9755 126.994 87.0841 127.102 87.0841 127.235Z" fill="#EAAD7A"/>
<path d="M87.0841 129.171C87.0841 129.304 86.9755 129.412 86.8415 129.412C86.7074 129.412 86.5989 129.304 86.5989 129.171C86.5989 129.037 86.7074 128.929 86.8415 128.929C86.9755 128.929 87.0841 129.037 87.0841 129.171Z" fill="#EAAD7A"/>
<path d="M87.0841 131.106C87.0841 131.24 86.9755 131.348 86.8415 131.348C86.7074 131.348 86.5989 131.24 86.5989 131.106C86.5989 130.972 86.7074 130.864 86.8415 130.864C86.9755 130.864 87.0841 130.972 87.0841 131.106Z" fill="#EAAD7A"/>
<path d="M88.5402 124.332C88.5402 124.466 88.4316 124.574 88.2976 124.574C88.1635 124.574 88.0549 124.466 88.0549 124.332C88.0549 124.199 88.1635 124.091 88.2976 124.091C88.4316 124.091 88.5402 124.199 88.5402 124.332Z" fill="#EAAD7A"/>
<path d="M88.5402 126.268C88.5402 126.401 88.4316 126.509 88.2976 126.509C88.1635 126.509 88.0549 126.401 88.0549 126.268C88.0549 126.134 88.1635 126.026 88.2976 126.026C88.4316 126.026 88.5402 126.134 88.5402 126.268Z" fill="#EAAD7A"/>
<path d="M88.5402 128.203C88.5402 128.337 88.4316 128.445 88.2976 128.445C88.1635 128.445 88.0549 128.337 88.0549 128.203C88.0549 128.069 88.1635 127.961 88.2976 127.961C88.4316 127.961 88.5402 128.069 88.5402 128.203Z" fill="#EAAD7A"/>
<path d="M88.5402 130.138C88.5402 130.272 88.4316 130.38 88.2976 130.38C88.1635 130.38 88.0549 130.272 88.0549 130.138C88.0549 130.005 88.1635 129.896 88.2976 129.896C88.4316 129.896 88.5402 130.005 88.5402 130.138Z" fill="#EAAD7A"/>
<path d="M89.9961 125.3C89.9961 125.434 89.8877 125.542 89.7537 125.542C89.6197 125.542 89.5112 125.434 89.5112 125.3C89.5112 125.166 89.6197 125.058 89.7537 125.058C89.8877 125.058 89.9961 125.166 89.9961 125.3Z" fill="#EAAD7A"/>
<path d="M89.9961 127.235C89.9961 127.369 89.8877 127.477 89.7537 127.477C89.6197 127.477 89.5112 127.369 89.5112 127.235C89.5112 127.102 89.6197 126.994 89.7537 126.994C89.8877 126.994 89.9961 127.102 89.9961 127.235Z" fill="#EAAD7A"/>
<path d="M89.9961 129.171C89.9961 129.304 89.8877 129.412 89.7537 129.412C89.6197 129.412 89.5112 129.304 89.5112 129.171C89.5112 129.037 89.6197 128.929 89.7537 128.929C89.8877 128.929 89.9961 129.037 89.9961 129.171Z" fill="#EAAD7A"/>
<path d="M89.9961 131.106C89.9961 131.24 89.8877 131.348 89.7537 131.348C89.6197 131.348 89.5112 131.24 89.5112 131.106C89.5112 130.972 89.6197 130.864 89.7537 130.864C89.8877 130.864 89.9961 130.972 89.9961 131.106Z" fill="#EAAD7A"/>
<path d="M91.452 124.332C91.452 124.466 91.3436 124.574 91.2096 124.574C91.0756 124.574 90.9672 124.466 90.9672 124.332C90.9672 124.199 91.0756 124.091 91.2096 124.091C91.3436 124.091 91.452 124.199 91.452 124.332Z" fill="#EAAD7A"/>
<path d="M91.452 126.268C91.452 126.401 91.3436 126.509 91.2096 126.509C91.0756 126.509 90.9672 126.401 90.9672 126.268C90.9672 126.134 91.0756 126.026 91.2096 126.026C91.3436 126.026 91.452 126.134 91.452 126.268Z" fill="#EAAD7A"/>
<path d="M91.452 128.203C91.452 128.337 91.3436 128.445 91.2096 128.445C91.0756 128.445 90.9672 128.337 90.9672 128.203C90.9672 128.069 91.0756 127.961 91.2096 127.961C91.3436 127.961 91.452 128.069 91.452 128.203Z" fill="#EAAD7A"/>
<path d="M91.452 130.138C91.452 130.272 91.3436 130.38 91.2096 130.38C91.0756 130.38 90.9672 130.272 90.9672 130.138C90.9672 130.005 91.0756 129.896 91.2096 129.896C91.3436 129.896 91.452 130.005 91.452 130.138Z" fill="#EAAD7A"/>
<path fill-rule="evenodd" clip-rule="evenodd" d="M101.46 93.0353C101.926 93.0655 102.202 93.019 102.216 92.4266C102.225 92.0077 101.257 92.3258 100.695 92.109C100.463 92.0189 100.291 91.581 100.299 91.3704C100.329 90.6449 100.824 90.8821 101.405 90.79C101.991 90.6933 99.7124 90.3136 100.284 89.3096C100.855 88.3076 101.547 88.2063 102.154 89.2374C102.763 90.268 103.05 89.4158 103.066 88.734C103.087 88.0489 103.894 88.159 104.007 88.9525C104.115 89.7493 105.095 89.2006 104.827 88.4702C104.561 87.7392 103.303 87.3396 103.946 86.6008C104.59 85.8602 106.278 85.5348 106.383 87.0276C106.489 88.5199 106.818 88.6041 107.304 87.9307C107.796 87.2527 107.823 86.6772 108.305 86.7979C108.787 86.9185 107.928 87.6748 108.6 88.0569C108.974 88.2696 109.12 88.0993 109.321 87.8788C110.192 86.9276 110.187 87.7744 110.232 88.5854C110.26 89.0922 110.241 89.6542 110.137 90.1307C109.933 91.0564 108.633 92.5152 108.633 92.5152C107.347 93.7567 106.06 94.9987 104.774 96.2403C102.804 96.2916 101.206 95.9699 100.051 95.2085C98.9899 94.2206 98.808 93.13 99.7651 92.8481C100.15 92.7345 100.607 92.98 101.46 93.0353Z" fill="#92BE3B"/>
<path fill-rule="evenodd" clip-rule="evenodd" d="M104.485 95.4878C103.447 95.3219 102.258 95.2065 101.465 95.0374C100.37 94.8042 99.6673 93.4513 100.553 93.23C101.459 93.0048 102.499 93.6556 103.173 93.3528C103.846 93.0505 103.724 92.6832 102.836 92.4016C101.94 92.1237 101.713 91.6477 102.12 91.14C102.529 90.6333 103.138 91.7273 103.695 91.5768C104.251 91.4268 101.719 90.0961 102.182 89.237C102.651 88.3727 104.086 89.3328 104.498 90.3279C104.911 91.3226 105.288 90.7834 105.292 90.4331C105.292 90.0875 104.196 89.1736 104.927 88.6632C105.652 88.1552 105.934 88.6495 106.106 89.6908C106.278 90.7306 106.377 91.3476 106.765 91.1506C106.946 91.0595 106.822 90.5567 106.728 90.0281C106.62 89.4515 106.557 88.836 106.988 88.6783C107.805 88.3848 109.089 89.6206 108.733 90.8425C108.388 92.056 110.394 94.3173 110.394 94.3173L107.637 97.476L104.485 95.4878Z" fill="#4FA844"/>
<path fill-rule="evenodd" clip-rule="evenodd" d="M114.008 91.6473C113.969 89.588 114.126 89.0426 114.112 88.5594L113.872 86.7258L114.23 86.8861L114.654 87.5332C114.704 86.9271 114.668 86.7113 114.547 86.329L115.169 86.431C115.323 86.7703 115.402 86.9813 115.443 87.2323C115.524 87.7331 115.229 88.2811 115.144 88.6306L115.926 88.2089L116.725 87.8749L117.24 88.133L116.394 88.6886C115.951 88.9207 115.093 90.2414 114.655 92.0598L114.008 91.6473Z" fill="#628A49"/>
<path fill-rule="evenodd" clip-rule="evenodd" d="M112.658 92.9474C112.317 94.0043 112.008 94.7739 111.669 95.4146C110.982 96.7159 110.613 97.9312 109.181 99.5341C109.627 99.7908 109.787 99.5814 110.258 99.4515C111.361 99.1486 112.341 97.8045 113.178 96.8734C113.94 96.0275 115.434 93.6187 115.524 92.4622C115.584 91.6931 114.548 90.6304 114.078 90.5329C113.871 90.577 113.669 90.6715 113.337 90.7628C113.243 91.4547 112.995 91.9007 112.658 92.9474Z" fill="#F29217"/>
<path fill-rule="evenodd" clip-rule="evenodd" d="M109.291 99.5468C109.711 99.7611 109.843 99.5659 110.256 99.451C111.359 99.1481 112.339 97.8041 113.176 96.873C113.938 96.027 115.432 93.6182 115.522 92.4617C115.582 91.6927 114.657 90.6749 114.076 90.5325L114.035 90.5233C114.33 91.784 113.873 93.1392 113.239 94.4246C112.358 96.2125 110.644 98.6816 109.291 99.5468Z" fill="#ED701F"/>
<path fill-rule="evenodd" clip-rule="evenodd" d="M105.492 94.0258C103.997 94.3285 103.817 95.3205 104.157 96.1046C104.497 96.8883 105.501 97.2994 106.518 96.9454C107.534 96.5919 108.102 95.6899 107.831 94.7375C107.561 93.7835 106.495 93.4514 105.492 94.0258Z" fill="#D42126"/>
<path fill-rule="evenodd" clip-rule="evenodd" d="M105.483 94.0213C104.498 94.1818 103.927 94.815 104.123 95.4238C104.33 96.0679 105.405 96.2185 106.184 95.9473C106.963 95.6761 107.637 95.0004 107.509 94.3914C107.375 93.7457 106.396 93.4939 105.483 94.0213Z" fill="#E6392E"/>
<path fill-rule="evenodd" clip-rule="evenodd" d="M106.175 94.9413C105.939 95.0757 105.693 95.3096 105.771 95.4659C105.857 95.6353 106.217 95.5596 106.474 95.414C106.71 95.28 106.957 95.0457 106.878 94.8894C106.794 94.7196 106.434 94.7954 106.175 94.9413Z" fill="#EB6549"/>
<path fill-rule="evenodd" clip-rule="evenodd" d="M105.654 94.4498C106.226 94.6439 106.761 94.4734 106.731 94.3837C106.605 94.0081 105.999 94.1291 106.061 94.0673C106.479 93.802 106.836 93.269 106.48 93.3719C106.017 93.5046 105.836 93.6119 105.545 93.8682C105.361 93.5482 105.097 93.3469 104.77 93.2381C104.805 93.5671 104.903 93.8637 105.132 94.0938C104.904 94.1224 104.647 94.1739 104.438 94.2481C104.526 94.4074 104.802 94.5615 104.943 94.576C105.217 94.6004 105.432 94.549 105.654 94.4498Z" fill="#327432"/>
<path fill-rule="evenodd" clip-rule="evenodd" d="M103.216 96.5937C101.721 96.8964 101.541 97.8884 101.88 98.6725C102.221 99.4562 103.224 99.8673 104.242 99.5133C105.258 99.1598 105.806 98.2608 105.544 97.309C105.283 96.3561 104.219 96.0181 103.216 96.5937Z" fill="#D42126"/>
<path fill-rule="evenodd" clip-rule="evenodd" d="M103.206 96.589C102.221 96.7495 101.651 97.3827 101.847 97.9916C102.054 98.6356 103.128 98.7863 103.908 98.515C104.687 98.2438 105.361 97.5681 105.234 96.9587C105.098 96.3134 104.12 96.0616 103.206 96.589Z" fill="#E6392E"/>
<path fill-rule="evenodd" clip-rule="evenodd" d="M103.914 97.2891C103.696 97.4264 103.474 97.6635 103.561 97.8158C103.654 97.9812 103.996 97.8987 104.235 97.7491C104.453 97.6119 104.675 97.3747 104.589 97.2224C104.495 97.057 104.153 97.1384 103.914 97.2891Z" fill="#EB6549"/>
<path fill-rule="evenodd" clip-rule="evenodd" d="M103.441 97.1337C104.143 96.935 104.428 96.7549 104.232 96.6786C104.035 96.6016 103.818 96.5131 103.439 96.6004C103.43 96.2315 103.243 95.9527 103.006 95.7034C102.881 96.0099 102.827 96.3163 102.92 96.6262C102.705 96.5436 102.454 96.468 102.234 96.434C102.237 96.6154 102.374 96.8291 102.502 96.8916C102.644 96.962 102.745 97.0049 102.831 97.036C102.589 97.4172 102.682 97.67 102.751 97.643C102.963 97.5603 103.271 97.4805 103.441 97.1337Z" fill="#327432"/>
<path fill-rule="evenodd" clip-rule="evenodd" d="M107.773 95.8788C106.278 96.1815 106.098 97.1736 106.438 97.9577C106.778 98.7413 107.782 99.1524 108.799 98.7985C109.815 98.4449 110.363 97.5459 110.102 96.5941C109.84 95.6412 108.776 95.3032 107.773 95.8788Z" fill="#D42126"/>
<path fill-rule="evenodd" clip-rule="evenodd" d="M107.763 95.8742C106.778 96.0347 106.208 96.6679 106.404 97.2768C106.611 97.9208 107.684 98.0719 108.465 97.8002C109.244 97.529 109.918 96.8533 109.79 96.2443C109.655 95.5986 108.677 95.3468 107.763 95.8742Z" fill="#E6392E"/>
<path fill-rule="evenodd" clip-rule="evenodd" d="M108.471 96.5743C108.253 96.7116 108.031 96.9487 108.117 97.101C108.211 97.2664 108.553 97.1839 108.792 97.0343C109.01 96.897 109.232 96.6599 109.145 96.5076C109.052 96.3422 108.71 96.4236 108.471 96.5743Z" fill="#EB6549"/>
<path fill-rule="evenodd" clip-rule="evenodd" d="M108.041 96.3609C108.459 95.7638 108.957 95.041 108.527 95.2595C108.098 95.478 107.956 95.5703 107.719 95.8768C107.478 95.596 107.157 95.4969 106.816 95.4528C106.913 95.7693 107.065 96.0431 107.333 96.2245C107.113 96.2957 106.874 96.3948 106.681 96.5072C106.798 96.6475 107.038 96.7189 107.178 96.6949C107.602 96.6202 107.653 96.5454 108.041 96.3609Z" fill="#327432"/>
<path fill-rule="evenodd" clip-rule="evenodd" d="M106.084 98.6327C104.492 98.9549 104.299 100.011 104.662 100.846C105.024 101.681 106.094 102.118 107.176 101.741C108.258 101.365 108.863 100.405 108.575 99.3891C108.288 98.3747 107.153 98.0198 106.084 98.6327Z" fill="#D42126"/>
<path fill-rule="evenodd" clip-rule="evenodd" d="M106.074 98.627C105.024 98.7968 104.417 99.4729 104.626 100.122C104.846 100.807 105.99 100.968 106.821 100.679C107.651 100.39 108.368 99.6706 108.233 99.0214C108.088 98.3334 107.047 98.0658 106.074 98.627Z" fill="#E6392E"/>
<path fill-rule="evenodd" clip-rule="evenodd" d="M106.811 99.6071C106.559 99.7494 106.297 100.001 106.382 100.167C106.473 100.347 106.856 100.267 107.132 100.111C107.384 99.969 107.645 99.7178 107.561 99.5518C107.47 99.3712 107.087 99.4512 106.811 99.6071Z" fill="#EB6549"/>
<path fill-rule="evenodd" clip-rule="evenodd" d="M106.256 99.0841C106.866 99.2914 107.435 99.1087 107.403 99.0132C107.27 98.6129 106.623 98.7418 106.69 98.6757C107.136 98.3929 107.516 97.8258 107.137 97.9341C106.643 98.0761 106.451 98.1886 106.141 98.4618C105.945 98.1198 105.663 97.9068 105.315 97.7909C105.352 98.1412 105.457 98.4575 105.701 98.7022C105.457 98.7322 105.185 98.7878 104.962 98.8668C105.055 99.0361 105.35 99.2005 105.501 99.2156C105.791 99.2436 106.02 99.1898 106.256 99.0841Z" fill="#327432"/>
<path fill-rule="evenodd" clip-rule="evenodd" d="M101.504 99.3307C99.8754 99.6604 99.6775 100.742 100.048 101.596C100.418 102.45 101.513 102.898 102.622 102.513C103.73 102.127 104.349 101.145 104.054 100.106C103.759 99.0666 102.598 98.7039 101.504 99.3307Z" fill="#D42126"/>
<path fill-rule="evenodd" clip-rule="evenodd" d="M101.494 99.3251C100.42 99.4995 99.7989 100.191 100.012 100.854C100.238 101.555 101.409 101.72 102.258 101.425C103.108 101.129 103.841 100.393 103.703 99.7282C103.556 99.0254 102.49 98.7508 101.494 99.3251Z" fill="#E6392E"/>
<path fill-rule="evenodd" clip-rule="evenodd" d="M102.249 100.329C101.991 100.475 101.723 100.731 101.808 100.901C101.9 101.086 102.294 101.005 102.574 100.844C102.832 100.699 103.1 100.443 103.015 100.272C102.923 100.087 102.531 100.168 102.249 100.329Z" fill="#EB6549"/>
<path fill-rule="evenodd" clip-rule="evenodd" d="M101.603 99.843C102.161 100.193 102.772 100.146 102.762 100.044C102.724 99.6143 102.049 99.5901 102.132 99.5393C102.642 99.3629 103.156 98.8885 102.753 98.9078C102.228 98.9317 102.008 98.9991 101.635 99.1966C101.521 98.8104 101.292 98.531 100.972 98.3336C100.927 98.692 100.956 99.0307 101.141 99.3309C100.89 99.3034 100.607 99.2939 100.365 99.3196C100.419 99.5104 100.673 99.7437 100.819 99.7942C101.101 99.8915 101.343 99.8918 101.603 99.843Z" fill="#327432"/>
<path fill-rule="evenodd" clip-rule="evenodd" d="M104.172 101.3C102.541 101.63 102.343 102.713 102.714 103.569C103.085 104.424 104.181 104.873 105.291 104.487C106.4 104.101 106.999 103.12 106.713 102.081C106.426 101.042 105.266 100.673 104.172 101.3Z" fill="#D42126"/>
<path fill-rule="evenodd" clip-rule="evenodd" d="M104.161 101.295C103.086 101.47 102.463 102.161 102.677 102.825C102.903 103.528 104.075 103.693 104.925 103.397C105.776 103.101 106.511 102.363 106.372 101.698C106.226 100.994 105.157 100.72 104.161 101.295Z" fill="#E6392E"/>
<path fill-rule="evenodd" clip-rule="evenodd" d="M104.934 102.059C104.695 102.209 104.454 102.468 104.548 102.634C104.649 102.813 105.022 102.724 105.283 102.56C105.522 102.41 105.763 102.151 105.67 101.986C105.568 101.806 105.194 101.896 104.934 102.059Z" fill="#EB6549"/>
<path fill-rule="evenodd" clip-rule="evenodd" d="M104.569 101.589C104.716 101.495 104.81 101.366 104.866 101.254C105.028 100.93 104.965 100.736 104.822 100.799C104.629 100.883 104.401 100.985 104.195 101.314C103.968 101.013 103.687 100.921 103.376 100.98C103.399 101.266 103.574 101.532 103.858 101.687C103.648 101.779 103.417 101.901 103.238 102.033C103.368 102.161 103.613 102.215 103.753 102.189C103.909 102.161 104.1 102.074 104.233 101.949C104.451 102.342 105.035 102.264 105.066 102.196C105.156 101.987 104.839 101.548 104.569 101.589Z" fill="#327432"/>
<path d="M104.392 101.433L104.122 101.492C103.956 100.739 103.915 100.02 103.996 99.3098C103.288 100.381 102.349 101.237 101.48 101.577L101.377 101.32C102.342 100.942 103.446 99.8278 104.132 98.5385C104.18 98.3355 104.24 98.13 104.309 97.9248C102.964 98.2838 102.074 98.5242 101.681 99.471L101.426 99.3644C101.873 98.2884 102.873 98.0213 104.255 97.6536L104.423 97.6079C104.722 96.8256 105.165 96.0286 105.744 95.227C105.744 95.2255 105.746 95.2251 105.746 95.2235C104.419 95.6242 103.825 96.0888 103.461 96.9625L103.206 96.8559C103.689 95.6948 104.603 95.2412 106.016 94.8587C106.645 94.0321 107.334 93.2664 108.097 92.5491C106.93 92.4125 105.857 93.1762 105.638 94.0258L105.37 93.9575C105.635 92.9386 106.964 92.0244 108.355 92.3123C108.719 91.9824 109.1 91.6624 109.498 91.3507L109.669 91.5687C108.873 92.1905 108.15 92.8471 107.487 93.5503C107.37 94.1939 107.468 95.1866 107.967 95.9216L107.739 96.0765C107.287 95.4112 107.134 94.5726 107.17 93.8963C106.745 94.3722 106.345 94.868 105.967 95.39C105.94 95.4268 105.914 95.4645 105.888 95.5009C105.711 96.5233 105.876 97.7156 106.325 98.6268L106.077 98.7481C105.677 97.9334 105.491 96.9433 105.552 96.0033C104.983 96.8975 104.596 97.7797 104.394 98.6361L104.393 98.6377C104.385 98.6758 104.376 98.714 104.368 98.7506C104.18 99.6232 104.188 100.501 104.392 101.433Z" fill="#327432"/>
<defs>
<clipPath id="clip0">
<rect x="107.634" y="121.691" width="11.6488" height="11.6117" fill="white"/>
</clipPath>
<clipPath id="clip1">
<rect x="57.4279" y="91.2672" width="9.2248" height="9.19549" fill="white"/>
</clipPath>
<clipPath id="clip2">
<rect x="71.6493" y="90.8841" width="9.60918" height="9.57861" fill="white"/>
</clipPath>
<clipPath id="clip3">
<rect x="62.809" y="89.3515" width="11.1466" height="11.1112" fill="white"/>
</clipPath>
<clipPath id="clip4">
<rect x="64.8691" y="55.4072" width="8.22375" height="8.19759" fill="white"/>
</clipPath>
<clipPath id="clip5">
<rect x="101.672" y="50.2004" width="12.0494" height="12.0111" fill="white"/>
</clipPath>
<clipPath id="clip6">
<rect x="92.2581" y="52.0771" width="12.0494" height="12.0111" fill="white"/>
</clipPath>
<clipPath id="clip7">
<rect x="109.579" y="52.0771" width="12.0494" height="12.0111" fill="white"/>
</clipPath>
</defs>
</svg>
