<svg width="77" height="59" viewBox="0 0 77 59" fill="none" xmlns="http://www.w3.org/2000/svg">
<path d="M73.8571 24.3867H3.14282V59H73.8571V24.3867Z" fill="#B7B5B0"/>
<path d="M19.6429 36.1867C19.6429 35.3213 18.9357 34.6133 18.0714 34.6133C17.2071 34.6133 16.5 35.3213 16.5 36.1867C16.5 37.052 17.2071 37.76 18.0714 37.76C18.9357 37.76 19.6429 37.052 19.6429 36.1867ZM18.0714 45.6267C17.2071 45.6267 16.5 46.3347 16.5 47.2C16.5 48.0653 17.2071 48.7733 18.0714 48.7733C18.9357 48.7733 19.6429 48.0653 19.6429 47.2C19.6429 46.3347 18.9357 45.6267 18.0714 45.6267ZM18.8571 37.76H18.0714H17.2857V45.6267H18.0714H18.8571V37.76Z" fill="#222222"/>
<path d="M61.2858 33.8267H39.2858V46.4133H61.2858V33.8267Z" fill="white"/>
<path d="M3.14282 22.8134V59H73.8571V22.8134H3.14282ZM6.28568 23.6H22V54.28H6.28568V23.6ZM70.7142 54.28H23.5714V23.6H70.7142V54.28Z" fill="white"/>
<path d="M37.7142 32.2534V47.9867H62.8571V32.2534H37.7142ZM49.4999 46.4134H39.2857V40.9067H49.4999V46.4134ZM49.4999 39.3334H39.2857V33.8267H49.4999V39.3334ZM61.2857 46.4134H51.0714V40.9067H61.2857V46.4134ZM61.2857 39.3334H51.0714V33.8267H61.2857V39.3334Z" fill="#82807C"/>
<path d="M11 17.3067V23.6C11 26.6444 13.4593 29.1067 16.5 29.1067C19.5407 29.1067 22 26.6444 22 23.6V17.3067L29.0714 0H20.4286L11 17.3067ZM33 17.3067V23.6C33 26.6444 35.4593 29.1067 38.5 29.1067C41.5407 29.1067 44 26.6444 44 23.6V17.3067L44.7857 0H36.9286L33 17.3067ZM58.9286 0H51.0714L55 17.3067V23.6C55 26.6444 57.4593 29.1067 60.5 29.1067C63.5407 29.1067 66 26.6444 66 23.6V17.3067L58.9286 0Z" fill="#A5DCE8"/>
<path d="M0 16.52V23.6C0 26.6444 2.45929 29.1067 5.5 29.1067C8.54071 29.1067 11 26.6444 11 23.6V17.3067L20.4286 0H12.5714L0 16.52ZM22 17.3067V23.6C22 26.6444 24.4593 29.1067 27.5 29.1067C30.5407 29.1067 33 26.6444 33 23.6V17.3067L36.9286 0H29.0714L22 17.3067ZM44.7857 0L44 17.3067V23.6C44 26.6444 46.4593 29.1067 49.5 29.1067C52.5407 29.1067 55 26.6444 55 23.6V17.3067L52.6429 0H44.7857ZM66.7857 0H58.9286L66 17.3067V23.6C66 26.6444 68.4593 29.1067 71.5 29.1067C74.5407 29.1067 77 26.6444 77 23.6V16.52L66.7857 0Z" fill="#FF603D"/>
<path d="M0 23.6C0 26.6444 2.45929 29.1066 5.5 29.1066C8.54071 29.1066 11 26.6444 11 23.6V17.3066H0V23.6ZM22 23.6C22 26.6444 24.4593 29.1066 27.5 29.1066C30.5407 29.1066 33 26.6444 33 23.6V17.3066H22V23.6ZM44 23.6C44 26.6444 46.4593 29.1066 49.5 29.1066C52.5407 29.1066 55 26.6444 55 23.6V17.3066H44V23.6ZM66 17.3066V23.6C66 26.6444 68.4593 29.1066 71.5 29.1066C74.5407 29.1066 77 26.6444 77 23.6V17.3066H66Z" fill="#E13922"/>
<path d="M11 23.6C11 26.6444 13.4593 29.1066 16.5 29.1066C19.5407 29.1066 22 26.6444 22 23.6V17.3066H11V23.6ZM33 23.6C33 26.6444 35.4593 29.1066 38.5 29.1066C41.5407 29.1066 44 26.6444 44 23.6V17.3066H33V23.6ZM55 17.3066V23.6C55 26.6444 57.4593 29.1066 60.5 29.1066C63.5407 29.1066 66 26.6444 66 23.6V17.3066H55Z" fill="#7AB8C6"/>
</svg>
