<svg width="62" height="29" viewBox="0 0 62 29" fill="none" xmlns="http://www.w3.org/2000/svg">
<g clip-path="url(#clip0)">
<path d="M2.41876 8.40351L11.7734 6.77109L21.7631 8.40351C22.6944 8.40351 23.2891 9.39679 22.8493 10.2176L13.1825 28.2607C12.7181 29.1276 11.4753 29.1279 11.0105 28.2613L1.3329 10.2181C0.892601 9.39726 1.48726 8.40351 2.41876 8.40351Z" fill="#FECB21"/>
<path d="M12.6682 19.4329C12.6682 20.7766 11.5789 21.8658 10.2353 21.8658C8.89164 21.8658 7.80236 20.7766 7.80236 19.4329C7.80236 18.0892 8.89159 17 10.2353 17C11.5789 17 12.6682 18.0892 12.6682 19.4329ZM15.7555 23.2745C14.5684 22.6448 13.0958 23.0967 12.4661 24.2836C11.8364 25.4706 12.2882 26.9433 13.4752 27.573L15.7555 23.2745ZM15.7555 11.538C14.4118 11.538 13.3225 12.6272 13.3225 13.9709C13.3225 15.3146 14.4118 16.4038 15.7555 16.4038C17.0991 16.4038 18.1884 15.3146 18.1884 13.9709C18.1884 12.6272 17.0991 11.538 15.7555 11.538ZM7.21942 9.95534C5.87575 9.95534 4.78651 11.0446 4.78651 12.3882C4.78651 13.7319 5.87575 14.8212 7.21942 14.8212C8.56309 14.8212 9.65233 13.7319 9.65233 12.3882C9.65233 11.0446 8.56309 9.95534 7.21942 9.95534Z" fill="#F43B22"/>
<path d="M1.93146 11.1181C1.30671 11.1181 0.700713 10.7881 0.375963 10.2032C-0.100615 9.34499 0.208807 8.26297 1.06704 7.78644C2.68915 6.88574 4.44579 6.19044 6.28812 5.71981C8.1319 5.24886 10.0446 5.00666 11.9731 5C13.8941 4.99344 15.8096 5.22083 17.6622 5.67608C19.5516 6.14033 21.356 6.83656 23.0253 7.74547C23.8875 8.21488 24.2058 9.29427 23.7364 10.1564C23.267 11.0185 22.1875 11.3369 21.3255 10.8674C19.9245 10.1046 18.4066 9.51945 16.8139 9.12814C15.2649 8.74752 13.664 8.55458 12.0547 8.55458L11.9853 8.55467C10.3492 8.56034 8.72838 8.76533 7.16787 9.16395C5.62057 9.5592 4.14856 10.1413 2.79265 10.8942C2.52936 11.041 2.23292 11.1181 1.93146 11.1181Z" fill="#C4790C"/>
</g>
<g clip-path="url(#clip1)">
<path fill-rule="evenodd" clip-rule="evenodd" d="M56.7483 10.5H61.9983L62 29H46.9663V28.999L46.8775 29C41.4205 29 36.9973 27.5675 36.9973 25.7997L36.9983 7.25H56.7483V10.5Z" fill="#F1C40F"/>
<path d="M47 7.25H56.75V10.5H47V7.25Z" fill="#F39C12"/>
<path d="M46.875 10.5C52.3288 10.5 56.75 9.04493 56.75 7.25C56.75 5.45507 52.3288 4 46.875 4C41.4212 4 37 5.45507 37 7.25C37 9.04493 41.4212 10.5 46.875 10.5Z" fill="#E67E22"/>
<path opacity="0.2" d="M47.0835 8.328C49.2926 8.328 51.0835 7.82432 51.0835 7.203C51.0835 6.58168 49.2926 6.078 47.0835 6.078C44.8744 6.078 43.0835 6.58168 43.0835 7.203C43.0835 7.82432 44.8744 8.328 47.0835 8.328Z" fill="black"/>
<path fill-rule="evenodd" clip-rule="evenodd" d="M47.167 27.25C47.0344 27.25 46.9072 27.3027 46.8134 27.3964C46.7197 27.4902 46.667 27.6174 46.667 27.75C46.667 27.8826 46.7197 28.0098 46.8134 28.1035C46.9072 28.1973 47.0344 28.25 47.167 28.25C47.2996 28.25 47.4268 28.1973 47.5205 28.1035C47.6143 28.0098 47.667 27.8826 47.667 27.75C47.667 27.6174 47.6143 27.4902 47.5205 27.3964C47.4268 27.3027 47.2996 27.25 47.167 27.25ZM47.167 25.25C47.0344 25.25 46.9072 25.3027 46.8134 25.3964C46.7197 25.4902 46.667 25.6174 46.667 25.75C46.667 25.8826 46.7197 26.0098 46.8134 26.1035C46.9072 26.1973 47.0344 26.25 47.167 26.25C47.2996 26.25 47.4268 26.1973 47.5205 26.1035C47.6143 26.0098 47.667 25.8826 47.667 25.75C47.667 25.6174 47.6143 25.4902 47.5205 25.3964C47.4268 25.3027 47.2996 25.25 47.167 25.25ZM47.167 23.25C47.0344 23.25 46.9072 23.3027 46.8134 23.3964C46.7197 23.4902 46.667 23.6174 46.667 23.75C46.667 23.8826 46.7197 24.0098 46.8134 24.1035C46.9072 24.1973 47.0344 24.25 47.167 24.25C47.2996 24.25 47.4268 24.1973 47.5205 24.1035C47.6143 24.0098 47.667 23.8826 47.667 23.75C47.667 23.6174 47.6143 23.4902 47.5205 23.3964C47.4268 23.3027 47.2996 23.25 47.167 23.25ZM47.167 21.25C47.0344 21.25 46.9072 21.3027 46.8134 21.3964C46.7197 21.4902 46.667 21.6174 46.667 21.75C46.667 21.8826 46.7197 22.0098 46.8134 22.1035C46.9072 22.1973 47.0344 22.25 47.167 22.25C47.2996 22.25 47.4268 22.1973 47.5205 22.1035C47.6143 22.0098 47.667 21.8826 47.667 21.75C47.667 21.6174 47.6143 21.4902 47.5205 21.3964C47.4268 21.3027 47.2996 21.25 47.167 21.25ZM47.167 17.25C47.0344 17.25 46.9072 17.3027 46.8134 17.3964C46.7197 17.4902 46.667 17.6174 46.667 17.75C46.667 17.8826 46.7197 18.0098 46.8134 18.1035C46.9072 18.1973 47.0344 18.25 47.167 18.25C47.2996 18.25 47.4268 18.1973 47.5205 18.1035C47.6143 18.0098 47.667 17.8826 47.667 17.75C47.667 17.6174 47.6143 17.4902 47.5205 17.3964C47.4268 17.3027 47.2996 17.25 47.167 17.25ZM47.167 15.25C47.0344 15.25 46.9072 15.3027 46.8134 15.3964C46.7197 15.4902 46.667 15.6174 46.667 15.75C46.667 15.8826 46.7197 16.0098 46.8134 16.1035C46.9072 16.1973 47.0344 16.25 47.167 16.25C47.2996 16.25 47.4268 16.1973 47.5205 16.1035C47.6143 16.0098 47.667 15.8826 47.667 15.75C47.667 15.6174 47.6143 15.4902 47.5205 15.3964C47.4268 15.3027 47.2996 15.25 47.167 15.25ZM47.167 12.25C47.234 12.2521 47.3007 12.2408 47.3631 12.2166C47.4256 12.1924 47.4826 12.156 47.5307 12.1093C47.5788 12.0627 47.6171 12.0069 47.6432 11.9452C47.6693 11.8835 47.6828 11.8172 47.6828 11.7502C47.6828 11.6833 47.6693 11.6169 47.6432 11.5553C47.6171 11.4936 47.5788 11.4378 47.5307 11.3911C47.4826 11.3445 47.4256 11.3081 47.3631 11.2839C47.3007 11.2597 47.234 11.2484 47.167 11.2505C47.0372 11.2546 46.9141 11.3091 46.8237 11.4023C46.7333 11.4956 46.6828 11.6204 46.6828 11.7502C46.6828 11.8801 46.7333 12.0049 46.8237 12.0982C46.9141 12.1914 47.0372 12.2459 47.167 12.25ZM47.167 13.25C47.0344 13.25 46.9072 13.3027 46.8134 13.3964C46.7197 13.4902 46.667 13.6174 46.667 13.75C46.667 13.8826 46.7197 14.0098 46.8134 14.1035C46.9072 14.1973 47.0344 14.25 47.167 14.25C47.2996 14.25 47.4268 14.1973 47.5205 14.1035C47.6143 14.0098 47.667 13.8826 47.667 13.75C47.667 13.6174 47.6143 13.4902 47.5205 13.3964C47.4268 13.3027 47.2996 13.25 47.167 13.25ZM47.167 19.25C47.0344 19.25 46.9072 19.3027 46.8134 19.3964C46.7197 19.4902 46.667 19.6174 46.667 19.75C46.667 19.8826 46.7197 20.0098 46.8134 20.1035C46.9072 20.1973 47.0344 20.25 47.167 20.25C47.2996 20.25 47.4268 20.1973 47.5205 20.1035C47.6143 20.0098 47.667 19.8826 47.667 19.75C47.667 19.6174 47.6143 19.4902 47.5205 19.3964C47.4268 19.3027 47.2996 19.25 47.167 19.25Z" fill="#F39C12"/>
</g>
<path d="M29.8594 21.8633L27.3672 22.0219C27.2086 22.1578 27.3219 22.4297 27.3219 22.6109V23.2453C27.3219 23.5852 27.2086 23.8797 27.0047 24.1516C26.4836 24.8766 25.5547 25.1938 24.7617 25.5336C24.2179 25.7828 22.9265 26.3266 22.9945 27.0742C23.0851 27.9805 24.6484 28.343 25.3281 28.5016C26.1664 28.6828 27.0047 28.7508 27.8656 28.7508C28.6133 28.7508 29.3836 28.7055 30.1312 28.6375C30.8109 28.5922 31.4906 28.4789 32.1476 28.3203C32.6234 28.207 33.7789 27.9125 33.9375 27.3461C34.232 26.3039 32.1476 25.7148 31.5133 25.443C30.6297 25.0578 29.6554 24.5367 29.6554 23.4492C29.6554 23.1547 29.6554 22.8602 29.7008 22.5656C29.7461 22.3617 29.6554 21.9766 29.8594 21.8633Z" fill="#D1EBED"/>
<path d="M34.5265 1.90312C34.5265 1.90312 37.8796 7.4539 37.8796 13.7523C37.8796 22.5883 28.5 22.4523 28.5 22.4523C28.5 22.4523 19.1203 22.5656 19.1203 13.7523C19.1203 7.4539 22.4961 1.90312 22.4961 1.90312H34.5265Z" fill="#D1EBED"/>
<path d="M36.5656 12.1437C36.2257 11.8945 35.9085 12.1664 35.5234 12.3023C33.8242 12.8914 32.1249 12.8008 30.4257 12.2797C28.7718 11.7586 27.2085 11.1016 25.4867 10.9203C24.3765 10.807 23.2437 10.9203 22.2015 11.3281C21.4312 11.6226 20.6835 12.0078 20.2531 12.7555C19.8906 13.3672 20.0492 14.2508 20.1398 14.9305C20.321 16.2219 20.7968 17.4453 21.6124 18.4648C22.8812 20.0055 24.807 20.8437 26.7554 21.2062C27.3445 21.3195 27.9335 21.3875 28.5453 21.3875C29.0437 21.3875 29.5648 21.3422 30.0632 21.2516C31.8984 20.9344 33.7788 20.2094 35.1156 18.8047C35.9765 17.8984 36.5429 16.7883 36.7921 15.5648C36.9734 14.7719 37.0187 13.9562 36.9734 13.1406C36.9507 12.7781 36.9054 12.4836 36.6335 12.2117L36.5656 12.1437Z" fill="#AD1457"/>
<path d="M34.889 12.5063C28.9078 13.5484 23.8554 15.293 21.0687 13.9336C19.075 12.9594 20.8422 11.4641 22.6547 10.9656C27.0273 9.76485 28.7039 11.7813 31.1961 12.0984C32.6687 12.2797 33.3711 12.6195 34.889 12.5063Z" fill="#720845"/>
<path d="M22.1788 12.393C22.6546 12.5289 23.3343 12.7102 23.9007 12.7781C24.1952 12.8235 24.3538 12.6195 24.3765 12.4156C24.7616 9.0172 25.2827 6.59298 26.0304 4.6672C25.5093 4.55392 23.8327 4.05548 23.8101 4.12345C22.6999 6.54767 21.9069 10.286 21.8163 11.8492C21.8163 11.8492 21.7937 12.2797 22.1788 12.393Z" fill="white"/>
<path d="M34.7078 2.60547C34.7078 4.14609 31.9211 4.98438 28.5 4.98438C25.0789 4.98438 22.2921 4.12344 22.2921 2.60547C22.2921 1.0875 25.0789 0.226562 28.5 0.226562C31.9211 0.226562 34.7078 1.0875 34.7078 2.60547Z" fill="#AECECE"/>
<path d="M33.9828 2.60547C33.9828 3.78359 31.5359 4.44062 28.5 4.44062C25.464 4.44062 23.0172 3.78359 23.0172 2.60547C23.0172 1.42734 25.464 0.770309 28.5 0.770309C31.5359 0.770309 33.9828 1.42734 33.9828 2.60547Z" fill="#D1EBED"/>
<path d="M25.2148 26.6664C25.0109 26.6211 24.7617 26.757 24.7617 26.9609C24.7617 27.1195 24.943 27.2328 25.1016 27.3008C25.7133 27.5726 26.4383 27.6859 27.5031 27.7086C27.6391 27.7086 27.9336 27.6633 28.0016 27.5273C28.0922 27.3914 28.0242 27.2101 27.8883 27.1195C27.7523 27.0289 27.5937 27.0062 27.4352 27.0062C26.1437 26.9383 26.2117 26.9156 25.2148 26.6664Z" fill="white"/>
<defs>
<clipPath id="clip0">
<rect y="5" width="24" height="24" fill="white"/>
</clipPath>
<clipPath id="clip1">
<rect x="37" y="4" width="25" height="25" fill="white"/>
</clipPath>
</defs>
</svg>
