<svg width="65" height="51" viewBox="0 0 65 51" fill="none" xmlns="http://www.w3.org/2000/svg">
<path fill-rule="evenodd" clip-rule="evenodd" d="M12.1022 15.932C13.3487 16.4593 14.1501 16.5953 14.7564 14.9837C15.1846 13.8441 12.2294 13.7931 10.898 12.662C10.3511 12.1942 10.3002 10.8292 10.5249 10.2594C11.305 8.2991 12.4329 9.4217 14.1119 9.72362C15.8079 10.017 9.93554 6.80228 12.4668 4.59534C14.9938 2.39264 16.9866 2.77536 17.6565 6.18145C18.3307 9.58755 19.9376 7.52517 20.6372 5.67117C21.3537 3.81291 23.4568 4.8845 23.0031 7.16799C22.5324 9.45573 25.7421 8.88591 25.7124 6.62794C25.687 4.36996 22.6257 2.07372 25.0976 0.661956C27.5737 -0.754061 32.509 -0.0354215 31.36 4.15735C30.2152 8.35012 31.0335 8.89442 33.0136 7.51242C35.0106 6.12192 35.6381 4.56983 36.8423 5.36076C38.0464 6.15169 34.9682 7.40612 36.4395 9.09428C37.2578 10.034 37.8217 9.70661 38.5849 9.29414C41.8836 7.51668 41.0568 9.83417 40.3996 12.1007C39.9883 13.5167 39.3947 15.039 38.6527 16.2466C37.2027 18.5897 32.2419 21.3494 32.2419 21.3494C27.5271 23.5266 22.808 25.7038 18.0932 27.881C12.6491 26.1418 8.583 23.735 6.15351 20.5457C4.19889 16.825 4.75008 13.6612 7.64173 13.8016C8.80347 13.8569 9.82106 14.9667 12.1022 15.932Z" fill="#92BE3B"/>
<path fill-rule="evenodd" clip-rule="evenodd" d="M18.0254 25.5422C15.3415 24.0964 12.1997 22.6464 10.1899 21.426C7.417 19.7421 6.79372 15.3622 9.43097 15.6003C12.1276 15.8469 14.3493 18.6237 16.4863 18.4366C18.6189 18.2495 18.6402 17.1269 16.4778 15.5068C14.2942 13.8909 14.1288 12.3686 15.7315 11.365C17.3385 10.3657 17.9533 13.9462 19.6238 14.0652C21.2901 14.1843 15.6383 8.1205 17.7328 6.20696C19.8485 4.28492 22.8547 8.28634 23.0243 11.4075C23.1981 14.5287 24.7499 13.4104 25.0976 12.4536C25.4283 11.5053 23.3083 7.95465 25.8014 7.25302C28.2733 6.55139 28.5701 8.17578 28.0401 11.1949C27.5101 14.2098 27.1879 15.9958 28.4387 15.8257C29.0238 15.7491 29.168 14.2523 29.4181 12.713C29.6767 11.0291 30.0965 9.28137 31.4278 9.26011C33.9464 9.2346 36.2741 13.8483 34.1245 16.859C32.013 19.8569 35.3286 27.9703 35.3286 27.9703L24.7414 34L18.0254 25.5422Z" fill="#4FA844"/>
<path fill-rule="evenodd" clip-rule="evenodd" d="M47.7747 24.1168C49.6487 18.4328 50.6032 17.0871 51.0299 15.7488L52.1372 10.4919L52.9629 11.2729L53.501 13.4518C54.219 11.8369 54.3299 11.2114 54.365 10.0474L55.9686 10.9201C56.0657 11.9979 56.0763 12.6509 55.947 13.3783C55.6873 14.8288 54.3525 16.0501 53.784 16.9275L56.3315 16.5174L58.838 16.3631L59.9994 17.5621L57.1506 18.2793C55.7148 18.4931 52.0963 21.2962 49.147 25.8644L47.7747 24.1168Z" fill="#628A49"/>
<path fill-rule="evenodd" clip-rule="evenodd" d="M42.828 26.3937C40.8783 28.9667 39.2917 30.782 37.7491 32.216C34.6166 35.129 32.4383 38.1097 26.9763 41.1389C27.9501 42.2681 28.5906 41.8471 30.0035 41.9396C33.3138 42.161 37.2888 39.4102 40.476 37.6556C43.373 36.0619 49.7791 30.8815 51.1396 27.7967C52.0417 25.7446 50.2291 21.8427 49.0375 21.1275C48.4279 21.0507 47.7836 21.1171 46.7889 21.0511C45.867 22.8591 44.7567 23.8448 42.828 26.3937Z" fill="#F29217"/>
<path fill-rule="evenodd" clip-rule="evenodd" d="M27.2648 41.2787C28.2102 42.2677 28.7578 41.8577 29.998 41.9365C33.3083 42.1579 37.2833 39.407 40.4706 37.6524C43.3676 36.0587 49.7736 30.8784 51.1342 27.7936C52.0363 25.7414 50.4862 22.0695 49.0321 21.1244L48.928 21.0599C48.5235 24.7984 45.9687 28.0785 42.998 30.9989C38.8677 35.0615 31.8013 40.1971 27.2648 41.2787Z" fill="#ED701F"/>
<path fill-rule="evenodd" clip-rule="evenodd" d="M22.2019 22.5119C17.8188 21.9159 16.372 24.4642 16.5466 26.9375C16.7248 29.4109 19.0767 31.4952 22.2019 31.4952C25.3236 31.4952 27.7468 29.5644 27.9214 26.6948C28.0996 23.8218 25.5017 21.8945 22.2019 22.5119Z" fill="#D42126"/>
<path fill-rule="evenodd" clip-rule="evenodd" d="M22.1806 22.4906C19.3298 21.9909 17.1596 23.183 17.1097 25.0389C17.0562 27.0019 19.8536 28.4402 22.2483 28.4402C24.643 28.4402 27.1375 27.2303 27.3727 25.4386C27.6257 23.5399 25.1882 21.916 22.1806 22.4906Z" fill="#E6392E"/>
<path fill-rule="evenodd" clip-rule="evenodd" d="M23.1926 25.6742C22.4158 25.817 21.5177 26.2238 21.5819 26.7271C21.6532 27.2731 22.7115 27.4088 23.5561 27.2553C24.3294 27.1125 25.231 26.7056 25.1668 26.2024C25.0991 25.6564 24.0407 25.5207 23.1926 25.6742Z" fill="#EB6549"/>
<path fill-rule="evenodd" clip-rule="evenodd" d="M22.2376 23.8289C23.6167 24.9068 25.2452 24.9496 25.2488 24.6748C25.2666 23.5256 23.4919 23.2793 23.72 23.1687C25.1205 22.8403 26.61 21.7196 25.5374 21.6625C24.1405 21.584 23.5418 21.7054 22.4977 22.1301C22.3017 21.0772 21.7743 20.2742 20.9832 19.6639C20.7623 20.599 20.7445 21.5055 21.1507 22.3549C20.4986 22.2157 19.7467 22.1122 19.1017 22.1158C19.1908 22.6369 19.7966 23.3221 20.1707 23.497C20.8977 23.8254 21.5356 23.8896 22.2376 23.8289Z" fill="#327432"/>
<path fill-rule="evenodd" clip-rule="evenodd" d="M13.4998 27.3802C9.11666 26.7842 7.66987 29.3325 7.84449 31.8059C8.02266 34.2792 10.3746 36.3635 13.4998 36.3635C16.6215 36.3635 18.9876 34.422 19.1872 31.5632C19.3868 28.7008 16.7996 26.7592 13.4998 27.3802Z" fill="#D42126"/>
<path fill-rule="evenodd" clip-rule="evenodd" d="M13.4784 27.3587C10.6276 26.859 8.45738 28.0511 8.40749 29.907C8.35404 31.87 11.1514 33.3083 13.5461 33.3083C15.9408 33.3083 18.4353 32.0984 18.674 30.3067C18.9235 28.408 16.486 26.7841 13.4784 27.3587Z" fill="#E6392E"/>
<path fill-rule="evenodd" clip-rule="evenodd" d="M14.7434 29.9535C14.0129 30.1212 13.179 30.5602 13.2681 31.0599C13.3643 31.6024 14.3799 31.7023 15.1781 31.5203C15.9087 31.3525 16.7425 30.9135 16.6534 30.4139C16.5572 29.8714 15.5416 29.7679 14.7434 29.9535Z" fill="#EB6549"/>
<path fill-rule="evenodd" clip-rule="evenodd" d="M13.596 29.0755C15.7092 29.2004 16.6642 28.9791 16.201 28.5829C15.7341 28.1832 15.2245 27.7335 14.1056 27.6122C14.4334 26.5914 14.1911 25.6492 13.7813 24.7391C13.1434 25.46 12.7016 26.2488 12.6588 27.1874C12.1492 26.7556 11.5363 26.3095 10.9661 26.0061C10.7986 26.5058 10.9697 27.2231 11.2583 27.5158C11.579 27.8441 11.8142 28.0583 12.0209 28.226C10.9911 29.0398 11.0018 29.8214 11.2191 29.8143C11.8784 29.7893 12.7978 29.8642 13.596 29.0755Z" fill="#327432"/>
<path fill-rule="evenodd" clip-rule="evenodd" d="M26.6636 29.7678C22.2804 29.1718 20.8336 31.7201 21.0083 34.1934C21.1864 36.6668 23.5384 38.7511 26.6636 38.7511C29.7852 38.7511 32.1514 36.8095 32.351 33.9507C32.5505 31.0883 29.9634 29.1468 26.6636 29.7678Z" fill="#D42126"/>
<path fill-rule="evenodd" clip-rule="evenodd" d="M26.6422 29.7464C23.7914 29.2467 21.6212 30.4388 21.5713 32.2947C21.5178 34.2576 24.3116 35.696 26.7099 35.696C29.1046 35.696 31.5991 34.4861 31.8343 32.6944C32.0873 30.7957 29.6498 29.1718 26.6422 29.7464Z" fill="#E6392E"/>
<path fill-rule="evenodd" clip-rule="evenodd" d="M27.9072 32.3411C27.1767 32.5089 26.3428 32.9479 26.4319 33.4475C26.5281 33.99 27.5437 34.09 28.3419 33.9079C29.0725 33.7402 29.9063 33.3012 29.8172 32.8015C29.721 32.259 28.7054 32.1555 27.9072 32.3411Z" fill="#EB6549"/>
<path fill-rule="evenodd" clip-rule="evenodd" d="M26.9344 31.3453C28.652 30.1069 30.7118 28.6007 29.3255 28.7899C27.9393 28.979 27.4618 29.0968 26.5175 29.7107C26.1291 28.7114 25.3451 28.1332 24.4542 27.6871C24.415 28.6471 24.5682 29.543 25.1277 30.296C24.4578 30.2817 23.7059 30.3246 23.0715 30.4495C23.2569 30.9456 23.8448 31.3703 24.2511 31.4381C25.4841 31.638 25.6943 31.4809 26.9344 31.3453Z" fill="#327432"/>
<path fill-rule="evenodd" clip-rule="evenodd" d="M19.3904 35.7067C14.7222 35.0714 13.1792 37.7839 13.3681 40.4178C13.5569 43.0518 16.0657 45.2717 19.3904 45.2717C22.7152 45.2717 25.2952 43.216 25.4841 40.1573C25.6729 37.1022 22.9076 35.0464 19.3904 35.7067Z" fill="#D42126"/>
<path fill-rule="evenodd" clip-rule="evenodd" d="M19.369 35.6816C16.3328 35.1463 14.0201 36.4204 13.9667 38.3977C13.9096 40.4856 16.8888 42.0203 19.4402 42.0203C21.9917 42.0203 24.6466 40.7318 24.8996 38.8224C25.1668 36.7988 22.5726 35.0713 19.369 35.6816Z" fill="#E6392E"/>
<path fill-rule="evenodd" clip-rule="evenodd" d="M20.4452 39.0723C19.6185 39.2222 18.6599 39.6612 18.7312 40.1965C18.806 40.7783 19.9321 40.9246 20.8372 40.7604C21.664 40.6105 22.6225 40.1716 22.5513 39.6362C22.4764 39.0544 21.3504 38.9081 20.4452 39.0723Z" fill="#EB6549"/>
<path fill-rule="evenodd" clip-rule="evenodd" d="M19.4296 37.1093C20.8978 38.2585 22.6332 38.3014 22.6368 38.0087C22.6582 36.7845 20.7624 36.5204 21.0083 36.4026C22.5014 36.0529 24.0871 34.8608 22.9468 34.7966C21.4573 34.7145 20.8229 34.8394 19.7111 35.2927C19.5044 34.1684 18.9378 33.3154 18.0968 32.6658C17.8617 33.6616 17.8438 34.6288 18.275 35.5318C17.5801 35.3819 16.7819 35.2748 16.0941 35.2784C16.1868 35.8316 16.8354 36.5632 17.2345 36.7488C18.0006 37.1022 18.6813 37.1735 19.4296 37.1093Z" fill="#327432"/>
<path fill-rule="evenodd" clip-rule="evenodd" d="M6.18034 33.2512C1.40521 32.6016 -0.177 35.3784 0.0154305 38.073C0.207861 40.7676 2.7736 43.0411 6.18034 43.0411C9.58707 43.0411 12.2241 40.9389 12.4165 37.8089C12.6089 34.6788 9.7795 32.5767 6.18034 33.2512Z" fill="#D42126"/>
<path fill-rule="evenodd" clip-rule="evenodd" d="M6.15896 33.2262C3.05156 32.6801 0.685375 33.9828 0.631922 36.0029C0.574906 38.1407 3.62172 39.7111 6.23023 39.7111C8.84229 39.7111 11.5577 38.3941 11.8178 36.4383C12.0922 34.3718 9.4374 32.6016 6.15896 33.2262Z" fill="#E6392E"/>
<path fill-rule="evenodd" clip-rule="evenodd" d="M7.26013 36.6989C6.41557 36.8524 5.4356 37.2985 5.50331 37.8481C5.57814 38.4406 6.73272 38.594 7.65568 38.4227C8.50023 38.2693 9.48021 37.8231 9.4125 37.2735C9.33767 36.6775 8.18665 36.5276 7.26013 36.6989Z" fill="#EB6549"/>
<path fill-rule="evenodd" clip-rule="evenodd" d="M5.95935 34.7502C7.14957 36.242 8.86719 36.6953 8.93846 36.4062C9.24849 35.1927 7.42396 34.4825 7.69836 34.4218C9.26631 34.4254 11.13 33.6152 10.0075 33.2833C8.54647 32.8479 7.8801 32.8229 6.6685 33.0085C6.72908 31.8414 6.36916 30.8563 5.68496 30.0105C5.21457 30.9491 4.96869 31.9056 5.18607 32.905C4.52681 32.5909 3.76066 32.2947 3.07289 32.1341C3.03726 32.7087 3.50764 33.5902 3.86043 33.8686C4.5375 34.404 5.20032 34.636 5.95935 34.7502Z" fill="#327432"/>
<path fill-rule="evenodd" clip-rule="evenodd" d="M11.5898 41.1958C6.80752 40.5427 5.22531 43.3265 5.41774 46.0247C5.61017 48.7229 8.17948 51 11.5898 51C14.9965 51 17.5801 48.8835 17.7974 45.7606C18.0113 42.6377 15.1889 40.5213 11.5898 41.1958Z" fill="#D42126"/>
<path fill-rule="evenodd" clip-rule="evenodd" d="M11.5648 41.1708C8.45386 40.6248 6.08412 41.9275 6.03066 43.9511C5.97365 46.0926 9.02403 47.6629 11.6361 47.6629C14.2517 47.6629 16.9707 46.3424 17.2308 44.3866C17.5088 42.3165 14.8468 40.5463 11.5648 41.1708Z" fill="#E6392E"/>
<path fill-rule="evenodd" clip-rule="evenodd" d="M12.9475 44.0047C12.1493 44.1867 11.2406 44.6686 11.3368 45.211C11.4401 45.7999 12.5484 45.9106 13.4214 45.7107C14.2197 45.5287 15.1284 45.0469 15.0322 44.5044C14.9253 43.9155 13.817 43.8048 12.9475 44.0047Z" fill="#EB6549"/>
<path fill-rule="evenodd" clip-rule="evenodd" d="M12.3988 42.3665C12.8941 42.2487 13.2754 41.9846 13.5355 41.7312C14.291 40.9995 14.3052 40.4071 13.8527 40.4428C13.2433 40.4892 12.5199 40.5498 11.6397 41.2565C11.3083 40.2143 10.6277 39.6933 9.71898 39.5576C9.50873 40.3643 9.72967 41.2601 10.3604 41.956C9.69404 42.0096 8.9457 42.1238 8.32921 42.3129C8.56084 42.7876 9.18089 43.1695 9.58713 43.2338C10.0433 43.3051 10.6491 43.248 11.1337 43.0339C11.3511 44.3187 13.0259 44.6614 13.1756 44.5043C13.6246 44.0189 13.1792 42.5128 12.3988 42.3665Z" fill="#327432"/>
<path d="M12.0638 41.7705L11.2691 41.6741C11.54 39.4506 12.1172 37.4412 13.0224 35.5711C10.054 37.8338 6.66148 39.2829 3.9532 39.3864L3.92113 38.5833C6.92518 38.4691 11.0197 36.4669 14.1378 33.5867C14.4656 33.0763 14.8255 32.5695 15.214 32.0734C11.1836 31.7736 8.51808 31.5844 6.52963 33.8044L5.93452 33.269C8.1938 30.7457 11.1872 30.967 15.3244 31.2775L15.8304 31.3132C17.402 29.4537 19.3797 27.6906 21.7352 26.0453C21.7388 26.0417 21.7423 26.0417 21.7459 26.0382C17.7262 25.8704 15.6523 26.5771 13.8171 28.6257L13.2219 28.0903C15.6594 25.3672 18.5993 24.996 22.8363 25.2958C25.3522 23.629 27.975 22.1872 30.7545 20.9487C27.6899 19.4604 24.0194 20.5311 22.6011 22.6511L21.9348 22.2086C23.6381 19.6674 28.1567 18.4289 31.6881 20.5454C33.0031 19.9886 34.3537 19.4747 35.7434 19L36 19.7602C33.224 20.706 30.612 21.816 28.1211 23.1115C27.1803 24.764 26.4961 27.58 27.1553 30.0712L26.3821 30.2782C25.7834 28.0225 26.1718 25.5777 26.9202 23.7575C25.2987 24.6569 23.7272 25.6348 22.1913 26.7056C22.0809 26.7805 21.974 26.859 21.8671 26.934C20.3989 29.5679 19.704 32.9942 20.0568 35.9208L19.2621 36.0172C18.9485 33.4011 19.394 30.5102 20.463 27.9904C18.047 29.8999 16.1369 31.9485 14.7614 34.1042L14.7578 34.1077C14.6972 34.2041 14.6367 34.3005 14.5796 34.3933C13.2255 36.6061 12.4023 39.0188 12.0638 41.7705Z" fill="#327432"/>
</svg>
