<svg width="78" height="37" viewBox="0 0 78 37" fill="none" xmlns="http://www.w3.org/2000/svg">
<g clip-path="url(#clip0)">
<path d="M36.9835 5.71572C36.4902 7.06829 36.7851 8.64354 37.8703 9.72867C38.9555 10.8138 40.5307 11.1088 41.8832 10.6154C42.3766 9.26286 42.0817 7.6876 40.9965 6.60247C39.9114 5.51735 38.336 5.22228 36.9835 5.71572Z" fill="#8A8B47"/>
<path d="M45.2399 6.6965C45.6584 7.84382 45.4082 9.18001 44.4877 10.1005C43.5673 11.0209 42.231 11.2711 41.0838 10.8526C40.6652 9.70533 40.9154 8.36913 41.8359 7.44869C42.7564 6.52825 44.0926 6.278 45.2399 6.6965Z" fill="#A7A951"/>
<path d="M27.1581 22.2664V24.0593C26.833 24.3939 26.4008 24.5782 25.9413 24.5782C25.4214 24.5781 25 25.012 25 25.547C25 26.0821 25.4214 26.5158 25.9412 26.5158C26.9036 26.5158 27.8083 26.13 28.4891 25.4294C29.1599 24.7387 30.2517 24.7386 30.9228 25.4295C31.6034 26.13 32.5082 26.5158 33.4705 26.5158C34.4329 26.5158 35.3377 26.13 36.0184 25.4294C36.6892 24.7387 37.7811 24.7386 38.4521 25.4295C39.1327 26.13 40.0376 26.5158 40.9999 26.5158L43.5753 22.2663H27.1581V22.2664Z" fill="#D5A150"/>
<path d="M56.0589 24.5781C55.5994 24.5781 55.1671 24.3938 54.8421 24.0593H54.8394L54.8421 24.0592V22.2663H41V26.5158C41.9624 26.5158 42.8672 26.13 43.5479 25.4294C44.2187 24.7387 45.3105 24.7386 45.9816 25.4295C46.6622 26.13 47.5671 26.5158 48.5294 26.5158C49.4918 26.5158 50.3965 26.13 51.0773 25.4294C51.7481 24.7387 52.8399 24.7386 53.511 25.4295C54.1916 26.13 55.0963 26.5158 56.0587 26.5158C56.5786 26.5158 56.9999 26.0821 56.9999 25.547C57.0001 25.012 56.5787 24.5781 56.0589 24.5781Z" fill="#AD712C"/>
<path d="M28.1273 20.045C27.3527 20.045 26.7247 20.6729 26.7247 21.4476V21.4892C26.7247 21.6915 26.6604 21.8896 26.5355 22.0486C26.4286 22.1849 26.3302 22.3622 26.2854 22.6465C26.1188 23.7631 27.777 24.6674 28.9708 23.5717L29.6003 22.9941C30.2305 23.5723 30.6305 24.0648 31.4869 24.0648C32.3414 24.0643 32.7393 23.5753 33.3727 22.9941C34.0027 23.5721 34.4027 24.0648 35.2593 24.0648C36.1138 24.0643 36.5117 23.5753 37.1451 22.9941C37.7753 23.5723 38.1752 24.0648 39.0317 24.0648C39.8862 24.0643 40.3667 23.5753 41.0001 22.9941L44.2194 20.045H28.1273Z" fill="#8D472E"/>
<path d="M55.7147 22.6466C55.6709 22.3692 55.5763 22.1936 55.4723 22.0587C55.3447 21.8929 55.2786 21.6881 55.2833 21.4789C55.3008 20.6922 54.6679 20.045 53.881 20.045H41V22.9941C41.6335 23.5753 42.1139 24.0643 42.9685 24.0648C43.8249 24.0648 44.2249 23.5723 44.855 22.9941C45.4885 23.5753 45.8864 24.0643 46.7409 24.0648C47.5974 24.0648 47.9974 23.5722 48.6274 22.9941C49.2609 23.5753 49.6588 24.0643 50.5133 24.0648C51.3697 24.0648 51.7696 23.5723 52.3998 22.9941L53.0294 23.5718C54.2231 24.6674 55.8813 23.7631 55.7147 22.6466Z" fill="#6F3D28"/>
<path d="M27.1581 17.6305V19.4234C26.833 19.758 26.4008 19.9423 25.9413 19.9423C25.4214 19.9423 25 20.3761 25 20.9111C25 21.4461 25.4214 21.8799 25.9412 21.8799C26.9036 21.8799 27.8083 21.494 28.4891 20.7935C29.1599 20.1028 30.2517 20.1027 30.9228 20.7935C31.6034 21.494 32.5082 21.8799 33.4705 21.8799C34.4329 21.8799 35.3377 21.494 36.0184 20.7935C36.6892 20.1028 37.7811 20.1027 38.4521 20.7935C39.1327 21.494 40.0376 21.8799 40.9999 21.8799L43.5753 17.6304H27.1581V17.6305Z" fill="#D5A150"/>
<path d="M56.0589 19.9423C55.5994 19.9423 55.1671 19.758 54.8421 19.4235H54.8394L54.8421 19.4234V17.6305H41V21.88C41.9624 21.88 42.8672 21.4941 43.5479 20.7936C44.2187 20.1029 45.3105 20.1028 45.9816 20.7936C46.6622 21.4942 47.5671 21.88 48.5294 21.88C49.4918 21.88 50.3965 21.4941 51.0773 20.7936C51.7481 20.1029 52.8399 20.1028 53.511 20.7936C54.1916 21.4942 55.0963 21.88 56.0587 21.88C56.5786 21.88 56.9999 21.4463 56.9999 20.9112C57.0001 20.3761 56.5787 19.9423 56.0589 19.9423Z" fill="#AD712C"/>
<path d="M28.1273 15.4092C27.3527 15.4092 26.7247 16.0371 26.7247 16.8117V16.8534C26.7247 17.0557 26.6604 17.2538 26.5355 17.4129C26.4286 17.5491 26.3302 17.7265 26.2854 18.0108C26.1188 19.1273 27.777 20.0316 28.9708 18.936L29.6003 18.3583C30.2305 18.9366 30.6305 19.4291 31.4869 19.4291C32.3414 19.4285 32.7393 18.9396 33.3727 18.3583C34.0027 18.9364 34.4027 19.4291 35.2593 19.4291C36.1138 19.4285 36.5117 18.9396 37.1451 18.3583C37.7753 18.9366 38.1752 19.4291 39.0317 19.4291C39.8862 19.4285 40.3667 18.9396 41.0001 18.3583L43.5756 15.4092H28.1273V15.4092Z" fill="#8D472E"/>
<path d="M55.7147 18.0108C55.6709 17.7334 55.5763 17.5578 55.4723 17.4229C55.3447 17.257 55.2786 17.0522 55.2833 16.8431C55.3008 16.0564 54.6679 15.4092 53.881 15.4092H41V18.3583C41.6335 18.9394 42.1139 19.4284 42.9685 19.429C43.8249 19.429 44.2249 18.9365 44.855 18.3583C45.4885 18.9394 45.8864 19.4284 46.7409 19.429C47.5974 19.429 47.9974 18.9364 48.6274 18.3583C49.2609 18.9394 49.6588 19.4284 50.5133 19.429C51.3697 19.429 51.7696 18.9365 52.3998 18.3583L53.0294 18.9359C54.2231 20.0316 55.8813 19.1273 55.7147 18.0108Z" fill="#6F3D28"/>
<path d="M27.1581 12.9948V14.7876C26.833 15.1223 26.4008 15.3066 25.9413 15.3066C25.4214 15.3065 25 15.7403 25 16.2753C25 16.8104 25.4214 17.2441 25.9412 17.2441C26.9036 17.2441 27.8083 16.8583 28.4891 16.1577C29.1599 15.467 30.2517 15.467 30.9228 16.1578C31.6034 16.8583 32.5082 17.2441 33.4705 17.2441C34.4329 17.2441 35.3377 16.8583 36.0184 16.1577C36.6892 15.467 37.7811 15.467 38.4521 16.1578C39.1327 16.8583 40.0376 17.2441 40.9999 17.2441L43.5753 12.9946H27.1581V12.9948Z" fill="#D5A150"/>
<path d="M56.0589 15.3064C55.5994 15.3064 55.1671 15.1221 54.8421 14.7875H54.8394L54.8421 14.7874V12.9946H41V17.2441C41.9624 17.2441 42.8672 16.8582 43.5479 16.1576C44.2187 15.4669 45.3105 15.4669 45.9816 16.1577C46.6622 16.8582 47.5671 17.2441 48.5294 17.2441C49.4918 17.2441 50.3965 16.8582 51.0773 16.1576C51.7481 15.4669 52.8399 15.4669 53.511 16.1577C54.1916 16.8582 55.0963 17.2441 56.0587 17.2441C56.5786 17.2441 56.9999 16.8103 56.9999 16.2753C57.0001 15.7402 56.5787 15.3064 56.0589 15.3064Z" fill="#AD712C"/>
<path d="M28.1273 10.7732C27.3527 10.7732 26.7247 11.4012 26.7247 12.1758V12.2175C26.7247 12.4197 26.6604 12.6179 26.5355 12.7769C26.4286 12.9132 26.3302 13.0905 26.2854 13.3748C26.1188 14.4913 27.777 15.3957 28.9708 14.3L29.6003 13.7224C30.2305 14.3006 30.6305 14.7931 31.4869 14.7931C32.3414 14.7926 32.7393 14.3036 33.3727 13.7224C34.0027 14.3004 34.4027 14.7931 35.2593 14.7931C36.1138 14.7926 36.5117 14.3036 37.1451 13.7224C37.7753 14.3006 38.1752 14.7931 39.0317 14.7931C39.8862 14.7926 40.3667 14.3036 41.0001 13.7224L43.5756 10.7733H28.1273V10.7732Z" fill="#8D472E"/>
<path d="M55.7147 13.3748C55.6709 13.0975 55.5763 12.9219 55.4723 12.7869C55.3447 12.621 55.2786 12.4163 55.2833 12.2071C55.3008 11.4204 54.6679 10.7732 53.881 10.7732H41V13.7223C41.6335 14.3035 42.1139 14.7925 42.9685 14.7931C43.8249 14.7931 44.2249 14.3006 44.855 13.7223C45.4885 14.3035 45.8864 14.7925 46.7409 14.7931C47.5974 14.7931 47.9974 14.3004 48.6274 13.7223C49.2609 14.3035 49.6588 14.7925 50.5133 14.7931C51.3697 14.7931 51.7696 14.3006 52.3998 13.7223L53.0294 14.3C54.2231 15.3957 55.8813 14.4913 55.7147 13.3748Z" fill="#6F3D28"/>
<path d="M39.7833 10.0874C38.3782 8.64111 36.0924 8.64117 34.6875 10.0873C34.3625 10.4219 33.9302 10.6062 33.4707 10.6062C33.0112 10.6062 32.5788 10.4219 32.2539 10.0874C30.8488 8.64111 28.563 8.64117 27.1581 10.0873C26.833 10.4219 26.4008 10.6062 25.9413 10.6062C25.4214 10.6062 25 11.04 25 11.5751C25 12.1101 25.4214 12.5439 25.9412 12.5439C26.9036 12.5439 27.8083 12.158 28.4891 11.4574C29.1599 10.7667 30.2517 10.7667 30.9228 11.4575C31.6034 12.158 32.5082 12.5439 33.4705 12.5439C34.4329 12.5439 35.3377 12.158 36.0184 11.4574C36.6892 10.7667 37.7811 10.7667 38.4521 11.4575C39.1327 12.158 40.0376 12.5439 40.9999 12.5439L41.099 12.4609C41.6929 11.9644 41.6433 11.0365 40.9999 10.6062C40.5405 10.6062 40.1082 10.4219 39.7833 10.0874Z" fill="#D5A150"/>
<path d="M56.059 10.6062C55.5995 10.6062 55.1671 10.4219 54.8422 10.0874C53.4371 8.64111 51.1513 8.64117 49.7464 10.0873C49.4214 10.4219 48.9891 10.6062 48.5296 10.6062C48.0701 10.6062 47.6377 10.4219 47.3128 10.0874C45.9077 8.64111 43.6219 8.64117 42.217 10.0873C41.892 10.4219 41.4597 10.6062 41.0002 10.6062V12.5439C41.9625 12.5439 42.8673 12.1581 43.548 11.4575C44.2189 10.7668 45.3107 10.7667 45.9817 11.4576C46.6624 12.1581 47.5672 12.5439 48.5295 12.5439C49.4919 12.5439 50.3966 12.1581 51.0774 11.4575C51.7482 10.7668 52.84 10.7667 53.5111 11.4576C54.1917 12.1581 55.0965 12.5439 56.0588 12.5439C56.5787 12.5439 57 12.1102 57 11.5751C57.0002 11.04 56.5788 10.6062 56.059 10.6062Z" fill="#AD712C"/>
</g>
<g clip-path="url(#clip1)">
<path d="M11.9835 10.7157C11.4902 12.0683 11.7851 13.6435 12.8703 14.7287C13.9555 15.8138 15.5307 16.1088 16.8832 15.6154C17.3766 14.2629 17.0817 12.6876 15.9965 11.6025C14.9114 10.5173 13.336 10.2223 11.9835 10.7157Z" fill="#8A8B47"/>
<path d="M20.2399 11.6965C20.6584 12.8438 20.4082 14.18 19.4877 15.1005C18.5673 16.0209 17.231 16.2711 16.0838 15.8526C15.6652 14.7053 15.9154 13.3691 16.8359 12.4487C17.7564 11.5282 19.0926 11.278 20.2399 11.6965Z" fill="#A7A951"/>
<path d="M2.15813 27.2664V29.0593C1.83301 29.3939 1.40076 29.5782 0.941254 29.5782C0.421377 29.5781 0 30.012 0 30.547C0 31.0821 0.421377 31.5158 0.941191 31.5158C1.90357 31.5158 2.80832 31.13 3.48908 30.4294C4.15989 29.7387 5.25171 29.7386 5.92277 30.4295C6.6034 31.13 7.50822 31.5158 8.47053 31.5158C9.43291 31.5158 10.3377 31.13 11.0184 30.4294C11.6892 29.7387 12.7811 29.7386 13.4521 30.4295C14.1327 31.13 15.0376 31.5158 15.9999 31.5158L18.5753 27.2663H2.15813V27.2664Z" fill="#D5A150"/>
<path d="M31.0589 29.5781C30.5994 29.5781 30.1671 29.3938 29.8421 29.0593H29.8394L29.8421 29.0592V27.2663H16V31.5158C16.9624 31.5158 17.8672 31.13 18.5479 30.4294C19.2187 29.7387 20.3105 29.7386 20.9816 30.4295C21.6622 31.13 22.5671 31.5158 23.5294 31.5158C24.4918 31.5158 25.3965 31.13 26.0773 30.4294C26.7481 29.7387 27.8399 29.7386 28.511 30.4295C29.1916 31.13 30.0963 31.5158 31.0587 31.5158C31.5786 31.5158 31.9999 31.0821 31.9999 30.547C32.0001 30.012 31.5787 29.5781 31.0589 29.5781Z" fill="#AD712C"/>
<path d="M3.12732 25.045C2.35269 25.045 1.72475 25.6729 1.72475 26.4476V26.4892C1.72475 26.6915 1.66037 26.8896 1.5355 27.0486C1.42856 27.1849 1.33025 27.3622 1.28537 27.6465C1.11881 28.7631 2.777 29.6674 3.97076 28.5717L4.60032 27.9941C5.23051 28.5723 5.63045 29.0648 6.48689 29.0648C7.3414 29.0643 7.73927 28.5753 8.37271 27.9941C9.00272 28.5721 9.40272 29.0648 10.2593 29.0648C11.1138 29.0643 11.5117 28.5753 12.1451 27.9941C12.7753 28.5723 13.1752 29.0648 14.0317 29.0648C14.8862 29.0643 15.3667 28.5753 16.0001 27.9941L19.2194 25.045H3.12732Z" fill="#8D472E"/>
<path d="M30.7147 27.6466C30.6709 27.3692 30.5763 27.1936 30.4723 27.0587C30.3447 26.8929 30.2786 26.6881 30.2833 26.4789C30.3008 25.6922 29.6679 25.045 28.881 25.045H16V27.9941C16.6335 28.5753 17.1139 29.0643 17.9685 29.0648C18.8249 29.0648 19.2249 28.5723 19.855 27.9941C20.4885 28.5753 20.8864 29.0643 21.7409 29.0648C22.5974 29.0648 22.9974 28.5722 23.6274 27.9941C24.2609 28.5753 24.6588 29.0643 25.5133 29.0648C26.3697 29.0648 26.7696 28.5723 27.3998 27.9941L28.0294 28.5718C29.2231 29.6674 30.8813 28.7631 30.7147 27.6466Z" fill="#6F3D28"/>
<path d="M2.15813 22.6305V24.4234C1.83301 24.758 1.40076 24.9423 0.941254 24.9423C0.421377 24.9423 0 25.3761 0 25.9111C0 26.4461 0.421377 26.8799 0.941191 26.8799C1.90357 26.8799 2.80832 26.494 3.48908 25.7935C4.15989 25.1028 5.25171 25.1027 5.92277 25.7935C6.6034 26.494 7.50822 26.8799 8.47053 26.8799C9.43291 26.8799 10.3377 26.494 11.0184 25.7935C11.6892 25.1028 12.7811 25.1027 13.4521 25.7935C14.1327 26.494 15.0376 26.8799 15.9999 26.8799L18.5753 22.6304H2.15813V22.6305Z" fill="#D5A150"/>
<path d="M31.0589 24.9423C30.5994 24.9423 30.1671 24.758 29.8421 24.4235H29.8394L29.8421 24.4234V22.6305H16V26.88C16.9624 26.88 17.8672 26.4941 18.5479 25.7936C19.2187 25.1029 20.3105 25.1028 20.9816 25.7936C21.6622 26.4942 22.5671 26.88 23.5294 26.88C24.4918 26.88 25.3965 26.4941 26.0773 25.7936C26.7481 25.1029 27.8399 25.1028 28.511 25.7936C29.1916 26.4942 30.0963 26.88 31.0587 26.88C31.5786 26.88 31.9999 26.4463 31.9999 25.9112C32.0001 25.3761 31.5787 24.9423 31.0589 24.9423Z" fill="#AD712C"/>
<path d="M3.12732 20.4092C2.35269 20.4092 1.72475 21.0371 1.72475 21.8117V21.8534C1.72475 22.0557 1.66037 22.2538 1.5355 22.4129C1.42856 22.5491 1.33025 22.7265 1.28537 23.0108C1.11881 24.1273 2.777 25.0316 3.97076 23.936L4.60032 23.3583C5.23051 23.9366 5.63045 24.4291 6.48689 24.4291C7.3414 24.4285 7.73927 23.9396 8.37271 23.3583C9.00272 23.9364 9.40272 24.4291 10.2593 24.4291C11.1138 24.4285 11.5117 23.9396 12.1451 23.3583C12.7753 23.9366 13.1752 24.4291 14.0317 24.4291C14.8862 24.4285 15.3667 23.9396 16.0001 23.3583L18.5756 20.4092H3.12732V20.4092Z" fill="#8D472E"/>
<path d="M30.7147 23.0108C30.6709 22.7334 30.5763 22.5578 30.4723 22.4229C30.3447 22.257 30.2786 22.0522 30.2833 21.8431C30.3008 21.0564 29.6679 20.4092 28.881 20.4092H16V23.3583C16.6335 23.9394 17.1139 24.4284 17.9685 24.429C18.8249 24.429 19.2249 23.9365 19.855 23.3583C20.4885 23.9394 20.8864 24.4284 21.7409 24.429C22.5974 24.429 22.9974 23.9364 23.6274 23.3583C24.2609 23.9394 24.6588 24.4284 25.5133 24.429C26.3697 24.429 26.7696 23.9365 27.3998 23.3583L28.0294 23.9359C29.2231 25.0316 30.8813 24.1273 30.7147 23.0108Z" fill="#6F3D28"/>
<path d="M2.15813 17.9948V19.7876C1.83301 20.1223 1.40076 20.3066 0.941254 20.3066C0.421377 20.3065 0 20.7403 0 21.2753C0 21.8104 0.421377 22.2441 0.941191 22.2441C1.90357 22.2441 2.80832 21.8583 3.48908 21.1577C4.15989 20.467 5.25171 20.467 5.92277 21.1578C6.6034 21.8583 7.50822 22.2441 8.47053 22.2441C9.43291 22.2441 10.3377 21.8583 11.0184 21.1577C11.6892 20.467 12.7811 20.467 13.4521 21.1578C14.1327 21.8583 15.0376 22.2441 15.9999 22.2441L18.5753 17.9946H2.15813V17.9948Z" fill="#D5A150"/>
<path d="M31.0589 20.3064C30.5994 20.3064 30.1671 20.1221 29.8421 19.7875H29.8394L29.8421 19.7874V17.9946H16V22.2441C16.9624 22.2441 17.8672 21.8582 18.5479 21.1576C19.2187 20.4669 20.3105 20.4669 20.9816 21.1577C21.6622 21.8582 22.5671 22.2441 23.5294 22.2441C24.4918 22.2441 25.3965 21.8582 26.0773 21.1576C26.7481 20.4669 27.8399 20.4669 28.511 21.1577C29.1916 21.8582 30.0963 22.2441 31.0587 22.2441C31.5786 22.2441 31.9999 21.8103 31.9999 21.2753C32.0001 20.7402 31.5787 20.3064 31.0589 20.3064Z" fill="#AD712C"/>
<path d="M3.12732 15.7732C2.35269 15.7732 1.72475 16.4012 1.72475 17.1758V17.2175C1.72475 17.4197 1.66037 17.6179 1.5355 17.7769C1.42856 17.9132 1.33025 18.0905 1.28537 18.3748C1.11881 19.4913 2.777 20.3957 3.97076 19.3L4.60032 18.7224C5.23051 19.3006 5.63045 19.7931 6.48689 19.7931C7.3414 19.7926 7.73927 19.3036 8.37271 18.7224C9.00272 19.3004 9.40272 19.7931 10.2593 19.7931C11.1138 19.7926 11.5117 19.3036 12.1451 18.7224C12.7753 19.3006 13.1752 19.7931 14.0317 19.7931C14.8862 19.7926 15.3667 19.3036 16.0001 18.7224L18.5756 15.7733H3.12732V15.7732Z" fill="#8D472E"/>
<path d="M30.7147 18.3748C30.6709 18.0975 30.5763 17.9219 30.4723 17.7869C30.3447 17.621 30.2786 17.4163 30.2833 17.2071C30.3008 16.4204 29.6679 15.7732 28.881 15.7732H16V18.7223C16.6335 19.3035 17.1139 19.7925 17.9685 19.7931C18.8249 19.7931 19.2249 19.3006 19.855 18.7223C20.4885 19.3035 20.8864 19.7925 21.7409 19.7931C22.5974 19.7931 22.9974 19.3004 23.6274 18.7223C24.2609 19.3035 24.6588 19.7925 25.5133 19.7931C26.3697 19.7931 26.7696 19.3006 27.3998 18.7223L28.0294 19.3C29.2231 20.3957 30.8813 19.4913 30.7147 18.3748Z" fill="#6F3D28"/>
<path d="M14.7833 15.0874C13.3782 13.6411 11.0924 13.6412 9.68754 15.0873C9.36247 15.4219 8.93016 15.6062 8.47066 15.6062C8.01116 15.6062 7.57884 15.4219 7.2539 15.0874C5.84884 13.6411 3.56295 13.6412 2.15813 15.0873C1.83301 15.4219 1.40076 15.6062 0.941254 15.6062C0.421377 15.6062 0 16.04 0 16.5751C0 17.1101 0.421377 17.5439 0.941191 17.5439C1.90357 17.5439 2.80832 17.158 3.48908 16.4574C4.15989 15.7667 5.25171 15.7667 5.92277 16.4575C6.6034 17.158 7.50822 17.5439 8.47053 17.5439C9.43291 17.5439 10.3377 17.158 11.0184 16.4574C11.6892 15.7667 12.7811 15.7667 13.4521 16.4575C14.1327 17.158 15.0376 17.5439 15.9999 17.5439L16.099 17.4609C16.6929 16.9644 16.6433 16.0365 15.9999 15.6062C15.5405 15.6062 15.1082 15.4219 14.7833 15.0874Z" fill="#D5A150"/>
<path d="M31.059 15.6062C30.5995 15.6062 30.1671 15.4219 29.8422 15.0874C28.4371 13.6411 26.1513 13.6412 24.7464 15.0873C24.4214 15.4219 23.9891 15.6062 23.5296 15.6062C23.0701 15.6062 22.6377 15.4219 22.3128 15.0874C20.9077 13.6411 18.6219 13.6412 17.217 15.0873C16.892 15.4219 16.4597 15.6062 16.0002 15.6062V17.5439C16.9625 17.5439 17.8673 17.1581 18.548 16.4575C19.2189 15.7668 20.3107 15.7667 20.9817 16.4576C21.6624 17.1581 22.5672 17.5439 23.5295 17.5439C24.4919 17.5439 25.3966 17.1581 26.0774 16.4575C26.7482 15.7668 27.84 15.7667 28.5111 16.4576C29.1917 17.1581 30.0965 17.5439 31.0588 17.5439C31.5787 17.5439 32 17.1102 32 16.5751C32.0002 16.04 31.5788 15.6062 31.059 15.6062Z" fill="#AD712C"/>
</g>
<g clip-path="url(#clip2)">
<path d="M57.9835 10.7157C57.4902 12.0683 57.7851 13.6435 58.8703 14.7287C59.9555 15.8138 61.5307 16.1088 62.8832 15.6154C63.3766 14.2629 63.0817 12.6876 61.9965 11.6025C60.9114 10.5173 59.336 10.2223 57.9835 10.7157Z" fill="#8A8B47"/>
<path d="M66.2399 11.6965C66.6584 12.8438 66.4082 14.18 65.4877 15.1005C64.5673 16.0209 63.231 16.2711 62.0838 15.8526C61.6652 14.7053 61.9154 13.3691 62.8359 12.4487C63.7564 11.5282 65.0926 11.278 66.2399 11.6965Z" fill="#A7A951"/>
<path d="M48.1581 27.2664V29.0593C47.833 29.3939 47.4008 29.5782 46.9413 29.5782C46.4214 29.5781 46 30.012 46 30.547C46 31.0821 46.4214 31.5158 46.9412 31.5158C47.9036 31.5158 48.8083 31.13 49.4891 30.4294C50.1599 29.7387 51.2517 29.7386 51.9228 30.4295C52.6034 31.13 53.5082 31.5158 54.4705 31.5158C55.4329 31.5158 56.3377 31.13 57.0184 30.4294C57.6892 29.7387 58.7811 29.7386 59.4521 30.4295C60.1327 31.13 61.0376 31.5158 61.9999 31.5158L64.5753 27.2663H48.1581V27.2664Z" fill="#D5A150"/>
<path d="M77.0589 29.5781C76.5994 29.5781 76.1671 29.3938 75.8421 29.0593H75.8394L75.8421 29.0592V27.2663H62V31.5158C62.9624 31.5158 63.8672 31.13 64.5479 30.4294C65.2187 29.7387 66.3105 29.7386 66.9816 30.4295C67.6622 31.13 68.5671 31.5158 69.5294 31.5158C70.4918 31.5158 71.3965 31.13 72.0773 30.4294C72.7481 29.7387 73.8399 29.7386 74.511 30.4295C75.1916 31.13 76.0963 31.5158 77.0587 31.5158C77.5786 31.5158 77.9999 31.0821 77.9999 30.547C78.0001 30.012 77.5787 29.5781 77.0589 29.5781Z" fill="#AD712C"/>
<path d="M49.1273 25.045C48.3527 25.045 47.7247 25.6729 47.7247 26.4476V26.4892C47.7247 26.6915 47.6604 26.8896 47.5355 27.0486C47.4286 27.1849 47.3302 27.3622 47.2854 27.6465C47.1188 28.7631 48.777 29.6674 49.9708 28.5717L50.6003 27.9941C51.2305 28.5723 51.6305 29.0648 52.4869 29.0648C53.3414 29.0643 53.7393 28.5753 54.3727 27.9941C55.0027 28.5721 55.4027 29.0648 56.2593 29.0648C57.1138 29.0643 57.5117 28.5753 58.1451 27.9941C58.7753 28.5723 59.1752 29.0648 60.0317 29.0648C60.8862 29.0643 61.3667 28.5753 62.0001 27.9941L65.2194 25.045H49.1273Z" fill="#8D472E"/>
<path d="M76.7147 27.6466C76.6709 27.3692 76.5763 27.1936 76.4723 27.0587C76.3447 26.8929 76.2786 26.6881 76.2833 26.4789C76.3008 25.6922 75.6679 25.045 74.881 25.045H62V27.9941C62.6335 28.5753 63.1139 29.0643 63.9685 29.0648C64.8249 29.0648 65.2249 28.5723 65.855 27.9941C66.4885 28.5753 66.8864 29.0643 67.7409 29.0648C68.5974 29.0648 68.9974 28.5722 69.6274 27.9941C70.2609 28.5753 70.6588 29.0643 71.5133 29.0648C72.3697 29.0648 72.7696 28.5723 73.3998 27.9941L74.0294 28.5718C75.2231 29.6674 76.8813 28.7631 76.7147 27.6466Z" fill="#6F3D28"/>
<path d="M48.1581 22.6305V24.4234C47.833 24.758 47.4008 24.9423 46.9413 24.9423C46.4214 24.9423 46 25.3761 46 25.9111C46 26.4461 46.4214 26.8799 46.9412 26.8799C47.9036 26.8799 48.8083 26.494 49.4891 25.7935C50.1599 25.1028 51.2517 25.1027 51.9228 25.7935C52.6034 26.494 53.5082 26.8799 54.4705 26.8799C55.4329 26.8799 56.3377 26.494 57.0184 25.7935C57.6892 25.1028 58.7811 25.1027 59.4521 25.7935C60.1327 26.494 61.0376 26.8799 61.9999 26.8799L64.5753 22.6304H48.1581V22.6305Z" fill="#D5A150"/>
<path d="M77.0589 24.9423C76.5994 24.9423 76.1671 24.758 75.8421 24.4235H75.8394L75.8421 24.4234V22.6305H62V26.88C62.9624 26.88 63.8672 26.4941 64.5479 25.7936C65.2187 25.1029 66.3105 25.1028 66.9816 25.7936C67.6622 26.4942 68.5671 26.88 69.5294 26.88C70.4918 26.88 71.3965 26.4941 72.0773 25.7936C72.7481 25.1029 73.8399 25.1028 74.511 25.7936C75.1916 26.4942 76.0963 26.88 77.0587 26.88C77.5786 26.88 77.9999 26.4463 77.9999 25.9112C78.0001 25.3761 77.5787 24.9423 77.0589 24.9423Z" fill="#AD712C"/>
<path d="M49.1273 20.4092C48.3527 20.4092 47.7247 21.0371 47.7247 21.8117V21.8534C47.7247 22.0557 47.6604 22.2538 47.5355 22.4129C47.4286 22.5491 47.3302 22.7265 47.2854 23.0108C47.1188 24.1273 48.777 25.0316 49.9708 23.936L50.6003 23.3583C51.2305 23.9366 51.6305 24.4291 52.4869 24.4291C53.3414 24.4285 53.7393 23.9396 54.3727 23.3583C55.0027 23.9364 55.4027 24.4291 56.2593 24.4291C57.1138 24.4285 57.5117 23.9396 58.1451 23.3583C58.7753 23.9366 59.1752 24.4291 60.0317 24.4291C60.8862 24.4285 61.3667 23.9396 62.0001 23.3583L64.5756 20.4092H49.1273V20.4092Z" fill="#8D472E"/>
<path d="M76.7147 23.0108C76.6709 22.7334 76.5763 22.5578 76.4723 22.4229C76.3447 22.257 76.2786 22.0522 76.2833 21.8431C76.3008 21.0564 75.6679 20.4092 74.881 20.4092H62V23.3583C62.6335 23.9394 63.1139 24.4284 63.9685 24.429C64.8249 24.429 65.2249 23.9365 65.855 23.3583C66.4885 23.9394 66.8864 24.4284 67.7409 24.429C68.5974 24.429 68.9974 23.9364 69.6274 23.3583C70.2609 23.9394 70.6588 24.4284 71.5133 24.429C72.3697 24.429 72.7696 23.9365 73.3998 23.3583L74.0294 23.9359C75.2231 25.0316 76.8813 24.1273 76.7147 23.0108Z" fill="#6F3D28"/>
<path d="M48.1581 17.9948V19.7876C47.833 20.1223 47.4008 20.3066 46.9413 20.3066C46.4214 20.3065 46 20.7403 46 21.2753C46 21.8104 46.4214 22.2441 46.9412 22.2441C47.9036 22.2441 48.8083 21.8583 49.4891 21.1577C50.1599 20.467 51.2517 20.467 51.9228 21.1578C52.6034 21.8583 53.5082 22.2441 54.4705 22.2441C55.4329 22.2441 56.3377 21.8583 57.0184 21.1577C57.6892 20.467 58.7811 20.467 59.4521 21.1578C60.1327 21.8583 61.0376 22.2441 61.9999 22.2441L64.5753 17.9946H48.1581V17.9948Z" fill="#D5A150"/>
<path d="M77.0589 20.3064C76.5994 20.3064 76.1671 20.1221 75.8421 19.7875H75.8394L75.8421 19.7874V17.9946H62V22.2441C62.9624 22.2441 63.8672 21.8582 64.5479 21.1576C65.2187 20.4669 66.3105 20.4669 66.9816 21.1577C67.6622 21.8582 68.5671 22.2441 69.5294 22.2441C70.4918 22.2441 71.3965 21.8582 72.0773 21.1576C72.7481 20.4669 73.8399 20.4669 74.511 21.1577C75.1916 21.8582 76.0963 22.2441 77.0587 22.2441C77.5786 22.2441 77.9999 21.8103 77.9999 21.2753C78.0001 20.7402 77.5787 20.3064 77.0589 20.3064Z" fill="#AD712C"/>
<path d="M49.1273 15.7732C48.3527 15.7732 47.7247 16.4012 47.7247 17.1758V17.2175C47.7247 17.4197 47.6604 17.6179 47.5355 17.7769C47.4286 17.9132 47.3302 18.0905 47.2854 18.3748C47.1188 19.4913 48.777 20.3957 49.9708 19.3L50.6003 18.7224C51.2305 19.3006 51.6305 19.7931 52.4869 19.7931C53.3414 19.7926 53.7393 19.3036 54.3727 18.7224C55.0027 19.3004 55.4027 19.7931 56.2593 19.7931C57.1138 19.7926 57.5117 19.3036 58.1451 18.7224C58.7753 19.3006 59.1752 19.7931 60.0317 19.7931C60.8862 19.7926 61.3667 19.3036 62.0001 18.7224L64.5756 15.7733H49.1273V15.7732Z" fill="#8D472E"/>
<path d="M76.7147 18.3748C76.6709 18.0975 76.5763 17.9219 76.4723 17.7869C76.3447 17.621 76.2786 17.4163 76.2833 17.2071C76.3008 16.4204 75.6679 15.7732 74.881 15.7732H62V18.7223C62.6335 19.3035 63.1139 19.7925 63.9685 19.7931C64.8249 19.7931 65.2249 19.3006 65.855 18.7223C66.4885 19.3035 66.8864 19.7925 67.7409 19.7931C68.5974 19.7931 68.9974 19.3004 69.6274 18.7223C70.2609 19.3035 70.6588 19.7925 71.5133 19.7931C72.3697 19.7931 72.7696 19.3006 73.3998 18.7223L74.0294 19.3C75.2231 20.3957 76.8813 19.4913 76.7147 18.3748Z" fill="#6F3D28"/>
<path d="M60.7833 15.0874C59.3782 13.6411 57.0924 13.6412 55.6875 15.0873C55.3625 15.4219 54.9302 15.6062 54.4707 15.6062C54.0112 15.6062 53.5788 15.4219 53.2539 15.0874C51.8488 13.6411 49.563 13.6412 48.1581 15.0873C47.833 15.4219 47.4008 15.6062 46.9413 15.6062C46.4214 15.6062 46 16.04 46 16.5751C46 17.1101 46.4214 17.5439 46.9412 17.5439C47.9036 17.5439 48.8083 17.158 49.4891 16.4574C50.1599 15.7667 51.2517 15.7667 51.9228 16.4575C52.6034 17.158 53.5082 17.5439 54.4705 17.5439C55.4329 17.5439 56.3377 17.158 57.0184 16.4574C57.6892 15.7667 58.7811 15.7667 59.4521 16.4575C60.1327 17.158 61.0376 17.5439 61.9999 17.5439L62.099 17.4609C62.6929 16.9644 62.6433 16.0365 61.9999 15.6062C61.5405 15.6062 61.1082 15.4219 60.7833 15.0874Z" fill="#D5A150"/>
<path d="M77.059 15.6062C76.5995 15.6062 76.1671 15.4219 75.8422 15.0874C74.4371 13.6411 72.1513 13.6412 70.7464 15.0873C70.4214 15.4219 69.9891 15.6062 69.5296 15.6062C69.0701 15.6062 68.6377 15.4219 68.3128 15.0874C66.9077 13.6411 64.6219 13.6412 63.217 15.0873C62.892 15.4219 62.4597 15.6062 62.0002 15.6062V17.5439C62.9625 17.5439 63.8673 17.1581 64.548 16.4575C65.2189 15.7668 66.3107 15.7667 66.9817 16.4576C67.6624 17.1581 68.5672 17.5439 69.5295 17.5439C70.4919 17.5439 71.3966 17.1581 72.0774 16.4575C72.7482 15.7668 73.84 15.7667 74.5111 16.4576C75.1917 17.1581 76.0965 17.5439 77.0588 17.5439C77.5787 17.5439 78 17.1102 78 16.5751C78.0002 16.04 77.5788 15.6062 77.059 15.6062Z" fill="#AD712C"/>
</g>
<defs>
<clipPath id="clip0">
<path d="M25 0H57V32H25V0Z" fill="white"/>
</clipPath>
<clipPath id="clip1">
<path d="M0 5H32V37H0V5Z" fill="white"/>
</clipPath>
<clipPath id="clip2">
<path d="M46 5H78V37H46V5Z" fill="white"/>
</clipPath>
</defs>
</svg>
