<svg width="22" height="37" viewBox="0 0 22 37" fill="none" xmlns="http://www.w3.org/2000/svg">
<path fill-rule="evenodd" clip-rule="evenodd" d="M21.681 7.89618L21.6037 8.18706L9.19425 36.2331L8.11122 4.97977L8.18015 4.69826L19.0795 4.31314L21.681 7.89618Z" fill="#D16435"/>
<path fill-rule="evenodd" clip-rule="evenodd" d="M9.17156 36.2175L0.373244 33.1301L8.14409 4.84517L16.4545 8.38706L9.17156 36.2175Z" fill="#F7A92D"/>
<path fill-rule="evenodd" clip-rule="evenodd" d="M14.5465 35.7371L9.17168 36.2174L17.5623 8.68111L21.6721 7.93286L14.5465 35.7371Z" fill="#F39722"/>
<path fill-rule="evenodd" clip-rule="evenodd" d="M21.681 7.89613L19.3769 4.53522L12.1803 2.88695L8.17183 4.70758L17.0158 7.80569L19.1252 5.5045L21.3976 7.8823L21.681 7.89613Z" fill="#ED7423"/>
<path fill-rule="evenodd" clip-rule="evenodd" d="M18.3369 5.80115L11.4109 3.24562L12.2532 0.810577L19.6512 2.73334L18.3369 5.80115Z" fill="#F7A92D"/>
<path fill-rule="evenodd" clip-rule="evenodd" d="M18.3658 5.72665L19.6513 2.73338L20.0579 3.13197L19.9581 5.82065L18.3658 5.72665Z" fill="#ED7423"/>
<path fill-rule="evenodd" clip-rule="evenodd" d="M13.2869 13.0002L7.82501 10.6395L4.5524 23.6588L9.81893 26.1639L13.2869 13.0002Z" fill="#ED7423"/>
</svg>
