<svg width="37" height="37" viewBox="0 0 37 37" fill="none" xmlns="http://www.w3.org/2000/svg">
<path d="M37 6.93752C37 4.8091 35.2746 3.08372 33.1451 3.08372C32.987 3.08372 32.8301 3.09391 32.6754 3.11307C32.5783 3.09384 32.4778 3.08372 32.375 3.08372H4.62503C4.52227 3.08372 4.42182 3.09391 4.32411 3.11307C4.16996 3.09384 4.01358 3.08372 3.85437 3.08372C1.72538 3.08372 7.62939e-05 4.8091 7.62939e-05 6.93752C7.62939e-05 8.80172 1.32394 10.3577 3.08321 10.7146V35.4588C3.08321 36.3101 3.77365 37 4.62503 37H32.375C33.2264 37 33.9174 36.3101 33.9174 35.4588V10.7146C35.6766 10.3578 37 8.80179 37 6.93752Z" fill="#F4BE8E"/>
<path d="M37 3.85497H35.4576V6.93752H37V3.85497Z" fill="#F4BE8E"/>
<path d="M1.5419 3.85497H7.62939e-05V6.93752H1.5419V3.85497Z" fill="#F4BE8E"/>
<path d="M37 3.85495C37 1.72538 35.2746 0 33.1451 0C32.987 0 4.01357 0 3.8543 0C1.72531 0 0 1.72538 0 3.85495C0 5.71915 1.32386 7.27405 3.08313 7.63084V32.375C3.08313 33.2264 3.77358 33.9175 4.62495 33.9175H32.375C33.2263 33.9175 33.9174 33.2265 33.9174 32.375V7.63084C35.6766 7.27405 37 5.71922 37 3.85495Z" fill="#FFD2A6"/>
<path d="M10.0206 6.9375C10.0206 7.36322 9.67578 7.70873 9.25006 7.70873C8.82433 7.70873 8.4794 7.36322 8.4794 6.9375C8.4794 6.51177 8.82433 6.16742 9.25006 6.16742C9.67578 6.16742 10.0206 6.51184 10.0206 6.9375Z" fill="#EAAD7A"/>
<path d="M10.0206 13.1049C10.0206 13.5306 9.67578 13.875 9.25006 13.875C8.82433 13.875 8.4794 13.5306 8.4794 13.1049C8.4794 12.6793 8.82433 12.3338 9.25006 12.3338C9.67578 12.3338 10.0206 12.6793 10.0206 13.1049Z" fill="#EAAD7A"/>
<path d="M10.0206 19.2713C10.0206 19.697 9.67578 20.0425 9.25006 20.0425C8.82433 20.0425 8.4794 19.697 8.4794 19.2713C8.4794 18.8455 8.82433 18.5 9.25006 18.5C9.67578 18.5 10.0206 18.8455 10.0206 19.2713Z" fill="#EAAD7A"/>
<path d="M10.0206 25.4375C10.0206 25.8633 9.67578 26.2088 9.25006 26.2088C8.82433 26.2088 8.4794 25.8633 8.4794 25.4375C8.4794 25.0118 8.82433 24.6675 9.25006 24.6675C9.67578 24.6675 10.0206 25.0118 10.0206 25.4375Z" fill="#EAAD7A"/>
<path d="M14.6457 10.0212C14.6457 10.4469 14.3008 10.7925 13.875 10.7925C13.4493 10.7925 13.1044 10.4469 13.1044 10.0212C13.1044 9.59548 13.4493 9.25005 13.875 9.25005C14.3008 9.25005 14.6457 9.59556 14.6457 10.0212Z" fill="#EAAD7A"/>
<path d="M14.6457 16.1875C14.6457 16.6132 14.3008 16.9587 13.875 16.9587C13.4493 16.9587 13.1044 16.6132 13.1044 16.1875C13.1044 15.7618 13.4493 15.4174 13.875 15.4174C14.3008 15.4174 14.6457 15.7618 14.6457 16.1875Z" fill="#EAAD7A"/>
<path d="M14.6457 22.3551C14.6457 22.7806 14.3008 23.125 13.875 23.125C13.4493 23.125 13.1044 22.7806 13.1044 22.3551C13.1044 21.9293 13.4493 21.5838 13.875 21.5838C14.3008 21.5838 14.6457 21.9293 14.6457 22.3551Z" fill="#EAAD7A"/>
<path d="M14.6457 28.5213C14.6457 28.9471 14.3008 29.2926 13.875 29.2926C13.4493 29.2926 13.1044 28.9471 13.1044 28.5213C13.1044 28.0956 13.4493 27.7501 13.875 27.7501C14.3008 27.7501 14.6457 28.0956 14.6457 28.5213Z" fill="#EAAD7A"/>
<path d="M19.2707 6.9375C19.2707 7.36322 18.9258 7.70873 18.5 7.70873C18.0743 7.70873 17.7294 7.36322 17.7294 6.9375C17.7294 6.51177 18.0743 6.16742 18.5 6.16742C18.9258 6.16742 19.2707 6.51184 19.2707 6.9375Z" fill="#EAAD7A"/>
<path d="M19.2707 13.1049C19.2707 13.5306 18.9258 13.875 18.5 13.875C18.0743 13.875 17.7294 13.5306 17.7294 13.1049C17.7294 12.6793 18.0743 12.3338 18.5 12.3338C18.9258 12.3338 19.2707 12.6793 19.2707 13.1049Z" fill="#EAAD7A"/>
<path d="M19.2707 19.2713C19.2707 19.697 18.9258 20.0425 18.5 20.0425C18.0743 20.0425 17.7294 19.697 17.7294 19.2713C17.7294 18.8455 18.0743 18.5 18.5 18.5C18.9258 18.5 19.2707 18.8455 19.2707 19.2713Z" fill="#EAAD7A"/>
<path d="M19.2707 25.4375C19.2707 25.8633 18.9258 26.2088 18.5 26.2088C18.0743 26.2088 17.7294 25.8633 17.7294 25.4375C17.7294 25.0118 18.0743 24.6675 18.5 24.6675C18.9258 24.6675 19.2707 25.0118 19.2707 25.4375Z" fill="#EAAD7A"/>
<path d="M23.8951 10.0212C23.8951 10.4469 23.5506 10.7925 23.125 10.7925C22.6993 10.7925 22.3549 10.4469 22.3549 10.0212C22.3549 9.59548 22.6993 9.25005 23.125 9.25005C23.5506 9.25005 23.8951 9.59556 23.8951 10.0212Z" fill="#EAAD7A"/>
<path d="M23.8951 16.1875C23.8951 16.6132 23.5506 16.9587 23.125 16.9587C22.6993 16.9587 22.3549 16.6132 22.3549 16.1875C22.3549 15.7618 22.6993 15.4174 23.125 15.4174C23.5506 15.4174 23.8951 15.7618 23.8951 16.1875Z" fill="#EAAD7A"/>
<path d="M23.8951 22.3551C23.8951 22.7806 23.5506 23.125 23.125 23.125C22.6993 23.125 22.3549 22.7806 22.3549 22.3551C22.3549 21.9293 22.6993 21.5838 23.125 21.5838C23.5506 21.5838 23.8951 21.9293 23.8951 22.3551Z" fill="#EAAD7A"/>
<path d="M23.8951 28.5213C23.8951 28.9471 23.5506 29.2926 23.125 29.2926C22.6993 29.2926 22.3549 28.9471 22.3549 28.5213C22.3549 28.0956 22.6993 27.7501 23.125 27.7501C23.5506 27.7501 23.8951 28.0956 23.8951 28.5213Z" fill="#EAAD7A"/>
<path d="M28.52 6.9375C28.52 7.36322 28.1756 7.70873 27.75 7.70873C27.3243 7.70873 26.9799 7.36322 26.9799 6.9375C26.9799 6.51177 27.3244 6.16742 27.75 6.16742C28.1756 6.16742 28.52 6.51184 28.52 6.9375Z" fill="#EAAD7A"/>
<path d="M28.52 13.1049C28.52 13.5306 28.1756 13.875 27.75 13.875C27.3243 13.875 26.9799 13.5306 26.9799 13.1049C26.9799 12.6793 27.3244 12.3338 27.75 12.3338C28.1756 12.3338 28.52 12.6793 28.52 13.1049Z" fill="#EAAD7A"/>
<path d="M28.52 19.2713C28.52 19.697 28.1756 20.0425 27.75 20.0425C27.3243 20.0425 26.9799 19.697 26.9799 19.2713C26.9799 18.8455 27.3243 18.5 27.75 18.5C28.1756 18.5 28.52 18.8455 28.52 19.2713Z" fill="#EAAD7A"/>
<path d="M28.52 25.4375C28.52 25.8633 28.1756 26.2088 27.75 26.2088C27.3243 26.2088 26.9799 25.8633 26.9799 25.4375C26.9799 25.0118 27.3244 24.6675 27.75 24.6675C28.1756 24.6675 28.52 25.0118 28.52 25.4375Z" fill="#EAAD7A"/>
</svg>
