<svg width="25" height="25" viewBox="0 0 25 25" fill="none" xmlns="http://www.w3.org/2000/svg">
<g clip-path="url(#clip0)">
<path fill-rule="evenodd" clip-rule="evenodd" d="M19.7483 6.5H24.9983L25 25H9.96625V24.999L9.8775 25C4.4205 25 -0.00274658 23.5675 -0.00274658 21.7997L-0.00174658 3.25H19.7483V6.5Z" fill="#F1C40F"/>
<path d="M10 3.25H19.75V6.5H10V3.25Z" fill="#F39C12"/>
<path d="M9.875 6.5C15.3288 6.5 19.75 5.04493 19.75 3.25C19.75 1.45507 15.3288 0 9.875 0C4.42119 0 0 1.45507 0 3.25C0 5.04493 4.42119 6.5 9.875 6.5Z" fill="#E67E22"/>
<path opacity="0.2" d="M10.0835 4.328C12.2926 4.328 14.0835 3.82432 14.0835 3.203C14.0835 2.58168 12.2926 2.078 10.0835 2.078C7.87436 2.078 6.0835 2.58168 6.0835 3.203C6.0835 3.82432 7.87436 4.328 10.0835 4.328Z" fill="black"/>
<path fill-rule="evenodd" clip-rule="evenodd" d="M10.167 23.25C10.0344 23.25 9.90721 23.3027 9.81344 23.3964C9.71967 23.4902 9.66699 23.6174 9.66699 23.75C9.66699 23.8826 9.71967 24.0098 9.81344 24.1035C9.90721 24.1973 10.0344 24.25 10.167 24.25C10.2996 24.25 10.4268 24.1973 10.5205 24.1035C10.6143 24.0098 10.667 23.8826 10.667 23.75C10.667 23.6174 10.6143 23.4902 10.5205 23.3964C10.4268 23.3027 10.2996 23.25 10.167 23.25ZM10.167 21.25C10.0344 21.25 9.90721 21.3027 9.81344 21.3964C9.71967 21.4902 9.66699 21.6174 9.66699 21.75C9.66699 21.8826 9.71967 22.0098 9.81344 22.1035C9.90721 22.1973 10.0344 22.25 10.167 22.25C10.2996 22.25 10.4268 22.1973 10.5205 22.1035C10.6143 22.0098 10.667 21.8826 10.667 21.75C10.667 21.6174 10.6143 21.4902 10.5205 21.3964C10.4268 21.3027 10.2996 21.25 10.167 21.25ZM10.167 19.25C10.0344 19.25 9.90721 19.3027 9.81344 19.3964C9.71967 19.4902 9.66699 19.6174 9.66699 19.75C9.66699 19.8826 9.71967 20.0098 9.81344 20.1035C9.90721 20.1973 10.0344 20.25 10.167 20.25C10.2996 20.25 10.4268 20.1973 10.5205 20.1035C10.6143 20.0098 10.667 19.8826 10.667 19.75C10.667 19.6174 10.6143 19.4902 10.5205 19.3964C10.4268 19.3027 10.2996 19.25 10.167 19.25ZM10.167 17.25C10.0344 17.25 9.90721 17.3027 9.81344 17.3964C9.71967 17.4902 9.66699 17.6174 9.66699 17.75C9.66699 17.8826 9.71967 18.0098 9.81344 18.1035C9.90721 18.1973 10.0344 18.25 10.167 18.25C10.2996 18.25 10.4268 18.1973 10.5205 18.1035C10.6143 18.0098 10.667 17.8826 10.667 17.75C10.667 17.6174 10.6143 17.4902 10.5205 17.3964C10.4268 17.3027 10.2996 17.25 10.167 17.25ZM10.167 13.25C10.0344 13.25 9.90721 13.3027 9.81344 13.3964C9.71967 13.4902 9.66699 13.6174 9.66699 13.75C9.66699 13.8826 9.71967 14.0098 9.81344 14.1035C9.90721 14.1973 10.0344 14.25 10.167 14.25C10.2996 14.25 10.4268 14.1973 10.5205 14.1035C10.6143 14.0098 10.667 13.8826 10.667 13.75C10.667 13.6174 10.6143 13.4902 10.5205 13.3964C10.4268 13.3027 10.2996 13.25 10.167 13.25ZM10.167 11.25C10.0344 11.25 9.90721 11.3027 9.81344 11.3964C9.71967 11.4902 9.66699 11.6174 9.66699 11.75C9.66699 11.8826 9.71967 12.0098 9.81344 12.1035C9.90721 12.1973 10.0344 12.25 10.167 12.25C10.2996 12.25 10.4268 12.1973 10.5205 12.1035C10.6143 12.0098 10.667 11.8826 10.667 11.75C10.667 11.6174 10.6143 11.4902 10.5205 11.3964C10.4268 11.3027 10.2996 11.25 10.167 11.25ZM10.167 8.24999C10.234 8.25211 10.3007 8.24075 10.3631 8.21659C10.4256 8.19243 10.4826 8.15596 10.5307 8.10934C10.5788 8.06273 10.6171 8.00692 10.6432 7.94523C10.6693 7.88354 10.6828 7.81724 10.6828 7.75024C10.6828 7.68325 10.6693 7.61694 10.6432 7.55526C10.6171 7.49357 10.5788 7.43776 10.5307 7.39114C10.4826 7.34453 10.4256 7.30806 10.3631 7.2839C10.3007 7.25973 10.234 7.24838 10.167 7.25049C10.0372 7.2546 9.91407 7.30905 9.8237 7.40232C9.73333 7.4956 9.6828 7.62037 9.6828 7.75024C9.6828 7.88011 9.73333 8.00489 9.8237 8.09816C9.91407 8.19144 10.0372 8.24589 10.167 8.24999ZM10.167 9.24999C10.0344 9.24999 9.90721 9.30267 9.81344 9.39644C9.71967 9.49021 9.66699 9.61739 9.66699 9.74999C9.66699 9.8826 9.71967 10.0098 9.81344 10.1035C9.90721 10.1973 10.0344 10.25 10.167 10.25C10.2996 10.25 10.4268 10.1973 10.5205 10.1035C10.6143 10.0098 10.667 9.8826 10.667 9.74999C10.667 9.61739 10.6143 9.49021 10.5205 9.39644C10.4268 9.30267 10.2996 9.24999 10.167 9.24999ZM10.167 15.25C10.0344 15.25 9.90721 15.3027 9.81344 15.3964C9.71967 15.4902 9.66699 15.6174 9.66699 15.75C9.66699 15.8826 9.71967 16.0098 9.81344 16.1035C9.90721 16.1973 10.0344 16.25 10.167 16.25C10.2996 16.25 10.4268 16.1973 10.5205 16.1035C10.6143 16.0098 10.667 15.8826 10.667 15.75C10.667 15.6174 10.6143 15.4902 10.5205 15.3964C10.4268 15.3027 10.2996 15.25 10.167 15.25Z" fill="#F39C12"/>
</g>
<defs>
<clipPath id="clip0">
<rect width="25" height="25" fill="white"/>
</clipPath>
</defs>
</svg>
