<svg width="42" height="37" viewBox="0 0 42 37" fill="none" xmlns="http://www.w3.org/2000/svg">
<path fill-rule="evenodd" clip-rule="evenodd" d="M25.9022 4.06067C20.7886 3.37151 19.1007 6.31797 19.3044 9.17778C19.5122 12.0376 22.2562 14.4476 25.9022 14.4476C29.5442 14.4476 32.3712 12.215 32.575 8.89717C32.7828 5.57517 29.752 3.34675 25.9022 4.06067Z" fill="#D42126"/>
<path fill-rule="evenodd" clip-rule="evenodd" d="M25.8774 4.03598C22.5514 3.45824 20.0195 4.83656 19.9613 6.98244C19.899 9.25213 23.1626 10.9152 25.9564 10.9152C28.7502 10.9152 31.6604 9.51625 31.9348 7.44465C32.2299 5.24924 29.3863 3.37158 25.8774 4.03598Z" fill="#E6392E"/>
<path fill-rule="evenodd" clip-rule="evenodd" d="M27.0581 7.71703C26.1517 7.8821 25.1041 8.35254 25.1789 8.93441C25.262 9.5658 26.4968 9.72261 27.4821 9.54517C28.3843 9.3801 29.4361 8.90965 29.3613 8.32778C29.2823 7.6964 28.0475 7.53958 27.0581 7.71703Z" fill="#EB6549"/>
<path fill-rule="evenodd" clip-rule="evenodd" d="M25.9438 5.58345C27.5528 6.82971 29.4527 6.87923 29.4569 6.56148C29.4777 5.23268 27.4073 4.94793 27.6733 4.82001C29.3072 4.44035 31.045 3.14456 29.7936 3.07854C28.1639 2.98775 27.4655 3.12806 26.2473 3.61913C26.0187 2.40175 25.4034 1.47324 24.4804 0.767578C24.2227 1.84877 24.2019 2.89696 24.6758 3.87912C23.915 3.71818 23.0378 3.59851 22.2853 3.60264C22.3892 4.20513 23.096 4.99746 23.5325 5.19967C24.3806 5.57932 25.1248 5.6536 25.9438 5.58345Z" fill="#327432"/>
<path fill-rule="evenodd" clip-rule="evenodd" d="M15.7498 9.68964C10.6361 9.00048 8.94817 11.9469 9.15189 14.8068C9.35976 17.6666 12.1037 20.0765 15.7498 20.0765C19.3917 20.0765 22.1522 17.8316 22.3851 14.5261C22.6179 11.2165 19.5996 8.97159 15.7498 9.68964Z" fill="#D42126"/>
<path fill-rule="evenodd" clip-rule="evenodd" d="M15.7248 9.66478C12.3989 9.08704 9.86696 10.4654 9.80876 12.6113C9.74639 14.8809 13.01 16.544 15.8038 16.544C18.5976 16.544 21.5078 15.145 21.7864 13.0734C22.0774 10.878 19.2337 9.00038 15.7248 9.66478Z" fill="#E6392E"/>
<path fill-rule="evenodd" clip-rule="evenodd" d="M17.2006 12.6649C16.3484 12.8589 15.3755 13.3665 15.4795 13.9442C15.5917 14.5715 16.7766 14.687 17.7078 14.4766C18.5601 14.2826 19.533 13.775 19.429 13.1973C19.3168 12.57 18.1319 12.4504 17.2006 12.6649Z" fill="#EB6549"/>
<path fill-rule="evenodd" clip-rule="evenodd" d="M15.862 11.6498C18.3274 11.7942 19.4416 11.5383 18.9011 11.0803C18.3565 10.6181 17.7619 10.0981 16.4565 9.95781C16.839 8.77757 16.5563 7.68811 16.0782 6.6358C15.334 7.4694 14.8185 8.38141 14.7686 9.46673C14.1741 8.9674 13.459 8.45156 12.7938 8.10079C12.5984 8.67853 12.7979 9.50799 13.1347 9.84638C13.5089 10.226 13.7833 10.4736 14.0244 10.6676C12.8229 11.6085 12.8354 12.5122 13.089 12.504C13.8581 12.4751 14.9307 12.5618 15.862 11.6498Z" fill="#327432"/>
<path fill-rule="evenodd" clip-rule="evenodd" d="M31.1075 12.4503C25.9938 11.7611 24.3059 14.7076 24.5096 17.5674C24.7175 20.4272 27.4614 22.8372 31.1075 22.8372C34.7494 22.8372 37.51 20.5923 37.7428 17.2868C37.9756 13.9772 34.9573 11.7322 31.1075 12.4503Z" fill="#D42126"/>
<path fill-rule="evenodd" clip-rule="evenodd" d="M31.0825 12.4255C27.7566 11.8478 25.2247 13.2261 25.1665 15.372C25.1041 17.6417 28.3636 19.3047 31.1615 19.3047C33.9553 19.3047 36.8656 17.9058 37.1399 15.8342C37.4351 13.6388 34.5914 11.7611 31.0825 12.4255Z" fill="#E6392E"/>
<path fill-rule="evenodd" clip-rule="evenodd" d="M32.5584 15.4257C31.7061 15.6196 30.7332 16.1272 30.8372 16.705C30.9494 17.3322 32.1343 17.4478 33.0656 17.2373C33.9179 17.0433 34.8907 16.5357 34.7868 15.958C34.6745 15.3308 33.4896 15.2111 32.5584 15.4257Z" fill="#EB6549"/>
<path fill-rule="evenodd" clip-rule="evenodd" d="M31.4235 14.2743C33.4274 12.8423 35.8304 11.1009 34.2131 11.3196C32.5959 11.5383 32.0388 11.6745 30.937 12.3843C30.4839 11.2288 29.5693 10.5603 28.5299 10.0444C28.4842 11.1545 28.6629 12.1903 29.3156 13.061C28.534 13.0445 27.6568 13.094 26.9168 13.2385C27.133 13.8121 27.819 14.3032 28.2929 14.3816C29.7314 14.6127 29.9767 14.4311 31.4235 14.2743Z" fill="#327432"/>
<path fill-rule="evenodd" clip-rule="evenodd" d="M22.6221 19.3171C17.1759 18.5826 15.3757 21.7189 15.596 24.7644C15.8164 27.8099 18.7432 30.3767 22.6221 30.3767C26.501 30.3767 29.511 27.9997 29.7314 24.4631C29.9517 20.9307 26.7255 18.5537 22.6221 19.3171Z" fill="#D42126"/>
<path fill-rule="evenodd" clip-rule="evenodd" d="M22.5971 19.2882C19.055 18.6691 16.3568 20.1424 16.2944 22.4286C16.2279 24.8427 19.7035 26.6172 22.6803 26.6172C25.657 26.6172 28.7543 25.1274 29.0495 22.9197C29.3613 20.5798 26.3347 18.5825 22.5971 19.2882Z" fill="#E6392E"/>
<path fill-rule="evenodd" clip-rule="evenodd" d="M23.8527 23.2086C22.8882 23.3819 21.7699 23.8895 21.853 24.5085C21.9403 25.1811 23.2541 25.3503 24.3101 25.1605C25.2746 24.9872 26.3929 24.4796 26.3098 23.8606C26.2225 23.1879 24.9087 23.0187 23.8527 23.2086Z" fill="#EB6549"/>
<path fill-rule="evenodd" clip-rule="evenodd" d="M22.6678 20.9389C24.3807 22.2677 26.4054 22.3172 26.4095 21.9788C26.4345 20.5634 24.2227 20.258 24.5096 20.1218C26.2516 19.7174 28.1016 18.3391 26.7712 18.2648C25.0334 18.1699 24.2934 18.3143 22.9963 18.8384C22.7551 17.5385 22.0941 16.5522 21.1129 15.8011C20.8386 16.9525 20.8178 18.0708 21.3208 19.1149C20.5101 18.9416 19.5788 18.8178 18.7765 18.8219C18.8846 19.4615 19.6412 20.3075 20.1068 20.5221C21.0007 20.9306 21.7948 21.0132 22.6678 20.9389Z" fill="#327432"/>
<path fill-rule="evenodd" clip-rule="evenodd" d="M7.21039 16.478C1.63941 15.7269 -0.2065 18.9375 0.0180023 22.0531C0.242505 25.1688 3.23587 27.7975 7.21039 27.7975C11.1849 27.7975 14.2614 25.3669 14.4859 21.7478C14.7104 18.1286 11.4094 15.698 7.21039 16.478Z" fill="#D42126"/>
<path fill-rule="evenodd" clip-rule="evenodd" d="M7.18544 16.449C3.56014 15.8176 0.799594 17.3239 0.737233 19.6596C0.670713 22.1315 4.22533 23.9472 7.26859 23.9472C10.316 23.9472 13.484 22.4245 13.7875 20.163C14.1076 17.7737 11.0103 15.7268 7.18544 16.449Z" fill="#E6392E"/>
<path fill-rule="evenodd" clip-rule="evenodd" d="M8.47014 20.4644C7.48483 20.6418 6.34153 21.1576 6.42052 21.7932C6.50782 22.4782 7.85484 22.6556 8.93162 22.4575C9.91693 22.2801 11.0602 21.7643 10.9812 21.1287C10.8939 20.4396 9.55108 20.2663 8.47014 20.4644Z" fill="#EB6549"/>
<path fill-rule="evenodd" clip-rule="evenodd" d="M6.95259 18.2111C8.34117 19.9361 10.3451 20.4602 10.4282 20.1259C10.7899 18.7228 8.6613 17.9016 8.98142 17.8315C10.8107 17.8356 12.985 16.8988 11.6755 16.5151C9.9709 16.0116 9.19345 15.9827 7.77992 16.1973C7.8506 14.8479 7.43069 13.7089 6.63246 12.7309C6.08368 13.8162 5.79681 14.9222 6.05042 16.0776C5.28129 15.7145 4.38744 15.372 3.58505 15.1863C3.54348 15.8507 4.09226 16.87 4.50385 17.1918C5.29376 17.8109 6.06705 18.0791 6.95259 18.2111Z" fill="#327432"/>
<path fill-rule="evenodd" clip-rule="evenodd" d="M13.5214 25.6639C7.94211 24.9087 6.0962 28.1276 6.3207 31.2474C6.54521 34.3671 9.54273 37 13.5214 37C17.4959 37 20.5101 34.5528 20.7637 30.942C21.0131 27.3311 17.7204 24.884 13.5214 25.6639Z" fill="#D42126"/>
<path fill-rule="evenodd" clip-rule="evenodd" d="M13.4923 25.635C9.86284 25.0036 7.09813 26.5099 7.03577 28.8497C6.96925 31.3258 10.528 33.1415 13.5754 33.1415C16.627 33.1415 19.7991 31.6146 20.1026 29.3532C20.4269 26.9597 17.3213 24.9129 13.4923 25.635Z" fill="#E6392E"/>
<path fill-rule="evenodd" clip-rule="evenodd" d="M15.1054 28.9117C14.1741 29.1222 13.114 29.6793 13.2262 30.3065C13.3468 30.9874 14.6398 31.1154 15.6584 30.8843C16.5896 30.6738 17.6498 30.1167 17.5375 29.4894C17.4128 28.8085 16.1198 28.6806 15.1054 28.9117Z" fill="#EB6549"/>
<path fill-rule="evenodd" clip-rule="evenodd" d="M14.4652 27.0175C15.0431 26.8813 15.4879 26.5759 15.7914 26.283C16.6728 25.437 16.6895 24.7519 16.1615 24.7932C15.4505 24.8469 14.6066 24.917 13.5797 25.7341C13.193 24.5291 12.399 23.9266 11.3388 23.7698C11.0935 24.7024 11.3513 25.7382 12.0872 26.5429C11.3097 26.6048 10.4366 26.7369 9.71741 26.9556C9.98764 27.5045 10.711 27.946 11.185 28.0203C11.7171 28.1028 12.4239 28.0368 12.9893 27.7892C13.2429 29.2748 15.1969 29.671 15.3715 29.4894C15.8954 28.9282 15.3757 27.1867 14.4652 27.0175Z" fill="#327432"/>
<path d="M14.0744 26.3284L13.1473 26.217C13.4633 23.646 14.1368 21.3227 15.1928 19.1603C11.7296 21.7766 7.77172 23.4521 4.61206 23.5717L4.57465 22.6432C8.07938 22.5112 12.8563 20.1961 16.4941 16.8658C16.8765 16.2757 17.2964 15.6897 17.7496 15.1161C13.0475 14.7695 9.93776 14.5508 7.6179 17.1176L6.92361 16.4986C9.55943 13.581 13.0517 13.8368 17.8785 14.1959L18.4688 14.2371C20.3023 12.0871 22.6097 10.0485 25.3577 8.14611C25.3619 8.14198 25.3661 8.14199 25.3702 8.13786C20.6806 7.94391 18.261 8.76099 16.1199 11.1297L15.4256 10.5107C18.2693 7.36204 21.6992 6.93286 26.6424 7.2795C29.5776 5.35233 32.6374 3.68514 35.8803 2.25318C32.3048 0.532341 28.0227 1.77036 26.368 4.22162L25.5906 3.7099C27.5778 0.77169 32.8495 -0.660278 36.9695 1.78686C38.5036 1.14309 40.0793 0.548852 41.7007 0L42 0.87899C38.7614 1.97257 35.714 3.25597 32.8079 4.75396C31.7103 6.66462 30.9121 9.92059 31.6812 12.801L30.7791 13.0404C30.0806 10.4323 30.5338 7.60551 31.4068 5.50089C29.5152 6.54082 27.6818 7.67154 25.8899 8.90955C25.761 8.99621 25.6363 9.08701 25.5116 9.17367C23.7987 12.2192 22.988 16.1808 23.3996 19.5647L22.4725 19.6761C22.1066 16.6513 22.6263 13.3086 23.8735 10.3952C21.0548 12.603 18.8264 14.9717 17.2216 17.4642L17.2175 17.4683C17.1468 17.5798 17.0761 17.6912 17.0096 17.7985C15.4298 20.357 14.4694 23.1467 14.0744 26.3284Z" fill="#327432"/>
</svg>
