<svg width="18" height="40" viewBox="0 0 18 40" fill="none" xmlns="http://www.w3.org/2000/svg">
<path fill-rule="evenodd" clip-rule="evenodd" d="M8.53199 38.9244L15.3514 37.1791C16.9061 36.782 17.4177 35.7108 17.0249 34.139L11.4829 12.0039C11.0901 10.4321 9.49582 9.47102 7.94115 9.86814L2.2011 11.3365C0.646429 11.7336 -0.304196 13.3487 0.0885964 14.9205L5.63061 37.0556C6.0201 38.6241 6.97402 39.3215 8.53199 38.9244Z" fill="#C4DDEC"/>
<path d="M12.5846 16.4166L1.19019 19.3328L3.41529 28.2193L14.8097 25.3031L12.5846 16.4166Z" fill="#92ACCD"/>
<path fill-rule="evenodd" clip-rule="evenodd" d="M1.63345 5.03263L5.46565 4.05151L10.9284 10.8859L0.0490723 13.6724L1.63345 5.03263Z" fill="#C4DDEC"/>
<path d="M5.26238 2.69837L1.17627 3.74414L1.64689 5.62367L5.733 4.5779L5.26238 2.69837Z" fill="#C4DDEC"/>
<path fill-rule="evenodd" clip-rule="evenodd" d="M0.90713 4.03826L5.63715 2.82688L4.96049 0.117148C4.22111 -0.083079 3.29359 0.0070202 2.53771 0.187224C1.70922 0.384114 0.781699 0.784572 0.230469 1.32852L0.90713 4.03826Z" fill="#92ACCD"/>
<path d="M5.71403 3.61959L1.20874 4.77264L1.36588 5.40023L5.87117 4.24718L5.71403 3.61959Z" fill="#A9BECB"/>
<path d="M4.92627 18.3797L2.78882 18.9268L5.01392 27.8133L7.15137 27.2663L4.92627 18.3797Z" fill="#A8BCD7"/>
<path d="M7.15185 27.2625L5.0144 27.8096L7.35291 37.149L9.49036 36.602L7.15185 27.2625Z" fill="#D4E6F1"/>
<path d="M3.74365 13.6519L1.6062 14.199L2.78963 18.9253L4.92708 18.3783L3.74365 13.6519Z" fill="#D4E6F1"/>
<path fill-rule="evenodd" clip-rule="evenodd" d="M3.02969 6.00714L2.49166 6.1473L1.61035 14.1998L3.74596 13.6525L3.02969 6.00714Z" fill="#D4E6F1"/>
</svg>
