<svg width="52" height="117" viewBox="0 0 52 117" fill="none" xmlns="http://www.w3.org/2000/svg">
<path fill-rule="evenodd" clip-rule="evenodd" d="M25.8484 116.631L46.5084 111.401C51.2184 110.211 52.7684 107.001 51.5784 102.291L34.7884 35.9609C33.5984 31.2509 28.7684 28.3709 24.0584 29.5609L6.66841 33.9609C1.95841 35.1509 -0.921589 39.9909 0.268411 44.7009L17.0584 111.031C18.2384 115.731 21.1284 117.821 25.8484 116.631Z" fill="#C4DDEC"/>
<path d="M38.1262 49.1837L3.60588 57.9224L10.347 84.5518L44.8674 75.8131L38.1262 49.1837Z" fill="#92ACCD"/>
<path fill-rule="evenodd" clip-rule="evenodd" d="M4.94841 15.0709L16.5584 12.1309L33.1084 32.6108L0.148407 40.9608L4.94841 15.0709Z" fill="#C4DDEC"/>
<path d="M15.9426 8.07547L3.56336 11.2092L4.98914 16.8414L17.3684 13.7077L15.9426 8.07547Z" fill="#C4DDEC"/>
<path fill-rule="evenodd" clip-rule="evenodd" d="M2.74841 12.0908L17.0784 8.4608L15.0284 0.340803C12.7884 -0.259197 9.97841 0.0107945 7.68841 0.550794C5.17841 1.14079 2.36841 2.34081 0.69841 3.97081L2.74841 12.0908Z" fill="#92ACCD"/>
<path d="M17.3109 10.8363L3.6617 14.2915L4.13777 16.1721L17.7869 12.7169L17.3109 10.8363Z" fill="#A9BECB"/>
<path d="M14.9243 55.0663L8.44869 56.7056L15.1898 83.335L21.6654 81.6957L14.9243 55.0663Z" fill="#A8BCD7"/>
<path d="M21.667 81.6849L15.1914 83.3242L22.2761 111.311L28.7517 109.672L21.667 81.6849Z" fill="#D4E6F1"/>
<path d="M11.3416 40.8991L4.86596 42.5383L8.45125 56.7012L14.9268 55.062L11.3416 40.8991Z" fill="#D4E6F1"/>
<path fill-rule="evenodd" clip-rule="evenodd" d="M9.17841 17.9907L7.54841 18.4107L4.87841 42.5407L11.3484 40.9007L9.17841 17.9907Z" fill="#D4E6F1"/>
</svg>
