<svg width="105" height="135" viewBox="0 0 105 135" fill="none" xmlns="http://www.w3.org/2000/svg">
<path fill-rule="evenodd" clip-rule="evenodd" d="M92.4872 36.8393L39.4503 116.498C34.4446 124.014 24.1969 126.066 16.6813 121.06C9.1657 116.054 7.11415 105.807 12.1198 98.291L65.1567 18.6318C70.1624 11.1162 80.4101 9.06467 87.9257 14.0703C95.4413 19.076 97.4928 29.3237 92.4872 36.8393Z" fill="#EB6465"/>
<path fill-rule="evenodd" clip-rule="evenodd" d="M88.3681 14.9766C90.716 14.1715 92.6721 12.8538 94.4725 11.3367C91.8393 10.6196 89.7014 9.10308 87.9231 6.97299C86.6205 9.38518 86.1635 11.6268 86.4857 13.7259C87.1187 14.1465 87.7434 14.5616 88.3681 14.9766ZM17.9455 120.747L16.9329 127.783L10.3835 123.419L16.0632 119.497L17.9455 120.747Z" fill="#EB6465"/>
<path fill-rule="evenodd" clip-rule="evenodd" d="M88.8719 35.938L36.596 114.47C33.5799 119.009 28.1247 121.004 23.0808 119.921C25.0676 118.72 26.865 117.045 28.2707 114.929L86.0863 28.096C87.492 25.9804 88.3538 23.6715 88.6942 21.3884C91.6434 25.6052 91.8964 31.4042 88.8719 35.938Z" fill="#F08C8E"/>
<path d="M81.5958 53.1588L54.2432 34.9846L23.025 81.9688L50.3776 100.143L81.5958 53.1588Z" fill="#BC5D44"/>
<path d="M73.1385 47.5496L41.8626 94.4954L47.4135 98.1935L78.6895 51.2477L73.1385 47.5496Z" fill="#CB6A51"/>
</svg>
