<svg width="45" height="37" viewBox="0 0 45 37" fill="none" xmlns="http://www.w3.org/2000/svg">
<path d="M3.20804 16.4112C2.9485 16.4112 2.76032 16.2345 2.69167 15.9267L0.964057 8.23944C0.834942 7.66935 1.20163 6.93229 1.73039 6.69208L5.29136 5.07704C6.12353 4.69884 7.59714 4.3648 8.50894 4.34546L12.4146 4.26542C13.5738 4.24192 15.3095 3.84852 16.3656 3.36818L19.9265 1.75456C20.7587 1.37635 22.2322 1.04232 23.1442 1.02297L27.0498 0.942932H27.0704C27.6527 0.942932 28.2762 1.44129 28.4039 2.00855L30.1315 9.69714C30.1782 9.90422 30.1493 10.0905 30.0491 10.2189C29.9488 10.3486 29.7758 10.4217 29.5642 10.4273L25.5982 10.5142C24.439 10.5405 22.7047 10.9366 21.6485 11.4184L18.1452 13.0141C17.3144 13.3923 15.8423 13.7277 14.9304 13.7471L11.0247 13.8271C9.86565 13.8506 8.13118 14.244 7.07374 14.7243L3.51417 16.338C3.40721 16.3864 3.3042 16.4112 3.20804 16.4112Z" fill="#ED5564"/>
<path d="M31.046 9.48871L29.3184 1.80145C29.0945 0.802085 28.0879 0 27.0703 0C27.0566 0 27.0428 0 27.0305 0L23.1249 0.0814539C22.0935 0.102127 20.4812 0.467964 19.5405 0.894494L15.9796 2.50953C15.0402 2.93606 13.4267 3.30181 12.3953 3.3239L8.48959 3.40394C7.45825 3.42461 5.84604 3.79045 4.90532 4.21698L1.34576 5.83202C0.405044 6.25855 -0.178563 7.4346 0.0493426 8.44641L1.77696 16.135C1.9473 16.8942 2.5295 17.3539 3.20794 17.3539C3.4318 17.3539 3.66525 17.3042 3.89869 17.1979L7.45966 15.5828C8.40038 15.1563 10.0126 14.7906 11.0439 14.7685L14.9496 14.6884C15.9809 14.6678 17.5932 14.3006 18.5326 13.8727L22.0359 12.277C22.9753 11.849 24.5874 11.4791 25.6188 11.457L29.5849 11.3687C30.6162 11.3466 31.274 10.5004 31.046 9.48871ZM2.11623 7.55059L5.6772 5.93564C6.38851 5.61265 7.74812 5.30477 8.52817 5.28825L12.4339 5.20821C13.722 5.18197 15.5773 4.76101 16.7515 4.22811L20.3125 2.61307C21.0239 2.29008 22.3834 1.98229 23.1635 1.96568L27.0704 1.88564C27.2119 1.88564 27.4591 2.08026 27.4893 2.21693L28.0744 4.82029L24.3857 4.73609C23.2033 4.70986 21.4496 5.10741 20.3935 5.64304L16.8381 7.44573C16.0567 7.84054 14.6065 8.17184 13.7317 8.15107L9.7519 8.05858C8.56808 8.03234 6.81444 8.42989 5.75832 8.96553L2.46375 10.6358L1.87874 8.03101C1.8471 7.89293 1.98711 7.60996 2.11623 7.55059ZM25.5776 9.57149C24.2908 9.60047 22.4354 10.0257 21.2614 10.5598L17.7594 12.1555C17.048 12.4785 15.6912 12.7877 14.9112 12.8043L11.0055 12.8843C9.71877 12.9106 7.86203 13.3315 6.68788 13.8644L3.51284 15.3055L2.88933 12.531L6.60271 10.6496C7.38275 10.2534 8.8343 9.92487 9.70778 9.94422L13.689 10.0353C14.8727 10.0615 16.6264 9.66398 17.6825 9.12835L21.238 7.32558C22.018 6.93085 23.4697 6.59956 24.343 6.62164L28.5013 6.71688L29.1248 9.49419L25.5776 9.57149Z" fill="#DA4453"/>
<path d="M41.4198 36.0586C41.3154 36.0586 41.2042 36.0282 41.0917 35.9702L37.5541 34.1647C36.5213 33.6373 34.8047 33.1653 33.6484 33.0879L29.8114 32.8312C28.9009 32.7704 27.4452 32.3674 26.6322 31.9506L23.1523 30.1699C22.1196 29.6399 20.4043 29.1623 19.248 29.085L15.3506 28.8172C15.1391 28.8034 14.9716 28.7234 14.8768 28.588C14.7834 28.4555 14.7628 28.2705 14.8191 28.0634L16.9079 20.4687C17.0576 19.9248 17.6687 19.4658 18.2413 19.4658C18.2647 19.4658 18.288 19.4658 18.3114 19.4672L22.2088 19.7337C23.1194 19.7958 24.5749 20.2009 25.388 20.6178L28.8679 22.4013C29.9006 22.9287 31.6159 23.4062 32.7722 23.4861L36.6696 23.7511C37.5801 23.8119 39.0372 24.2177 39.8503 24.6346L43.3301 26.4181C43.8479 26.6831 44.1775 27.4368 44.0237 28L41.9349 35.5975C41.8538 35.8902 41.6657 36.0586 41.4198 36.0586Z" fill="#ED5564"/>
<path d="M43.7558 25.5788L40.2759 23.7953C39.3558 23.3234 37.7628 22.8817 36.7328 22.8099L32.8367 22.5449C31.8068 22.4731 30.2138 22.0314 29.2936 21.562L25.8137 19.7779C24.8949 19.3072 23.3006 18.8641 22.272 18.7937L18.3745 18.5272C18.3306 18.5245 18.2866 18.5231 18.2413 18.5231C17.2553 18.5231 16.2665 19.2602 16.0042 20.2175L13.9155 27.8123C13.6408 28.8116 14.2574 29.6869 15.2874 29.7586L19.1848 30.0236C20.2134 30.0954 21.8078 30.5371 22.7265 31.0092L26.2064 32.7926C27.1251 33.2619 28.7196 33.7036 29.7482 33.7727L33.5866 34.0294C34.6151 34.0957 36.2095 34.5374 37.1297 35.0067L40.6673 36.8123C40.9186 36.9393 41.1754 37 41.4198 37C42.0694 37 42.6392 36.5721 42.8384 35.8488L44.9273 28.2513C45.2019 27.2518 44.6746 26.0481 43.7558 25.5788ZM18.2414 20.4081C18.2441 20.4081 18.2455 20.4081 18.2468 20.4081L22.1443 20.6759C22.923 20.7283 24.266 21.101 24.9623 21.4572L28.4422 23.2407C29.5903 23.8285 31.4237 24.3365 32.709 24.4249L36.6065 24.6926C37.3851 24.7451 38.7283 25.1178 39.4245 25.474L42.9043 27.2575C43.0307 27.321 43.157 27.6109 43.1199 27.7488L42.4113 30.3219L39.2007 28.497C38.1707 27.9118 36.4362 27.4314 35.2538 27.401L31.2741 27.3016C30.3993 27.2796 28.9655 26.882 28.2047 26.4513L24.7385 24.4802C23.7086 23.8949 21.9754 23.4146 20.793 23.3843L17.1043 23.2933L17.8116 20.7202C17.846 20.5958 18.0821 20.4081 18.2414 20.4081ZM41.1424 34.9405L37.9784 33.3255C36.8303 32.7402 34.9955 32.2322 33.7101 32.1466L29.8732 31.8928C29.0945 31.8403 27.7528 31.4677 27.0579 31.1114L23.578 29.3279C22.4299 28.7399 20.5966 28.2319 19.3112 28.1436L15.8354 27.9061L16.5894 25.1647L20.7463 25.2696C21.6198 25.289 23.0549 25.6893 23.8157 26.1199L27.2818 28.0911C28.3119 28.6764 30.045 29.1567 31.2274 29.1871L35.2085 29.2865C36.082 29.3058 37.5157 29.7061 38.2765 30.1368L41.8965 32.1962L41.1424 34.9405Z" fill="#DA4453"/>
</svg>
