<svg width="178" height="163" viewBox="0 0 178 163" fill="none" xmlns="http://www.w3.org/2000/svg">
<path fill-rule="evenodd" clip-rule="evenodd" d="M165.487 64.8393L112.45 144.498C107.445 152.014 97.1969 154.066 89.6813 149.06C82.1657 144.054 80.1142 133.807 85.1198 126.291L138.157 46.6318C143.162 39.1162 153.41 37.0647 160.926 42.0703C168.441 47.076 170.493 57.3237 165.487 64.8393Z" fill="#EB6465"/>
<path fill-rule="evenodd" clip-rule="evenodd" d="M161.368 42.9766C163.716 42.1715 165.672 40.8538 167.473 39.3367C164.839 38.6196 162.701 37.1031 160.923 34.973C159.62 37.3852 159.164 39.6268 159.486 41.7259C160.119 42.1465 160.743 42.5616 161.368 42.9766ZM90.9455 148.747L89.9329 155.783L83.3835 151.419L89.0632 147.497L90.9455 148.747Z" fill="#EB6465"/>
<path fill-rule="evenodd" clip-rule="evenodd" d="M161.872 63.938L109.596 142.47C106.58 147.009 101.125 149.004 96.0808 147.921C98.0676 146.72 99.865 145.045 101.271 142.929L159.086 56.096C160.492 53.9804 161.354 51.6715 161.694 49.3884C164.643 53.6052 164.896 59.4042 161.872 63.938Z" fill="#F08C8E"/>
<path d="M154.596 81.1588L127.243 62.9846L96.025 109.969L123.378 128.143L154.596 81.1588Z" fill="#BC5D44"/>
<path d="M146.139 75.5496L114.863 122.495L120.414 126.193L151.689 79.2477L146.139 75.5496Z" fill="#CB6A51"/>
<path fill-rule="evenodd" clip-rule="evenodd" d="M85.9978 68.4062C80.4824 63.5271 50.798 62.8766 42.4471 64.6373C31.593 66.9213 26.7705 66.992 14.3679 78.2774C11.6879 80.7169 8.49889 86.6071 8.39989 91.2457C8.25847 97.9632 10.797 104.292 15.6902 108.153C20.7813 112.169 28.6585 118.632 34.9942 119.382C56.1438 121.878 71.6435 124.862 89.7737 108.782C99.8641 99.8371 103.279 101.796 102.353 81.9473C102.063 75.449 88.5151 70.6265 85.9978 68.4062Z" fill="#B17C40"/>
<path fill-rule="evenodd" clip-rule="evenodd" d="M85.9978 68.4062C80.4823 63.5271 50.798 62.8766 42.4471 64.6373C35.0861 66.1858 30.504 66.7232 24.4583 70.4073C27.9655 71.8922 33.0567 66.6172 40.8773 68.0738C44.8724 68.8163 49.1292 68.5476 52.9122 70.0254C56.6245 71.475 55.8679 76.8985 61.8784 76.3611C73.9699 75.2863 79.4287 79.3027 79.0398 79.5219C71 84.1393 65.3149 93.3882 66.8069 93.8903C69.9464 94.9368 72.5203 92.7589 73.6375 92.0235C75.5043 90.8073 77.0175 87.0455 78.1984 87.2364C81.3662 87.7455 85.5947 84.9737 85.7149 86.0273C86.3867 91.9316 83.1128 95.6156 80.5743 97.0793C78.2974 98.3945 71.2192 102.743 73.6799 103.564C79.1388 105.374 84.1451 103.677 89.9858 102.616C92.2698 102.199 94.4265 103.479 96.8236 103.019C101.448 99.1724 103.004 96.1318 102.339 81.9472C102.063 75.4489 88.5151 70.6265 85.9978 68.4062Z" fill="#C38D43"/>
<path fill-rule="evenodd" clip-rule="evenodd" d="M11.497 81.9684C9.82117 84.7473 8.4706 88.2617 8.41403 91.2598C8.27261 97.9773 10.8111 104.306 15.7043 108.167C20.7955 112.183 28.6726 118.646 35.0083 119.396C56.1579 121.892 71.6577 124.876 89.7879 108.796C99.8783 99.8512 103.294 101.81 102.367 81.9614C102.36 81.7987 102.339 81.6361 102.318 81.4735C101.724 81.4593 101.158 81.5724 100.713 81.8341C97.4741 83.7574 95.9609 85.0585 94.0729 88.3182C92.291 91.3871 93.3587 95.5944 90.9192 98.1753C88.0484 101.216 84.2725 103.097 80.1005 103.281C70.993 103.691 60.7541 102.941 51.6607 102.277C47.22 101.951 42.3764 101.987 37.9428 102.418C34.8669 102.722 31.1192 102.453 27.916 100.198C22.8602 96.6409 19.459 97.5955 15.0467 94.8378C12.989 93.5438 12.3102 90.7153 12.2395 88.2829C12.2112 87.3212 12.9183 82.923 11.497 81.9684Z" fill="#9A6C3B"/>
<path fill-rule="evenodd" clip-rule="evenodd" d="M88.3242 72.0337C89.3919 72.564 85.3897 73.5539 83.9613 73.5822C80.9844 73.6317 77.9509 73.8085 75.3346 74.3317C73.7153 74.6499 72.2516 75.1095 71.0495 75.7459C65.9371 78.4683 61.4258 81.919 58.8944 85.5111C54.4396 91.8326 51.4485 95.2762 48.4716 96.2591C47.9271 96.4359 44.7735 97.2278 42.4966 96.8318C39.6186 96.3298 42.6097 93.9186 44.0593 92.3134C48.6908 87.2152 50.8475 81.3392 56.073 77.2874C58.2933 75.5621 61.1995 74.353 63.6178 73.264C66.8493 71.8003 69.7909 70.0184 73.9911 70.3436C76.2044 70.5204 79.3722 71.0437 81.5642 71.3972C82.9431 71.6164 84.1593 71.277 85.9483 71.4821C86.6837 71.5528 87.6383 71.6872 88.3242 72.0337Z" fill="#C38D43"/>
<path fill-rule="evenodd" clip-rule="evenodd" d="M84.2512 71.779C85.319 72.3093 81.3167 73.2993 79.8884 73.3276C76.9115 73.3771 73.878 73.5538 71.2617 74.0771C69.6424 74.3953 68.1787 74.8549 66.9766 75.4913C61.8642 78.2137 57.3529 81.6643 54.8214 85.2564C52.6931 88.2758 52.7355 88.3324 51.7102 90.4749C49.8151 94.4206 45.7139 96.2449 43.7482 96.457C41.8178 96.6621 39.6964 96.6055 38.3529 96.3651C35.475 95.8631 38.5438 93.6569 39.9863 92.0588C44.6179 86.9606 46.7746 81.0845 52.0001 77.0328C54.2204 75.3075 57.1266 74.0983 59.5449 73.0094C62.7764 71.5457 65.718 69.7637 69.9182 70.089C72.1314 70.2658 75.2993 70.7891 77.4913 71.1426C78.8701 71.3618 80.0864 71.0224 81.8754 71.2275C82.6178 71.3053 83.5724 71.4396 84.2512 71.779Z" fill="#9A6C3B"/>
<path fill-rule="evenodd" clip-rule="evenodd" d="M72.8173 66.5535C66.9836 66.108 60.8177 66.0232 55.8326 66.2283C52.8274 66.6596 50.501 67.5435 47.5877 68.3637C44.83 69.1415 41.6409 70.3224 39.3004 71.97C35.7154 74.4802 33.3183 76.8066 30.3838 80.0522C29.8111 80.6815 25.3422 86.2535 25.2856 86.7343C25.2007 87.4273 26.6362 88.1274 27.3221 88.2193C28.8423 88.4243 30.5465 88.389 31.9465 87.7526C33.7567 86.9323 35.4113 85.7302 36.8538 84.3585C38.7913 82.52 40.1136 80.1087 42.0087 78.2278C43.6986 76.552 45.4169 74.763 47.5594 73.7377C49.7939 72.6771 51.0455 72.0477 53.4143 71.3335C55.6912 70.6406 57.7559 69.3254 60.0682 68.7243C63.6178 67.8051 68.808 68.7385 72.294 67.5859C72.6122 67.4798 72.8102 66.9849 72.8173 66.5535Z" fill="#C38D43"/>
<path fill-rule="evenodd" clip-rule="evenodd" d="M66.5523 65.3938C63.7027 64.9766 61.4541 65.4857 58.7246 65.4857C56.9569 65.4857 55.2245 65.1958 53.9729 65.316C50.9748 65.5988 48.8464 66.2423 44.8088 67.3807C42.0511 68.1585 38.862 69.3394 36.5215 70.987C32.9365 73.4972 30.5394 75.8236 27.6049 79.0692C27.0321 79.6985 22.5632 85.2705 22.5066 85.7514C22.4218 86.4443 23.8572 87.1444 24.5431 87.2363C26.0634 87.4414 27.7675 87.406 29.1676 86.7696C30.9778 85.9494 32.6324 84.7473 34.0749 83.3755C36.0124 81.537 37.3347 79.1258 39.2297 77.2449C40.9197 75.569 42.638 73.7801 44.7805 72.7547C47.015 71.6941 48.2665 71.0648 50.6353 70.3506C52.9122 69.6576 54.977 68.3424 57.2892 67.7414C59.5661 67.1474 62.5218 67.1615 65.2654 67.0625C66.7928 67.006 68.2706 67.0131 69.5222 66.61C71.1132 66.0797 67.91 65.5918 66.5523 65.3938Z" fill="#9A6C3B"/>
<path fill-rule="evenodd" clip-rule="evenodd" d="M92.6446 77.2733C90.0071 77.2521 88.0413 78.0016 85.5735 78.3481C83.9755 78.5744 82.3703 78.5249 81.2531 78.7936C78.5802 79.43 76.7276 80.2785 73.2274 81.8271C69.9253 83.2766 69.6919 83.7787 67.6908 86.7273C67.2524 87.3779 63.9148 92.9781 63.9219 93.4236C63.929 94.0529 65.6189 94.0176 66.2624 94.0105C67.6625 93.9964 68.907 94.2509 70.0879 93.5085C71.6223 92.5397 73.2769 91.4366 74.0972 89.8103C75.1154 87.788 74.4083 85.8505 78.8701 83.7787C80.843 82.8665 82.5542 81.4099 84.5623 80.5755C86.5493 79.7482 89.2222 79.3946 91.69 78.9491C93.0688 78.7017 94.3982 78.5178 95.4801 78.0016C96.866 77.3228 93.8891 77.2874 92.6446 77.2733Z" fill="#9A6C3B"/>
<path fill-rule="evenodd" clip-rule="evenodd" d="M15.1103 99.2289C16.5458 99.7168 19.5156 102.305 20.9157 102.87C24.0765 104.164 26.424 103.825 29.3727 105.529C31.8334 106.943 33.5234 109.595 36.1468 110.677C38.0489 111.462 40.3965 111.603 42.3127 110.861C45.7917 109.503 43.9462 107.247 48.2666 107.085C52.7991 106.922 60.2237 107.757 61.0581 108.86C62.2602 110.444 62.5077 113.18 70.0737 112.558C71.9405 112.402 72.089 110.783 73.7931 110.041C76.3104 108.937 80.2278 108.541 81.8188 108.025C83.5088 107.467 83.2825 108.541 83.2825 108.541C79.1177 110.345 75.1932 112.911 70.7738 113.951C67.3514 114.757 63.7239 114.382 60.2308 113.986C57.961 113.725 55.9458 111.313 53.6618 111.32C48.8181 111.342 48.5353 113.689 47.5029 114.029C46.4776 114.361 38.1549 113.986 36.9599 113.866C36.3306 113.802 34.5841 111.335 32.7809 110.253C31.1334 109.27 28.5171 107.87 28.4959 107.933C27.612 110.67 24.3734 107.078 21.9056 105.685C20.9369 105.14 19.9752 104.575 19.0418 103.981C17.6488 103.097 16.5316 101.838 15.28 100.77C14.3891 100.021 12.3738 98.3026 15.1103 99.2289Z" fill="#785A40"/>
<path fill-rule="evenodd" clip-rule="evenodd" d="M71.26 0C91.28 2.05 96.36 2.69999 116.51 4.73999L134.57 47.12C127.76 58.32 108.43 61.39 108.43 61.39C73.85 67.33 56 48.28 56 48.28C63.22 26.85 66.66 14.24 71.26 0Z" fill="#FFDD5A"/>
<path fill-rule="evenodd" clip-rule="evenodd" d="M105.11 58.14L113.67 4.44995L116.51 4.72995L108.96 61.27C71.57 69.4 56 48.2599 56 48.2599L57.11 44.95C62.77 51.11 69.72 55.14 76.64 57.21C88.72 60.84 100.24 59.15 105.11 58.14Z" fill="#ED7423"/>
<path fill-rule="evenodd" clip-rule="evenodd" d="M134.57 47.12C127.76 58.32 108.43 61.39 108.43 61.39L116.51 4.73999L134.57 47.12Z" fill="#F39722"/>
<path fill-rule="evenodd" clip-rule="evenodd" d="M80.4 43.27C78.43 47.36 74.45 49.73 71.53 48.56C68.6 47.39 67.83 43.13 69.8 39.03C71.77 34.94 75.75 32.57 78.67 33.74C81.6 34.91 82.37 39.18 80.4 43.27Z" fill="#FCF087"/>
<path fill-rule="evenodd" clip-rule="evenodd" d="M98.45 45.6301C97.34 47.9401 95.09 49.2801 93.44 48.6201C91.79 47.9601 91.35 45.5501 92.47 43.2401C93.58 40.9301 95.82 39.5901 97.48 40.2501C99.13 40.9101 99.57 43.3201 98.45 45.6301Z" fill="#FCF087"/>
<path fill-rule="evenodd" clip-rule="evenodd" d="M91.62 31.1899C90.85 32.7899 89.29 33.7199 88.15 33.2599C87 32.7999 86.7 31.13 87.48 29.53C88.25 27.93 89.81 26.9999 90.95 27.4599C92.09 27.9099 92.4 29.5799 91.62 31.1899Z" fill="#FCF087"/>
<path fill-rule="evenodd" clip-rule="evenodd" d="M73.58 34.45C72.51 36.67 70.35 37.96 68.76 37.32C67.17 36.69 66.75 34.37 67.82 32.15C68.89 29.93 71.05 28.64 72.64 29.28C74.23 29.91 74.65 32.22 73.58 34.45Z" fill="#FCF087"/>
<path fill-rule="evenodd" clip-rule="evenodd" d="M103.43 18.2302C103.6 17.9802 103.76 17.7102 103.9 17.4302C104.84 15.4502 104.69 13.2402 103.14 12.2302C103.02 12.1602 102.88 12.0802 102.72 12.0202C101.05 11.3902 99.16 12.4502 98.05 14.1002C97.88 14.3502 97.72 14.6202 97.59 14.9102C97.42 15.2502 97.3 15.6002 97.21 15.9402C96.24 16.0402 95.32 16.7202 94.72 17.6002C94.6 17.7802 94.48 17.9802 94.38 18.1902C93.7 19.6202 93.78 21.2602 94.98 22.0602C95.08 22.1202 95.18 22.1702 95.28 22.2102C96.62 22.7102 98.03 21.8802 98.83 20.6902C98.89 20.6002 98.96 20.5002 99.01 20.4002C100.63 20.8302 102.38 19.7902 103.43 18.2302Z" fill="#FCF087"/>
<path fill-rule="evenodd" clip-rule="evenodd" d="M83.94 18.3801C82.52 21.3201 79.67 23.0201 77.57 22.1801C75.47 21.3401 74.91 18.2801 76.33 15.3401C77.75 12.4001 80.6 10.7001 82.7 11.5401C84.8 12.3801 85.36 15.4401 83.94 18.3801Z" fill="#FCF087"/>
</svg>
