<svg width="33" height="34" viewBox="0 0 33 34" fill="none" xmlns="http://www.w3.org/2000/svg">
<path fill-rule="evenodd" clip-rule="evenodd" d="M25.1434 10.1744C23.5308 8.73544 14.852 8.54359 12.4104 9.06286C9.237 9.73644 7.82705 9.7573 4.20087 13.0856C3.41734 13.8051 2.48495 15.5422 2.45601 16.9102C2.41466 18.8914 3.15685 20.7578 4.58747 21.8964C6.07598 23.0809 8.37904 24.987 10.2314 25.208C16.4149 25.9442 20.9466 26.8242 26.2474 22.082C29.1975 19.444 30.1961 20.0217 29.9252 14.1679C29.8405 12.2514 25.8794 10.8292 25.1434 10.1744Z" fill="#B17C40"/>
<path fill-rule="evenodd" clip-rule="evenodd" d="M25.1434 10.1743C23.5309 8.7354 14.852 8.54355 12.4104 9.06281C10.2583 9.51951 8.91864 9.678 7.15103 10.7645C8.17645 11.2024 9.66496 9.64673 11.9515 10.0763C13.1196 10.2953 14.3641 10.216 15.4702 10.6519C16.5555 11.0794 16.3343 12.6789 18.0916 12.5204C21.6268 12.2034 23.2228 13.3879 23.1091 13.4526C20.7585 14.8143 19.0963 17.5421 19.5326 17.6901C20.4505 17.9988 21.203 17.3565 21.5296 17.1396C22.0754 16.7809 22.5179 15.6714 22.8631 15.7278C23.7893 15.8779 25.0256 15.0604 25.0607 15.3712C25.2571 17.1125 24.2999 18.199 23.5577 18.6306C22.892 19.0185 20.8226 20.301 21.542 20.5429C23.1381 21.0768 24.6018 20.5763 26.3094 20.2635C26.9772 20.1405 27.6077 20.5179 28.3086 20.3824C29.6606 19.2479 30.1155 18.3512 29.9211 14.1679C29.8405 12.2514 25.8794 10.8291 25.1434 10.1743Z" fill="#C38D43"/>
<path fill-rule="evenodd" clip-rule="evenodd" d="M3.3614 14.1742C2.87143 14.9937 2.47657 16.0302 2.46003 16.9144C2.41868 18.8955 3.16086 20.762 4.59149 21.9006C6.08 23.0851 8.38306 24.9912 10.2354 25.2122C16.419 25.9484 20.9506 26.8284 26.2514 22.0862C29.2015 19.4482 30.2001 20.0258 29.9293 14.1721C29.9272 14.1241 29.921 14.0762 29.9148 14.0282C29.7411 14.024 29.5757 14.0574 29.4455 14.1346C28.4986 14.7018 28.0562 15.0855 27.5042 16.0469C26.9832 16.9519 27.2954 18.1928 26.5822 18.9539C25.7428 19.8507 24.6388 20.4054 23.4191 20.4596C20.7563 20.5805 17.7627 20.3595 15.1041 20.1635C13.8058 20.0675 12.3896 20.078 11.0934 20.2052C10.1941 20.2948 9.09837 20.2156 8.16185 19.5503C6.68368 18.5014 5.68927 18.7829 4.39923 17.9696C3.79762 17.588 3.59915 16.7538 3.57847 16.0364C3.5702 15.7528 3.77694 14.4557 3.3614 14.1742Z" fill="#9A6C3B"/>
<path fill-rule="evenodd" clip-rule="evenodd" d="M25.8237 11.2442C26.1358 11.4006 24.9657 11.6926 24.5481 11.7009C23.6777 11.7155 22.7908 11.7676 22.0259 11.922C21.5525 12.0158 21.1245 12.1514 20.7731 12.339C19.2783 13.1419 17.9594 14.1596 17.2192 15.219C15.9168 17.0833 15.0423 18.0989 14.1719 18.3888C14.0127 18.4409 13.0907 18.6745 12.425 18.5577C11.5836 18.4096 12.4581 17.6985 12.8819 17.2251C14.236 15.7216 14.8666 13.9886 16.3944 12.7937C17.0435 12.2848 17.8932 11.9282 18.6002 11.6071C19.545 11.1754 20.4051 10.6499 21.6331 10.7458C22.2802 10.7979 23.2064 10.9523 23.8473 11.0565C24.2504 11.1212 24.606 11.0211 25.129 11.0815C25.344 11.1024 25.6231 11.142 25.8237 11.2442Z" fill="#C38D43"/>
<path fill-rule="evenodd" clip-rule="evenodd" d="M24.6327 11.1691C24.9449 11.3255 23.7748 11.6175 23.3572 11.6258C22.4868 11.6404 21.5999 11.6926 20.835 11.8469C20.3615 11.9407 19.9336 12.0763 19.5821 12.264C18.0874 13.0669 16.7684 14.0845 16.0283 15.1439C15.406 16.0344 15.4184 16.0511 15.1187 16.6829C14.5646 17.8466 13.3655 18.3846 12.7908 18.4472C12.2264 18.5077 11.6062 18.491 11.2134 18.4201C10.372 18.272 11.2692 17.6214 11.691 17.1501C13.0451 15.6465 13.6756 13.9135 15.2034 12.7186C15.8526 12.2098 16.7023 11.8532 17.4093 11.532C18.3541 11.1003 19.2141 10.5748 20.4422 10.6707C21.0893 10.7229 22.0154 10.8772 22.6563 10.9815C23.0595 11.0461 23.4151 10.946 23.9381 11.0065C24.1552 11.0294 24.4343 11.069 24.6327 11.1691Z" fill="#9A6C3B"/>
<path fill-rule="evenodd" clip-rule="evenodd" d="M21.2898 9.628C19.5842 9.49662 17.7814 9.47159 16.3239 9.53207C15.4453 9.65928 14.7651 9.91995 13.9134 10.1619C13.1071 10.3913 12.1747 10.7395 11.4904 11.2254C10.4422 11.9657 9.7414 12.6518 8.88344 13.609C8.71598 13.7946 7.4094 15.4379 7.39286 15.5797C7.36806 15.7841 7.78773 15.9906 7.98827 16.0177C8.43276 16.0782 8.93099 16.0677 9.34034 15.88C9.86958 15.6381 10.3533 15.2836 10.7751 14.879C11.3416 14.3368 11.7282 13.6257 12.2822 13.071C12.7763 12.5768 13.2787 12.0492 13.9051 11.7468C14.5584 11.434 14.9243 11.2484 15.6169 11.0377C16.2826 10.8334 16.8863 10.4455 17.5623 10.2682C18.6001 9.99712 20.1176 10.2724 21.1368 9.93247C21.2298 9.90118 21.2877 9.75521 21.2898 9.628Z" fill="#C38D43"/>
<path fill-rule="evenodd" clip-rule="evenodd" d="M19.4582 9.28605C18.625 9.16301 17.9676 9.31316 17.1696 9.31316C16.6528 9.31316 16.1463 9.22766 15.7803 9.26311C14.9038 9.34653 14.2815 9.5363 13.101 9.87205C12.2947 10.1014 11.3623 10.4497 10.678 10.9356C9.62988 11.6759 8.92904 12.362 8.07108 13.3192C7.90362 13.5048 6.59703 15.1481 6.58049 15.2899C6.55569 15.4943 6.97537 15.7007 7.17591 15.7279C7.62039 15.7883 8.11863 15.7779 8.52797 15.5902C9.05721 15.3483 9.54098 14.9938 9.96273 14.5892C10.5292 14.047 10.9158 13.3359 11.4698 12.7812C11.9639 12.2869 12.4663 11.7593 13.0927 11.457C13.746 11.1441 14.1119 10.9585 14.8045 10.7479C15.4702 10.5435 16.0739 10.1557 16.7499 9.9784C17.4156 9.80323 18.2798 9.8074 19.0819 9.77821C19.5285 9.76152 19.9606 9.76361 20.3265 9.64474C20.7916 9.48834 19.8551 9.34444 19.4582 9.28605Z" fill="#9A6C3B"/>
<path fill-rule="evenodd" clip-rule="evenodd" d="M27.0867 12.7895C26.3155 12.7832 25.7408 13.0043 25.0193 13.1064C24.5521 13.1732 24.0828 13.1586 23.7561 13.2378C22.9747 13.4255 22.433 13.6758 21.4097 14.1325C20.4442 14.56 20.376 14.708 19.7909 15.5777C19.6627 15.7695 18.6869 17.4211 18.689 17.5525C18.6911 17.7381 19.1852 17.7277 19.3733 17.7256C19.7826 17.7214 20.1465 17.7965 20.4917 17.5776C20.9404 17.2918 21.4241 16.9665 21.6639 16.4869C21.9617 15.8905 21.7549 15.3191 23.0594 14.708C23.6362 14.439 24.1365 14.0094 24.7237 13.7633C25.3046 13.5194 26.0861 13.4151 26.8076 13.2837C27.2107 13.2107 27.5994 13.1565 27.9157 13.0043C28.3209 12.8041 27.4505 12.7936 27.0867 12.7895Z" fill="#9A6C3B"/>
<path fill-rule="evenodd" clip-rule="evenodd" d="M4.41803 19.2647C4.83771 19.4086 5.70601 20.1718 6.11535 20.3387C7.03947 20.7203 7.72583 20.6202 8.58793 21.1228C9.30738 21.5399 9.80148 22.3219 10.5685 22.641C11.1246 22.8724 11.811 22.9141 12.3712 22.6952C13.3884 22.2948 12.8488 21.6295 14.112 21.5816C15.4371 21.5336 17.6079 21.7797 17.8518 22.105C18.2033 22.5721 18.2757 23.3792 20.4877 23.1957C21.0335 23.1498 21.0769 22.6722 21.5752 22.4533C22.3112 22.128 23.4565 22.0112 23.9217 21.8589C24.4158 21.6942 24.3496 22.0112 24.3496 22.0112C23.1319 22.5429 21.9845 23.2999 20.6924 23.6065C19.6918 23.8442 18.6312 23.7337 17.61 23.6169C16.9463 23.5398 16.3571 22.8286 15.6894 22.8307C14.2732 22.837 14.1905 23.5293 13.8887 23.6294C13.5889 23.7275 11.1556 23.6169 10.8062 23.5815C10.6222 23.5627 10.1116 22.8349 9.58441 22.5158C9.10271 22.226 8.33778 21.8131 8.33158 21.8318C8.07316 22.6389 7.12629 21.5795 6.40478 21.1687C6.12155 21.0081 5.84038 20.8413 5.56749 20.6661C5.16022 20.4054 4.83358 20.0342 4.46765 19.7193C4.20716 19.4983 3.61795 18.9915 4.41803 19.2647Z" fill="#785A40"/>
</svg>
