<svg width="79" height="64" viewBox="0 0 79 64" fill="none" xmlns="http://www.w3.org/2000/svg">
<path fill-rule="evenodd" clip-rule="evenodd" d="M15.26 0C35.28 2.05 40.36 2.69999 60.51 4.73999L78.57 47.12C71.76 58.32 52.43 61.39 52.43 61.39C17.85 67.33 0 48.28 0 48.28C7.22 26.85 10.66 14.24 15.26 0Z" fill="#FFDD5A"/>
<path fill-rule="evenodd" clip-rule="evenodd" d="M49.11 58.14L57.67 4.44995L60.51 4.72995L52.96 61.27C15.57 69.4 0 48.2599 0 48.2599L1.11 44.95C6.77 51.11 13.72 55.14 20.64 57.21C32.72 60.84 44.24 59.15 49.11 58.14Z" fill="#ED7423"/>
<path fill-rule="evenodd" clip-rule="evenodd" d="M78.57 47.12C71.76 58.32 52.43 61.39 52.43 61.39L60.51 4.73999L78.57 47.12Z" fill="#F39722"/>
<path fill-rule="evenodd" clip-rule="evenodd" d="M24.4 43.27C22.43 47.36 18.45 49.73 15.53 48.56C12.6 47.39 11.83 43.13 13.8 39.03C15.77 34.94 19.75 32.57 22.67 33.74C25.6 34.91 26.37 39.18 24.4 43.27Z" fill="#FCF087"/>
<path fill-rule="evenodd" clip-rule="evenodd" d="M42.45 45.6301C41.34 47.9401 39.09 49.2801 37.44 48.6201C35.79 47.9601 35.35 45.5501 36.47 43.2401C37.58 40.9301 39.82 39.5901 41.48 40.2501C43.13 40.9101 43.57 43.3201 42.45 45.6301Z" fill="#FCF087"/>
<path fill-rule="evenodd" clip-rule="evenodd" d="M35.62 31.1899C34.85 32.7899 33.29 33.7199 32.15 33.2599C31 32.7999 30.7 31.13 31.48 29.53C32.25 27.93 33.81 26.9999 34.95 27.4599C36.09 27.9099 36.4 29.5799 35.62 31.1899Z" fill="#FCF087"/>
<path fill-rule="evenodd" clip-rule="evenodd" d="M17.58 34.45C16.51 36.67 14.35 37.96 12.76 37.32C11.17 36.69 10.75 34.37 11.82 32.15C12.89 29.93 15.05 28.64 16.64 29.28C18.23 29.91 18.65 32.22 17.58 34.45Z" fill="#FCF087"/>
<path fill-rule="evenodd" clip-rule="evenodd" d="M47.43 18.2302C47.6 17.9802 47.76 17.7102 47.9 17.4302C48.84 15.4502 48.69 13.2402 47.14 12.2302C47.02 12.1602 46.88 12.0802 46.72 12.0202C45.05 11.3902 43.16 12.4502 42.05 14.1002C41.88 14.3502 41.72 14.6202 41.59 14.9102C41.42 15.2502 41.3 15.6002 41.21 15.9402C40.24 16.0402 39.32 16.7202 38.72 17.6002C38.6 17.7802 38.48 17.9802 38.38 18.1902C37.7 19.6202 37.78 21.2602 38.98 22.0602C39.08 22.1202 39.18 22.1702 39.28 22.2102C40.62 22.7102 42.03 21.8802 42.83 20.6902C42.89 20.6002 42.96 20.5002 43.01 20.4002C44.63 20.8302 46.38 19.7902 47.43 18.2302Z" fill="#FCF087"/>
<path fill-rule="evenodd" clip-rule="evenodd" d="M27.94 18.3801C26.52 21.3201 23.67 23.0201 21.57 22.1801C19.47 21.3401 18.91 18.2801 20.33 15.3401C21.75 12.4001 24.6 10.7001 26.7 11.5401C28.8 12.3801 29.36 15.4401 27.94 18.3801Z" fill="#FCF087"/>
</svg>
