<svg width="24" height="19" viewBox="0 0 24 19" fill="none" xmlns="http://www.w3.org/2000/svg">
<path fill-rule="evenodd" clip-rule="evenodd" d="M4.83439 0C10.6877 0.604587 12.1729 0.796283 18.0642 1.39792L23.3444 13.8966C21.3534 17.1998 15.7018 18.1052 15.7018 18.1052C5.59163 19.857 0.372803 14.2388 0.372803 14.2388C2.48372 7.91862 3.48948 4.19967 4.83439 0Z" fill="#FFDD5A"/>
<path fill-rule="evenodd" clip-rule="evenodd" d="M14.7312 17.1467L17.2339 1.31244L18.0642 1.39502L15.8568 18.0698C4.92502 20.4675 0.372803 14.2329 0.372803 14.2329L0.697335 13.2567C2.35216 15.0734 4.38414 16.262 6.40735 16.8724C9.93919 17.943 13.3073 17.4446 14.7312 17.1467Z" fill="#ED7423"/>
<path fill-rule="evenodd" clip-rule="evenodd" d="M23.3445 13.8967C21.3534 17.1998 15.7019 18.1052 15.7019 18.1052L18.0643 1.39795L23.3445 13.8967Z" fill="#F39722"/>
<path fill-rule="evenodd" clip-rule="evenodd" d="M7.50671 12.7612C6.93074 13.9674 5.7671 14.6664 4.91337 14.3213C4.05673 13.9763 3.8316 12.7199 4.40757 11.5108C4.98354 10.3045 6.14718 9.60555 7.00091 9.95061C7.85755 10.2957 8.08268 11.555 7.50671 12.7612Z" fill="#FCF087"/>
<path fill-rule="evenodd" clip-rule="evenodd" d="M12.784 13.4572C12.4595 14.1384 11.8016 14.5336 11.3192 14.339C10.8368 14.1443 10.7082 13.4336 11.0356 12.7523C11.3601 12.071 12.0151 11.6758 12.5004 11.8705C12.9828 12.0651 13.1115 12.7759 12.784 13.4572Z" fill="#FCF087"/>
<path fill-rule="evenodd" clip-rule="evenodd" d="M10.787 9.19859C10.5619 9.67047 10.1058 9.94474 9.77249 9.80908C9.43626 9.67342 9.34855 9.18091 9.5766 8.70903C9.80172 8.23716 10.2578 7.96288 10.5911 8.09854C10.9244 8.23126 11.0151 8.72377 10.787 9.19859Z" fill="#FCF087"/>
<path fill-rule="evenodd" clip-rule="evenodd" d="M5.51267 10.16C5.19983 10.8148 4.56831 11.1952 4.10344 11.0065C3.63857 10.8207 3.51577 10.1364 3.82861 9.48172C4.14145 8.82699 4.77297 8.44655 5.23784 8.6353C5.70271 8.8211 5.82551 9.50236 5.51267 10.16Z" fill="#FCF087"/>
<path fill-rule="evenodd" clip-rule="evenodd" d="M14.2399 5.37644C14.2896 5.30271 14.3364 5.22309 14.3774 5.14051C14.6522 4.55657 14.6083 3.90479 14.1552 3.60692C14.1201 3.58628 14.0791 3.56268 14.0324 3.54499C13.5441 3.35919 12.9915 3.6718 12.667 4.15842C12.6173 4.23215 12.5705 4.31178 12.5325 4.3973C12.4828 4.49758 12.4477 4.6008 12.4214 4.70107C12.1378 4.73056 11.8688 4.93111 11.6934 5.19064C11.6583 5.24373 11.6232 5.30271 11.594 5.36464C11.3952 5.78638 11.4186 6.27006 11.7694 6.50599C11.7986 6.52369 11.8279 6.53843 11.8571 6.55023C12.2489 6.69769 12.6611 6.4529 12.895 6.10195C12.9126 6.0754 12.933 6.04592 12.9477 6.01642C13.4213 6.14324 13.933 5.83652 14.2399 5.37644Z" fill="#FCF087"/>
<path fill-rule="evenodd" clip-rule="evenodd" d="M8.54173 5.42064C8.12656 6.28771 7.2933 6.78908 6.67932 6.54134C6.06535 6.29361 5.90162 5.39116 6.31678 4.52409C6.73195 3.65702 7.56521 3.15565 8.17919 3.40339C8.79317 3.65112 8.95689 4.55358 8.54173 5.42064Z" fill="#FCF087"/>
</svg>
