<svg width="32" height="32" viewBox="0 0 32 32" fill="none" xmlns="http://www.w3.org/2000/svg">
<g clip-path="url(#clip0)">
<path d="M11.9835 5.71572C11.4902 7.06829 11.7851 8.64354 12.8703 9.72867C13.9555 10.8138 15.5307 11.1088 16.8832 10.6154C17.3766 9.26286 17.0817 7.6876 15.9965 6.60247C14.9114 5.51735 13.336 5.22228 11.9835 5.71572Z" fill="#8A8B47"/>
<path d="M20.2399 6.6965C20.6584 7.84382 20.4082 9.18001 19.4877 10.1005C18.5673 11.0209 17.231 11.2711 16.0838 10.8526C15.6652 9.70533 15.9154 8.36913 16.8359 7.44869C17.7564 6.52825 19.0926 6.278 20.2399 6.6965Z" fill="#A7A951"/>
<path d="M2.15813 22.2664V24.0593C1.83301 24.3939 1.40076 24.5782 0.941254 24.5782C0.421377 24.5781 0 25.012 0 25.547C0 26.0821 0.421377 26.5158 0.941191 26.5158C1.90357 26.5158 2.80832 26.13 3.48908 25.4294C4.15989 24.7387 5.25171 24.7386 5.92277 25.4295C6.6034 26.13 7.50822 26.5158 8.47053 26.5158C9.43291 26.5158 10.3377 26.13 11.0184 25.4294C11.6892 24.7387 12.7811 24.7386 13.4521 25.4295C14.1327 26.13 15.0376 26.5158 15.9999 26.5158L18.5753 22.2663H2.15813V22.2664Z" fill="#D5A150"/>
<path d="M31.0589 24.5781C30.5994 24.5781 30.1671 24.3938 29.8421 24.0593H29.8394L29.8421 24.0592V22.2663H16V26.5158C16.9624 26.5158 17.8672 26.13 18.5479 25.4294C19.2187 24.7387 20.3105 24.7386 20.9816 25.4295C21.6622 26.13 22.5671 26.5158 23.5294 26.5158C24.4918 26.5158 25.3965 26.13 26.0773 25.4294C26.7481 24.7387 27.8399 24.7386 28.511 25.4295C29.1916 26.13 30.0963 26.5158 31.0587 26.5158C31.5786 26.5158 31.9999 26.0821 31.9999 25.547C32.0001 25.012 31.5787 24.5781 31.0589 24.5781Z" fill="#AD712C"/>
<path d="M3.12732 20.045C2.35269 20.045 1.72475 20.6729 1.72475 21.4476V21.4892C1.72475 21.6915 1.66037 21.8896 1.5355 22.0486C1.42856 22.1849 1.33025 22.3622 1.28537 22.6465C1.11881 23.7631 2.777 24.6674 3.97076 23.5717L4.60032 22.9941C5.23051 23.5723 5.63045 24.0648 6.48689 24.0648C7.3414 24.0643 7.73927 23.5753 8.37271 22.9941C9.00272 23.5721 9.40272 24.0648 10.2593 24.0648C11.1138 24.0643 11.5117 23.5753 12.1451 22.9941C12.7753 23.5723 13.1752 24.0648 14.0317 24.0648C14.8862 24.0643 15.3667 23.5753 16.0001 22.9941L19.2194 20.045H3.12732Z" fill="#8D472E"/>
<path d="M30.7147 22.6466C30.6709 22.3692 30.5763 22.1936 30.4723 22.0587C30.3447 21.8929 30.2786 21.6881 30.2833 21.4789C30.3008 20.6922 29.6679 20.045 28.881 20.045H16V22.9941C16.6335 23.5753 17.1139 24.0643 17.9685 24.0648C18.8249 24.0648 19.2249 23.5723 19.855 22.9941C20.4885 23.5753 20.8864 24.0643 21.7409 24.0648C22.5974 24.0648 22.9974 23.5722 23.6274 22.9941C24.2609 23.5753 24.6588 24.0643 25.5133 24.0648C26.3697 24.0648 26.7696 23.5723 27.3998 22.9941L28.0294 23.5718C29.2231 24.6674 30.8813 23.7631 30.7147 22.6466Z" fill="#6F3D28"/>
<path d="M2.15813 17.6305V19.4234C1.83301 19.758 1.40076 19.9423 0.941254 19.9423C0.421377 19.9423 0 20.3761 0 20.9111C0 21.4461 0.421377 21.8799 0.941191 21.8799C1.90357 21.8799 2.80832 21.494 3.48908 20.7935C4.15989 20.1028 5.25171 20.1027 5.92277 20.7935C6.6034 21.494 7.50822 21.8799 8.47053 21.8799C9.43291 21.8799 10.3377 21.494 11.0184 20.7935C11.6892 20.1028 12.7811 20.1027 13.4521 20.7935C14.1327 21.494 15.0376 21.8799 15.9999 21.8799L18.5753 17.6304H2.15813V17.6305Z" fill="#D5A150"/>
<path d="M31.0589 19.9423C30.5994 19.9423 30.1671 19.758 29.8421 19.4235H29.8394L29.8421 19.4234V17.6305H16V21.88C16.9624 21.88 17.8672 21.4941 18.5479 20.7936C19.2187 20.1029 20.3105 20.1028 20.9816 20.7936C21.6622 21.4942 22.5671 21.88 23.5294 21.88C24.4918 21.88 25.3965 21.4941 26.0773 20.7936C26.7481 20.1029 27.8399 20.1028 28.511 20.7936C29.1916 21.4942 30.0963 21.88 31.0587 21.88C31.5786 21.88 31.9999 21.4463 31.9999 20.9112C32.0001 20.3761 31.5787 19.9423 31.0589 19.9423Z" fill="#AD712C"/>
<path d="M3.12732 15.4092C2.35269 15.4092 1.72475 16.0371 1.72475 16.8117V16.8534C1.72475 17.0557 1.66037 17.2538 1.5355 17.4129C1.42856 17.5491 1.33025 17.7265 1.28537 18.0108C1.11881 19.1273 2.777 20.0316 3.97076 18.936L4.60032 18.3583C5.23051 18.9366 5.63045 19.4291 6.48689 19.4291C7.3414 19.4285 7.73927 18.9396 8.37271 18.3583C9.00272 18.9364 9.40272 19.4291 10.2593 19.4291C11.1138 19.4285 11.5117 18.9396 12.1451 18.3583C12.7753 18.9366 13.1752 19.4291 14.0317 19.4291C14.8862 19.4285 15.3667 18.9396 16.0001 18.3583L18.5756 15.4092H3.12732V15.4092Z" fill="#8D472E"/>
<path d="M30.7147 18.0108C30.6709 17.7334 30.5763 17.5578 30.4723 17.4229C30.3447 17.257 30.2786 17.0522 30.2833 16.8431C30.3008 16.0564 29.6679 15.4092 28.881 15.4092H16V18.3583C16.6335 18.9394 17.1139 19.4284 17.9685 19.429C18.8249 19.429 19.2249 18.9365 19.855 18.3583C20.4885 18.9394 20.8864 19.4284 21.7409 19.429C22.5974 19.429 22.9974 18.9364 23.6274 18.3583C24.2609 18.9394 24.6588 19.4284 25.5133 19.429C26.3697 19.429 26.7696 18.9365 27.3998 18.3583L28.0294 18.9359C29.2231 20.0316 30.8813 19.1273 30.7147 18.0108Z" fill="#6F3D28"/>
<path d="M2.15813 12.9948V14.7876C1.83301 15.1223 1.40076 15.3066 0.941254 15.3066C0.421377 15.3065 0 15.7403 0 16.2753C0 16.8104 0.421377 17.2441 0.941191 17.2441C1.90357 17.2441 2.80832 16.8583 3.48908 16.1577C4.15989 15.467 5.25171 15.467 5.92277 16.1578C6.6034 16.8583 7.50822 17.2441 8.47053 17.2441C9.43291 17.2441 10.3377 16.8583 11.0184 16.1577C11.6892 15.467 12.7811 15.467 13.4521 16.1578C14.1327 16.8583 15.0376 17.2441 15.9999 17.2441L18.5753 12.9946H2.15813V12.9948Z" fill="#D5A150"/>
<path d="M31.0589 15.3064C30.5994 15.3064 30.1671 15.1221 29.8421 14.7875H29.8394L29.8421 14.7874V12.9946H16V17.2441C16.9624 17.2441 17.8672 16.8582 18.5479 16.1576C19.2187 15.4669 20.3105 15.4669 20.9816 16.1577C21.6622 16.8582 22.5671 17.2441 23.5294 17.2441C24.4918 17.2441 25.3965 16.8582 26.0773 16.1576C26.7481 15.4669 27.8399 15.4669 28.511 16.1577C29.1916 16.8582 30.0963 17.2441 31.0587 17.2441C31.5786 17.2441 31.9999 16.8103 31.9999 16.2753C32.0001 15.7402 31.5787 15.3064 31.0589 15.3064Z" fill="#AD712C"/>
<path d="M3.12732 10.7732C2.35269 10.7732 1.72475 11.4012 1.72475 12.1758V12.2175C1.72475 12.4197 1.66037 12.6179 1.5355 12.7769C1.42856 12.9132 1.33025 13.0905 1.28537 13.3748C1.11881 14.4913 2.777 15.3957 3.97076 14.3L4.60032 13.7224C5.23051 14.3006 5.63045 14.7931 6.48689 14.7931C7.3414 14.7926 7.73927 14.3036 8.37271 13.7224C9.00272 14.3004 9.40272 14.7931 10.2593 14.7931C11.1138 14.7926 11.5117 14.3036 12.1451 13.7224C12.7753 14.3006 13.1752 14.7931 14.0317 14.7931C14.8862 14.7926 15.3667 14.3036 16.0001 13.7224L18.5756 10.7733H3.12732V10.7732Z" fill="#8D472E"/>
<path d="M30.7147 13.3748C30.6709 13.0975 30.5763 12.9219 30.4723 12.7869C30.3447 12.621 30.2786 12.4163 30.2833 12.2071C30.3008 11.4204 29.6679 10.7732 28.881 10.7732H16V13.7223C16.6335 14.3035 17.1139 14.7925 17.9685 14.7931C18.8249 14.7931 19.2249 14.3006 19.855 13.7223C20.4885 14.3035 20.8864 14.7925 21.7409 14.7931C22.5974 14.7931 22.9974 14.3004 23.6274 13.7223C24.2609 14.3035 24.6588 14.7925 25.5133 14.7931C26.3697 14.7931 26.7696 14.3006 27.3998 13.7223L28.0294 14.3C29.2231 15.3957 30.8813 14.4913 30.7147 13.3748Z" fill="#6F3D28"/>
<path d="M14.7833 10.0874C13.3782 8.64111 11.0924 8.64117 9.68754 10.0873C9.36247 10.4219 8.93016 10.6062 8.47066 10.6062C8.01116 10.6062 7.57884 10.4219 7.2539 10.0874C5.84884 8.64111 3.56295 8.64117 2.15813 10.0873C1.83301 10.4219 1.40076 10.6062 0.941254 10.6062C0.421377 10.6062 0 11.04 0 11.5751C0 12.1101 0.421377 12.5439 0.941191 12.5439C1.90357 12.5439 2.80832 12.158 3.48908 11.4574C4.15989 10.7667 5.25171 10.7667 5.92277 11.4575C6.6034 12.158 7.50822 12.5439 8.47053 12.5439C9.43291 12.5439 10.3377 12.158 11.0184 11.4574C11.6892 10.7667 12.7811 10.7667 13.4521 11.4575C14.1327 12.158 15.0376 12.5439 15.9999 12.5439L16.099 12.4609C16.6929 11.9644 16.6433 11.0365 15.9999 10.6062C15.5405 10.6062 15.1082 10.4219 14.7833 10.0874Z" fill="#D5A150"/>
<path d="M31.059 10.6062C30.5995 10.6062 30.1671 10.4219 29.8422 10.0874C28.4371 8.64111 26.1513 8.64117 24.7464 10.0873C24.4214 10.4219 23.9891 10.6062 23.5296 10.6062C23.0701 10.6062 22.6377 10.4219 22.3128 10.0874C20.9077 8.64111 18.6219 8.64117 17.217 10.0873C16.892 10.4219 16.4597 10.6062 16.0002 10.6062V12.5439C16.9625 12.5439 17.8673 12.1581 18.548 11.4575C19.2189 10.7668 20.3107 10.7667 20.9817 11.4576C21.6624 12.1581 22.5672 12.5439 23.5295 12.5439C24.4919 12.5439 25.3966 12.1581 26.0774 11.4575C26.7482 10.7668 27.84 10.7667 28.5111 11.4576C29.1917 12.1581 30.0965 12.5439 31.0588 12.5439C31.5787 12.5439 32 12.1102 32 11.5751C32.0002 11.04 31.5788 10.6062 31.059 10.6062Z" fill="#AD712C"/>
</g>
<defs>
<clipPath id="clip0">
<path d="M0 0H32V32H0V0Z" fill="white"/>
</clipPath>
</defs>
</svg>
