<svg width="90" height="129" viewBox="0 0 90 129" fill="none" xmlns="http://www.w3.org/2000/svg">
<path fill-rule="evenodd" clip-rule="evenodd" d="M65.3318 20.6818L65.3486 21.6665L51.1894 121.148L19.5225 23.9228L19.4876 22.9751L53.819 11.8002L65.3318 20.6818Z" fill="#D16435"/>
<path fill-rule="evenodd" clip-rule="evenodd" d="M51.1034 121.12L20.3214 119.461L19.5058 23.4695L49.1457 27.0025L51.1034 121.12Z" fill="#F7A92D"/>
<path fill-rule="evenodd" clip-rule="evenodd" d="M67.7711 114.696L51.1034 121.12L52.9358 26.9139L65.3363 20.8052L67.7711 114.696Z" fill="#F39722"/>
<path fill-rule="evenodd" clip-rule="evenodd" d="M65.3318 20.6816L54.9657 12.2262L30.5797 13.6257L19.4696 23.0119L50.4066 24.6624L55.0401 15.5024L64.4174 20.8972L65.3318 20.6816Z" fill="#ED7423"/>
<path fill-rule="evenodd" clip-rule="evenodd" d="M52.8001 17.1551L28.4555 15.4563L28.9368 7.03389L54.2117 6.31275L52.8001 17.1551Z" fill="#F7A92D"/>
<path fill-rule="evenodd" clip-rule="evenodd" d="M52.8245 16.8945L54.2117 6.31274L55.8654 7.1936L57.9756 15.7342L52.8245 16.8945Z" fill="#ED7423"/>
<path fill-rule="evenodd" clip-rule="evenodd" d="M43.2327 44.3958L23.7226 41.9706L25.066 85.8765L44.0848 88.9338L43.2327 44.3958Z" fill="#ED7423"/>
</svg>
