<svg width="30" height="44" viewBox="0 0 30 44" fill="none" xmlns="http://www.w3.org/2000/svg">
<path fill-rule="evenodd" clip-rule="evenodd" d="M21.8225 7.9277L21.8287 8.25616L17.2091 41.4285L6.66407 8.97767L6.6519 8.66155L18.0064 4.95747L21.8225 7.9277Z" fill="#D16435"/>
<path fill-rule="evenodd" clip-rule="evenodd" d="M17.1747 41.4206L6.98853 40.8465L6.65458 8.83109L16.4641 10.0295L17.1747 41.4206Z" fill="#F7A92D"/>
<path fill-rule="evenodd" clip-rule="evenodd" d="M22.6692 39.2775L17.1525 41.4093L17.6965 9.97968L21.8 7.94998L22.6692 39.2775Z" fill="#F39722"/>
<path fill-rule="evenodd" clip-rule="evenodd" d="M21.8303 7.91492L18.4018 5.09478L10.3506 5.54392L6.68831 8.65924L16.9047 9.22928L18.4285 6.18482L21.5285 7.98605L21.8303 7.91492Z" fill="#ED7423"/>
<path fill-rule="evenodd" clip-rule="evenodd" d="M17.6964 6.72791L9.65462 6.14582L9.808 3.342L18.1555 3.11901L17.6964 6.72791Z" fill="#F7A92D"/>
<path fill-rule="evenodd" clip-rule="evenodd" d="M17.6987 6.6349L18.1506 3.10663L18.6984 3.40153L19.4023 6.25141L17.6987 6.6349Z" fill="#ED7423"/>
<path fill-rule="evenodd" clip-rule="evenodd" d="M14.5241 15.8273L8.06997 15.0054L8.54358 29.6463L14.8357 30.6787L14.5241 15.8273Z" fill="#ED7423"/>
</svg>
