<svg width="56" height="42" viewBox="0 0 56 42" fill="none" xmlns="http://www.w3.org/2000/svg">
<path fill-rule="evenodd" clip-rule="evenodd" d="M21.0119 11.6374L20.9372 11.9156L8.94966 38.7463L7.90345 8.84732L7.97004 8.57801L18.4988 8.20957L21.0119 11.6374Z" fill="#D16435"/>
<path fill-rule="evenodd" clip-rule="evenodd" d="M8.92773 38.7314L0.428555 35.7778L7.9352 8.71855L15.963 12.107L8.92773 38.7314Z" fill="#F7A92D"/>
<path fill-rule="evenodd" clip-rule="evenodd" d="M14.12 38.2718L8.92785 38.7314L17.0332 12.3883L21.0032 11.6724L14.12 38.2718Z" fill="#F39722"/>
<path fill-rule="evenodd" clip-rule="evenodd" d="M21.0119 11.6373L18.786 8.42201L11.8342 6.84517L7.96198 8.58691L16.5053 11.5508L18.5429 9.34929L20.7381 11.6241L21.0119 11.6373Z" fill="#ED7423"/>
<path fill-rule="evenodd" clip-rule="evenodd" d="M17.7815 9.6331L11.0909 7.18832L11.9046 4.85879L19.0511 6.69823L17.7815 9.6331Z" fill="#F7A92D"/>
<path fill-rule="evenodd" clip-rule="evenodd" d="M17.8093 9.56183L19.0511 6.69827L19.4439 7.07959L19.3475 9.65176L17.8093 9.56183Z" fill="#ED7423"/>
<path fill-rule="evenodd" clip-rule="evenodd" d="M12.9031 16.5202L7.62697 14.2618L4.46563 26.7169L9.55309 29.1134L12.9031 16.5202Z" fill="#ED7423"/>
<path fill-rule="evenodd" clip-rule="evenodd" d="M44.7878 38.1373L51.5589 36.8619C53.1026 36.5718 53.6667 35.5672 53.3765 34.0242L49.2793 12.2932C48.9891 10.7501 47.4878 9.7249 45.9442 10.0149L40.2448 11.0878C38.7012 11.3779 37.6754 12.8817 37.9656 14.4248L42.0628 36.1558C42.35 37.6954 43.241 38.4272 44.7878 38.1373Z" fill="#C4DDEC"/>
<path d="M50.093 16.6251L38.7793 18.7563L40.4244 27.4806L51.7381 25.3494L50.093 16.6251Z" fill="#92ACCD"/>
<path fill-rule="evenodd" clip-rule="evenodd" d="M40.0659 4.96006L43.871 4.24299L48.8038 11.1791L38.0013 13.2159L40.0659 4.96006Z" fill="#C4DDEC"/>
<path d="M43.753 2.92254L39.6958 3.6868L40.0438 5.53202L44.101 4.76777L43.753 2.92254Z" fill="#C4DDEC"/>
<path fill-rule="evenodd" clip-rule="evenodd" d="M39.4153 3.95497L44.1119 3.0695L43.612 0.409337C42.9011 0.171165 41.989 0.202276 41.2392 0.330846C40.4175 0.471161 39.4868 0.802276 38.9155 1.29481L39.4153 3.95497Z" fill="#92ACCD"/>
<path d="M44.1396 3.84036L39.6662 4.68301L39.7824 5.29915L44.2558 4.45649L44.1396 3.84036Z" fill="#A9BECB"/>
<path d="M42.4886 18.0604L40.3663 18.4602L42.0114 27.1845L44.1337 26.7847L42.4886 18.0604Z" fill="#A8BCD7"/>
<path d="M44.1344 26.7813L42.0121 27.181L43.741 36.35L45.8633 35.9502L44.1344 26.7813Z" fill="#D4E6F1"/>
<path d="M41.6146 13.419L39.4923 13.8188L40.3672 18.4588L42.4895 18.059L41.6146 13.419Z" fill="#D4E6F1"/>
<path fill-rule="evenodd" clip-rule="evenodd" d="M41.3728 5.98625L40.8384 6.08927L39.4962 13.8199L41.6168 13.4197L41.3728 5.98625Z" fill="#D4E6F1"/>
<g clip-path="url(#clip0)">
<path d="M35.5903 25.5514C35.5903 25.5514 35.5903 25.5515 35.5903 25.5515V24.5549C35.5902 24.569 35.5895 24.5831 35.5893 24.5972C35.6114 23.4568 34.8686 22.311 33.3613 21.4407C30.4033 19.7329 25.6227 19.7329 22.684 21.4408C21.2191 22.292 20.4884 23.4069 20.49 24.5225C20.49 24.5189 20.4898 24.5153 20.4898 24.5118V37.605C20.4866 38.7314 21.1944 39.8595 22.6828 40.7189C25.6411 42.4269 30.4216 42.4268 33.3607 40.7188C34.8207 39.8704 35.5871 38.7602 35.5903 37.6481V36.6518V36.6517V25.5514V25.5514Z" fill="#ACABB1"/>
<path d="M33.3963 27.6256C34.8562 26.7772 35.587 25.6669 35.5902 24.5549V37.6481C35.587 38.7602 34.8205 39.8705 33.3606 40.7188L33.3963 27.6256Z" fill="#ACABB1"/>
<path d="M33.3607 40.719C30.4216 42.427 25.6411 42.4271 22.6828 40.7191C21.1944 39.8597 20.4866 38.7316 20.4898 37.6052V24.5119C20.4866 25.6383 21.23 26.7664 22.7185 27.6257C25.6768 29.3337 30.4573 29.3337 33.3964 27.6257L33.3607 40.719Z" fill="#C6C5CB"/>
<path d="M33.3963 28.6222L33.3961 28.6731L33.3906 28.6253C30.451 30.3301 25.6748 30.3292 22.7183 28.6223C21.2299 27.7629 20.4864 26.6348 20.4897 25.5084V36.6087C20.4865 37.7351 21.1943 38.8632 22.6827 39.7226C25.641 41.4306 30.4215 41.4305 33.3606 39.7225L33.3663 39.7022L33.3663 39.7192C34.8224 38.8712 35.587 37.7624 35.5901 36.6519V25.5515C35.587 26.6635 34.8562 27.7738 33.3963 28.6222Z" fill="#CD2A01"/>
<path d="M33.3964 28.6221L33.3664 39.7191C34.8225 38.8712 35.5871 37.7623 35.5902 36.6518V25.5515C35.587 26.6635 34.8563 27.7738 33.3964 28.6221Z" fill="#6BA231"/>
<path d="M22.6828 39.7226C25.6411 41.4306 30.4216 41.4306 33.3607 39.7226L33.3907 28.6253C30.4511 30.3301 25.6749 30.3292 22.7185 28.6223C21.23 27.7629 20.4866 26.6348 20.4898 25.5084V36.6087C20.4866 37.7352 21.1944 38.8633 22.6828 39.7226Z" fill="#8CC153"/>
<path d="M33.3613 21.4408C36.3196 23.1488 36.3352 25.9178 33.3964 27.6256C30.4573 29.3336 25.6768 29.3337 22.7185 27.6257C19.7605 25.9179 19.7449 23.1489 22.684 21.4408C25.6228 19.733 30.4033 19.733 33.3613 21.4408Z" fill="#E0E0E2"/>
<path d="M28.0646 28.2512C26.1812 28.2512 24.4195 27.8195 23.1042 27.0356C21.9171 26.3282 21.2626 25.4352 21.2613 24.5213C21.2601 23.6156 21.903 22.7308 23.0716 22.0298C24.3771 21.2468 26.1328 20.8155 28.0154 20.8155C29.8988 20.8155 31.6602 21.2471 32.9754 22.0309C34.1628 22.7385 34.8174 23.6316 34.8187 24.5456C34.8199 25.4511 34.1771 26.3358 33.0086 27.0367C31.7031 27.8199 29.9473 28.2512 28.0646 28.2512Z" fill="#D8D8DA"/>
<path d="M23.0717 22.3699C24.3771 21.5869 26.1328 21.1556 28.0154 21.1556C29.8988 21.1556 31.6603 21.5872 32.9755 22.371C34.0901 23.0353 34.7352 23.8631 34.8111 24.7181C34.8162 24.6607 34.8189 24.6032 34.8188 24.5456C34.8175 23.6316 34.1629 22.7385 32.9755 22.0308C31.6604 21.2471 29.8989 20.8155 28.0155 20.8155C26.1328 20.8155 24.3771 21.2467 23.0717 22.0298C21.9031 22.7308 21.2602 23.6156 21.2614 24.5212C21.2615 24.5772 21.2641 24.6331 21.2691 24.6888C21.3442 23.8439 21.9774 23.0263 23.0717 22.3699Z" fill="#C6C5CB"/>
<path d="M28.6411 24.5575C28.6436 24.3492 28.5559 24.1731 28.3502 24.0543C27.5212 23.5757 25.0937 24.2082 23.8911 24.907C23.4163 25.1829 23.2514 25.455 23.2573 25.7022C23.2572 25.6975 23.2564 25.6929 23.2564 25.6882L23.2558 25.8935C23.2547 26.2782 23.6725 26.6037 23.9954 26.7901C24.5225 27.0944 25.6898 27.544 26.8921 26.8453C27.7994 26.3181 28.639 25.3872 28.6408 24.7562L28.6414 24.5509C28.6413 24.553 28.6411 24.5553 28.6411 24.5575ZM26.5318 25.111C26.4089 25.0401 26.3313 24.9529 26.2983 24.8614C26.3312 24.7717 26.4071 24.6861 26.5271 24.6164C26.8598 24.4231 27.4009 24.4231 27.7357 24.6164C27.8586 24.6873 27.936 24.7745 27.9691 24.8659C27.9361 24.9557 27.8603 25.0413 27.7401 25.1111C27.4077 25.3043 26.8666 25.3043 26.5318 25.111ZM23.7727 25.7393C23.8023 25.6243 23.8836 25.5211 24.0214 25.441C24.474 25.178 25.3563 25.2625 25.9922 25.6296C26.3251 25.8219 26.5241 26.0534 26.5735 26.2683C26.5436 26.3827 26.462 26.4855 26.3247 26.5652C25.8721 26.8282 24.9896 26.7439 24.3538 26.3768C24.0215 26.1849 23.8226 25.9538 23.7727 25.7393Z" fill="#E0E0E2"/>
<path d="M27.7362 24.4112C27.4014 24.2178 26.8603 24.2178 26.5276 24.4112C26.3625 24.5071 26.2798 24.6328 26.2795 24.7586L26.2789 24.9639C26.2792 24.8381 26.3619 24.7124 26.527 24.6164C26.8597 24.4231 27.4008 24.4231 27.7356 24.6164C27.9041 24.7137 27.9882 24.8414 27.9878 24.9689L27.9884 24.7636C27.9888 24.6361 27.9046 24.5084 27.7362 24.4112Z" fill="#C6C5CB"/>
<path d="M26.5866 26.1678L26.586 26.3731C26.5867 26.131 26.3801 25.8536 25.9921 25.6296C25.3563 25.2625 24.474 25.178 24.0213 25.441C23.8449 25.5436 23.7598 25.6838 23.7593 25.8385L23.7599 25.6332C23.7604 25.4785 23.8455 25.3383 24.0219 25.2357C24.4746 24.9727 25.3569 25.0572 25.9927 25.4243C26.3807 25.6483 26.5873 25.9257 26.5866 26.1678Z" fill="#C6C5CB"/>
<path d="M28.6413 24.5508L28.6407 24.7561C28.639 25.3871 27.7993 26.318 26.8921 26.8453C25.6897 27.544 24.5224 27.0944 23.9953 26.79C23.6724 26.6036 23.2546 26.2782 23.2557 25.8935L23.2563 25.6882C23.2552 26.0729 23.673 26.3983 23.9959 26.5847C24.523 26.889 25.6903 27.3387 26.8926 26.64C27.7999 26.1127 28.6395 25.1818 28.6413 24.5508Z" fill="#C6C5CB"/>
<path d="M28.3502 24.0545C29.1792 24.5331 28.0953 25.9413 26.8928 26.6401C25.6904 27.3389 24.5231 26.8892 23.996 26.5849C23.4689 26.2806 22.6889 25.6059 23.8912 24.9072C25.0937 24.2082 27.5213 23.5759 28.3502 24.0545ZM24.3539 26.3768C24.9897 26.7439 25.8722 26.8283 26.3248 26.5653C26.7775 26.3023 26.6287 25.7915 25.9929 25.4244C25.357 25.0573 24.4747 24.9728 24.0221 25.2358C23.5695 25.4989 23.718 26.0098 24.3539 26.3768ZM27.7363 24.4112C27.4015 24.2179 26.8604 24.2179 26.5277 24.4112C26.1953 24.6045 26.197 24.9179 26.5318 25.1112C26.8666 25.3045 27.4077 25.3045 27.7402 25.1113C28.0728 24.9179 28.0711 24.6045 27.7363 24.4112Z" fill="#E0E0E2"/>
<path d="M27.7314 24.6626C27.7314 24.665 27.7312 24.6675 27.7311 24.67C27.7347 24.5822 27.6786 24.4936 27.5625 24.4267C27.3384 24.2973 26.9763 24.2973 26.7536 24.4267C26.6426 24.4912 26.5872 24.5757 26.5874 24.6602C26.5874 24.6599 26.5873 24.6596 26.5873 24.6594L26.5867 24.8647C26.5865 24.9501 26.6428 25.0355 26.7555 25.1006C26.9797 25.23 27.3418 25.23 27.5645 25.1006C27.6751 25.0363 27.7305 24.9522 27.7307 24.868L27.7314 24.6626Z" fill="#E0E0E2"/>
<path d="M27.7313 24.6625L27.7307 24.8679C27.7305 24.9521 27.6751 25.0363 27.5645 25.1005C27.3418 25.2299 26.9796 25.2299 26.7555 25.1005C26.6428 25.0354 26.5864 24.9499 26.5867 24.8646L26.5873 24.6593C26.5871 24.7446 26.6433 24.8301 26.7561 24.8952C26.9802 25.0246 27.3424 25.0246 27.5651 24.8952C27.6757 24.8309 27.731 24.7468 27.7313 24.6625Z" fill="#C6C5CB"/>
<path d="M27.5625 24.4266C27.7867 24.5559 27.7878 24.7658 27.5652 24.8951C27.3425 25.0245 26.9803 25.0245 26.7562 24.8951C26.5321 24.7658 26.531 24.556 26.7536 24.4266C26.9762 24.2972 27.3384 24.2972 27.5625 24.4266Z" fill="#E0E0E2"/>
</g>
<defs>
<clipPath id="clip0">
<path d="M17.12 20.16H38.96V42H17.12V20.16Z" fill="white"/>
</clipPath>
</defs>
</svg>
