<svg width="32" height="41" viewBox="0 0 32 41" fill="none" xmlns="http://www.w3.org/2000/svg">
<path fill-rule="evenodd" clip-rule="evenodd" d="M27.3861 11.136L11.8941 34.6176C10.4319 36.833 7.43252 37.4336 5.22984 35.9531C3.02715 34.4726 2.42185 31.4478 3.884 29.2324L19.376 5.7508C20.8382 3.53539 23.8376 2.93471 26.0402 4.41523C28.2429 5.89574 28.8482 8.92058 27.3861 11.136Z" fill="#EB6465"/>
<path fill-rule="evenodd" clip-rule="evenodd" d="M26.1772 4.67715C26.8648 4.44055 27.4372 4.05249 27.964 3.60548C27.1923 3.39261 26.5652 2.94396 26.0432 2.31437C25.6627 3.02582 25.5298 3.68733 25.6252 4.30709C25.8108 4.43153 25.994 4.55434 26.1772 4.67715ZM5.59312 35.8672L5.29965 37.9434L3.37885 36.6523L5.04106 35.4971L5.59312 35.8672Z" fill="#EB6465"/>
<path fill-rule="evenodd" clip-rule="evenodd" d="M26.3272 10.8607L11.0481 34.0178C10.1666 35.3564 8.56934 35.9425 7.09119 35.6208C7.67268 35.2671 8.1985 34.7734 8.60934 34.1496L25.5076 8.5446C25.9185 7.92077 26.1699 7.23963 26.2686 6.56585C27.1345 7.8119 27.2112 9.52377 26.3272 10.8607Z" fill="#F08C8E"/>
<path d="M24.1994 15.9485L16.188 10.5755L7.07501 24.4191L15.0865 29.792L24.1994 15.9485Z" fill="#BC5D44"/>
<path d="M21.7221 14.2812L12.5825 28.123L14.2101 29.2171L23.3496 15.3752L21.7221 14.2812Z" fill="#CB6A51"/>
</svg>
